<svg width="18" height="22" viewBox="0 0 18 22" fill="none" xmlns="http://www.w3.org/2000/svg">
<path d="M17.2031 5.16736C17.6367 5.60095 18 6.46814 18 7.08923V20.5892C18 21.2103 17.4961 21.7142 16.875 21.7142H1.125C0.503906 21.7142 0 21.2103 0 20.5892V1.83923C0 1.21814 0.503906 0.714233 1.125 0.714233H11.625C12.2461 0.714233 13.1133 1.07751 13.5469 1.51111L17.2031 5.16736ZM12 2.30798V6.71423H16.4062C16.3359 6.51501 16.2305 6.3158 16.1484 6.23376L12.4805 2.5658C12.3984 2.48376 12.1992 2.3783 12 2.30798ZM16.5 20.2142V8.21423H11.625C11.0039 8.21423 10.5 7.71033 10.5 7.08923V2.21423H1.5V20.2142H16.5ZM5.02734 17.472V18.7142H8.32031V17.472H7.44141L8.64844 15.5853C8.78906 15.3627 8.85938 15.1869 8.89453 15.1869H8.91797C8.92969 15.2338 8.95312 15.2689 8.97656 15.3041C9.02344 15.3978 9.09375 15.4681 9.17578 15.5853L10.4297 17.472H9.53906V18.7142H12.9492V17.472H12.1523L9.90234 14.2728L12.1875 10.9681H12.9727V9.71423H9.70312V10.9681H10.5703L9.36328 12.8314C9.22266 13.0541 9.11719 13.2299 9.11719 13.2181H9.09375C9.08203 13.1713 9.05859 13.1361 9.03516 13.101C8.98828 13.0189 8.92969 12.9369 8.83594 12.8314L7.59375 10.9681H8.48438V9.71423H5.08594V10.9681H5.88281L8.09766 14.1556L5.82422 17.472H5.02734Z" fill="#5F249F"/>
</svg>
