<svg width="674" height="145" viewBox="0 0 674 145" fill="none" xmlns="http://www.w3.org/2000/svg">
<path d="M643.598 125.492L667 143H2L20.6657 134.385L40.1672 125.492L65.519 98.2582L97.8358 92.4223L144.082 45.4573H161.633L169.434 52.1269L179.185 66.8556L195.9 92.4223H259.698L266.384 75.7484L281.985 40.4551L298.701 16H332.132L356.648 23.7812L370.299 40.4551L390.915 61.0197V92.4223H431.032H518.232L581.751 98.2582L643.598 125.492Z" fill="#2B2B4B"/>
<path d="M36.5446 139.643C36.5446 140.819 36.1885 141.47 34.8641 141.54C33.5887 141.614 32.3165 141.809 31.0427 141.828C27.6913 141.877 24.3367 141.869 20.9853 141.863C20.0106 141.863 19.0358 141.791 18.0627 141.757C15.8727 141.674 13.6812 141.524 11.4911 141.542C10.0878 141.52 8.68732 141.679 7.32471 142.016C5.17542 142.449 2.98236 142.627 0.791199 142.546C0.519897 142.51 0.254089 142.441 0 142.34C0.1427 142.11 0.306885 141.894 0.49054 141.695C0.908264 141.342 1.37671 141.048 1.78497 140.685C4.06427 138.673 6.46777 136.805 8.98145 135.094C9.37225 134.813 9.68976 134.442 9.90717 134.013C10.301 133.253 10.876 132.601 11.5813 132.116C13.4517 130.762 15.4106 129.518 17.1766 128.04C19.3681 126.208 21.4489 124.246 23.4822 122.23C25.4222 120.312 27.2973 118.317 29.0854 116.255C30.7548 114.33 32.2849 112.282 33.8561 110.271C34.3403 109.651 34.7629 108.984 35.2107 108.334C35.4512 107.985 35.698 107.639 35.9211 107.275C36.2977 106.657 36.6727 106.034 37.0209 105.398C37.8233 104.113 38.5284 102.77 39.1301 101.38C39.4899 100.487 39.9731 99.6495 40.5654 98.8911C41.7696 97.2136 42.8946 95.4809 44.037 93.7591C44.776 92.6525 45.4343 91.4809 46.2255 90.409C46.7832 89.768 47.1932 89.0124 47.4265 88.1956C47.6093 87.4179 48.0737 86.7353 48.7303 86.2794C51.0228 84.6525 52.9057 82.5158 54.2306 80.0377C54.3596 79.8315 54.5012 79.6335 54.6547 79.4448C56.5535 76.6196 59.1122 74.2907 60.8939 71.3691C61.0291 71.1665 61.1885 70.9812 61.3687 70.8173C62.3181 69.8813 63.2991 68.9707 64.2296 68.0126C66.5572 65.6127 68.8373 63.1669 71.1918 60.7938C72.5622 59.412 74.1494 58.2357 75.4437 56.7923C77.8173 54.1488 80.8728 52.3054 83.3381 49.7805C83.8481 49.3471 84.4125 48.982 85.017 48.6944C85.8081 48.2359 86.6325 47.8438 87.3904 47.3553C88.6769 46.4419 90.0558 45.6661 91.5046 45.0407C92.4667 44.6771 93.3892 44.206 94.3529 43.8645C96.4733 43.1151 98.3673 41.8471 100.54 41.2194C100.765 41.1289 100.981 41.0189 101.187 40.8906C102.656 40.1618 104.122 39.425 105.603 38.7183C105.939 38.572 106.296 38.4797 106.66 38.4448C108.111 38.2365 109.52 37.8 110.835 37.1515C111.776 36.7207 112.777 36.4339 113.803 36.301C114.518 36.176 115.221 35.9888 115.903 35.7413C117.113 35.3429 118.307 34.8876 119.519 34.4971C119.872 34.4032 120.239 34.3653 120.604 34.3848C124.259 34.399 127.915 34.4085 131.57 34.4623C132.297 34.5115 133.018 34.6172 133.728 34.7785C134.868 34.9745 136.004 35.199 137.143 35.3919C139.301 35.7571 141.464 36.097 143.62 36.478C143.966 36.5851 144.302 36.7254 144.621 36.897C144.99 37.101 145.392 37.2386 145.808 37.3033C147.517 37.2828 148.903 38.3721 150.531 38.5982C151.729 39.512 153.288 39.5057 154.584 40.2029C155.489 40.6972 156.452 41.078 157.451 41.3365C160.001 41.961 162.397 43.0958 164.496 44.6723C164.779 44.9016 165.087 45.0973 165.415 45.2557C167.156 45.7971 168.725 46.7835 169.967 48.1173C170.234 48.3647 170.544 48.5613 170.882 48.6976C173.24 49.9562 175.529 51.3394 177.74 52.8414C178.302 53.2055 178.887 53.5319 179.492 53.8184C179.941 54.0056 180.375 54.2265 180.791 54.4793C182.114 55.4425 183.583 56.1896 185.141 56.6927C185.474 56.8277 185.757 57.0638 185.949 57.3678C186.358 57.9758 186.941 58.446 187.622 58.7163C188.506 59.1195 189.335 59.6396 190.198 60.0934C191.598 60.8286 193.005 61.5526 194.412 62.2783C195.002 62.5819 195.586 62.9107 196.198 63.1653C197.212 63.837 198.328 64.3385 199.504 64.6498C200.174 64.6956 200.819 64.92 201.372 65.2996C201.685 65.4879 202.03 65.6151 202.39 65.6743C203.809 66.2045 205.283 66.5756 206.784 66.781C206.968 66.793 207.146 66.8506 207.302 66.9486C208.618 67.605 210.1 67.8564 211.56 67.6711C211.978 67.5944 212.409 67.6172 212.818 67.7375C213.642 68.1415 214.575 68.2701 215.478 68.1043C215.721 68.0965 215.964 68.1318 216.194 68.2086C217.085 68.4189 217.981 68.6071 218.856 68.8632C219.917 69.1531 221.03 69.1963 222.111 68.9897C223.187 68.8173 224.285 68.7462 225.375 68.6656C225.921 68.626 226.483 68.7193 227.018 68.6545C227.902 68.6485 228.771 68.4312 229.554 68.0209C230.336 67.6105 231.009 67.019 231.516 66.2956C231.927 65.6824 232.517 65.2104 233.206 64.9439C234.369 64.4364 235.58 64.0443 236.751 63.5558C238.755 62.8371 240.645 61.8317 242.36 60.5709C243.211 59.9689 243.829 59.0939 244.112 58.0919C244.341 57.142 244.912 56.3096 245.716 55.7536C246.979 54.7805 247.925 53.4566 248.437 51.9481C248.553 51.6029 248.713 51.2735 248.911 50.9679C250.131 49.0085 251.071 46.8877 251.701 44.6676C251.86 44.2709 251.905 43.8378 251.831 43.417C251.198 41.2542 252.858 39.6226 253.097 37.6622C253.13 37.4092 253.443 37.1705 253.669 36.9682C254.577 36.0599 255.273 34.963 255.707 33.7556C256.12 32.6754 256.756 31.694 257.573 30.875C257.79 30.7054 257.953 30.4767 258.042 30.2166C258.131 29.9565 258.143 29.6761 258.076 29.4094C258.004 29.113 257.995 28.8046 258.051 28.5047C258.108 28.2048 258.227 27.9203 258.402 27.6703C259.114 26.5399 259.773 25.3715 260.561 24.2965C261.147 23.597 261.555 22.7659 261.749 21.8744C261.802 21.3891 261.975 20.9247 262.252 20.5226C263.421 19.0429 264.673 17.6309 266.002 16.2935C266.717 15.7488 267.356 15.1107 267.901 14.3963C268.197 14.0083 268.544 13.663 268.934 13.3702C269.599 12.8368 270.23 12.2623 270.822 11.6501C271.895 10.4803 273.172 9.51594 274.591 8.80427C276.351 7.83828 278.125 6.88177 279.971 6.09127C281.911 5.25809 283.859 4.44072 285.859 3.73718C287.172 3.25843 288.546 2.9709 289.94 2.88344C290.731 2.85872 291.509 2.67707 292.228 2.34906C294.041 1.45517 296.053 1.03885 298.072 1.1396C298.99 1.21743 299.909 0.995528 300.691 0.507194C301.255 0.131835 301.928 -0.0435343 302.604 0.00918182C304.555 -0.0216462 306.503 0.16823 308.411 0.575181C309.475 0.894918 310.605 0.923308 311.683 0.65739C312.261 0.459048 312.874 0.382222 313.483 0.43174C314.091 0.481257 314.684 0.656048 315.222 0.945131C315.437 1.06139 315.674 1.13039 315.918 1.1475C318.1 1.36094 320.124 2.45341 322.371 2.31112C322.493 2.30108 322.617 2.32344 322.728 2.37594C324.003 2.95489 325.347 3.36775 326.727 3.60437C327.55 3.80673 328.384 3.96483 329.208 4.15613C329.745 4.23877 330.272 4.3787 330.779 4.57352C332.203 5.25493 333.596 6.01223 335.011 6.71893C335.336 6.88268 335.683 7.00078 336.041 7.06991C336.891 7.15471 337.714 7.41817 338.455 7.84302C338.714 8.00859 339.015 8.0959 339.322 8.0944C340.848 8.07859 342.046 9.11098 343.489 9.37659C343.84 9.44141 344.114 9.91096 344.424 10.1924C344.813 10.6508 345.266 11.0511 345.769 11.3813C347.4 12.207 348.933 13.2147 350.337 14.3852C351.397 15.1999 352.701 15.6348 354.038 15.6199C354.277 15.6278 354.513 15.6405 354.855 15.6563C355.15 16.3092 355.522 16.9248 355.963 17.4903C356.496 18.0405 357.32 18.3076 357.861 18.8483C359.195 20.1791 360.734 21.2873 362.42 22.1305C362.737 22.3079 363.029 22.5276 363.287 22.7834C364.192 23.5961 365.037 24.4814 365.988 25.234C368.136 26.9304 370.338 28.5541 372.511 30.2284C374.325 31.7535 376.252 33.1407 378.274 34.3785C378.591 34.5653 378.858 34.8256 379.052 35.1374C379.748 36.1507 380.764 36.9021 381.937 37.2717C382.737 37.5785 383.386 38.184 383.747 38.9602C384.601 40.5184 385.836 41.8348 387.337 42.7862C388.514 43.5385 389.539 44.5036 390.36 45.632C390.652 46.0994 391.04 46.5001 391.498 46.8079C391.956 47.1157 392.473 47.3238 393.017 47.4185C393.99 47.5589 394.872 48.0685 395.479 48.8414C396.17 49.6109 396.959 50.2879 397.824 50.8556C398.399 51.1969 398.863 51.6971 399.161 52.2959C399.728 53.5218 400.665 54.5399 401.84 55.2081C403.469 56.2797 404.961 57.546 406.283 58.9788C406.751 59.5458 407.361 59.9789 408.051 60.2341C408.343 60.3194 408.614 60.4659 408.845 60.6638C409.076 60.8617 409.263 61.1064 409.392 61.3819C409.57 61.7439 409.878 62.2135 410.215 62.3005C411.466 62.7312 412.568 63.5068 413.396 64.5376C414.285 65.4482 415.295 66.2403 416.261 67.0672C416.784 67.5747 417.35 68.035 417.953 68.4426C419.157 69.1493 420.425 69.747 421.654 70.4094C421.965 70.5982 422.262 70.8096 422.542 71.0418C424.238 72.3256 425.953 73.5872 427.616 74.9121C427.984 75.235 428.415 75.4767 428.882 75.6213C429.349 75.766 429.842 75.8104 430.327 75.7516C430.906 75.7002 431.488 75.8116 432.007 76.073C432.527 76.3345 432.962 76.7357 433.265 77.2314C433.769 77.8385 434.248 78.4677 434.773 79.0559C435 79.3358 435.289 79.5594 435.617 79.7088C437.176 80.3913 438.674 81.2047 440.095 82.1404C441.201 82.774 442.357 83.3155 443.552 83.7593C444.763 84.1603 445.943 84.6469 447.084 85.2154C448.532 85.9992 450.11 86.5155 451.741 86.7395C452.405 86.8257 453.062 86.9577 453.708 87.1348C455.112 87.5555 456.57 87.7634 458.036 87.7514C459.256 87.7403 460.477 87.6992 461.691 87.7782C464.186 87.7074 466.65 87.2001 468.97 86.2794C469.593 86.0471 470.249 85.9152 470.913 85.8889C472.014 86.0025 473.12 85.7224 474.033 85.0984C474.392 84.8664 474.795 84.7113 475.217 84.6431C476.407 84.3674 477.537 83.8795 478.554 83.2028C478.96 82.9328 479.394 82.706 479.847 82.5262C481.104 82.0552 482.239 81.3092 483.17 80.3428C483.936 79.4673 484.93 78.8215 486.042 78.4772C486.552 78.292 487.004 77.9731 487.349 77.5539C487.514 77.3373 487.722 77.1573 487.961 77.0253C488.199 76.8934 488.462 76.8122 488.733 76.7871C489.131 76.7619 489.515 76.6336 489.848 76.4148C490.181 76.1961 490.451 75.8945 490.632 75.5397C490.845 75.1739 491.153 74.8732 491.525 74.6702C492.474 74.2402 493.265 73.5477 494.147 73.0481C495.772 72.0793 497.15 70.7468 498.172 69.1557C498.418 68.7373 498.769 68.3898 499.19 68.147C500.064 67.7077 500.812 67.0551 501.367 66.2498C502.426 64.9138 503.503 63.5906 504.494 62.204C505.027 61.4644 505.684 60.8225 506.437 60.3068C507.829 59.3266 509.184 58.2879 510.529 57.2429C512.303 55.8658 514.053 54.4587 515.817 53.069C516.015 52.926 516.219 52.7935 516.431 52.6722C517.254 52.1536 518.093 51.6619 518.896 51.1149C520.881 49.8177 522.967 48.6836 525.136 47.7237C525.873 47.4722 526.522 47.0152 527.007 46.4067C527.23 46.0344 527.568 45.7441 527.969 45.5794C528.371 45.4147 528.815 45.3843 529.235 45.4929C530.919 45.7786 532.64 45.7748 534.323 45.4818C535.237 45.4142 536.097 45.0216 536.747 44.3751C537.855 43.3332 538.054 43.3601 539.446 44.1933C539.549 44.255 539.651 44.3214 539.763 44.3846C540.174 44.7007 540.645 44.93 541.148 45.0582C541.651 45.1865 542.175 45.2112 542.687 45.1308C542.959 45.0707 543.243 45.0887 543.505 45.1827C543.768 45.2766 543.998 45.4428 544.17 45.6621C544.401 45.9471 544.696 46.1732 545.032 46.3219C545.368 46.4706 545.734 46.5376 546.1 46.5174C546.467 46.5139 546.828 46.5999 547.154 46.768C547.479 46.9361 547.758 47.1811 547.967 47.4818C548.233 47.8864 548.606 48.209 549.045 48.413C549.907 48.7027 550.747 49.0552 551.558 49.4675C551.965 49.5647 552.384 49.6004 552.802 49.5734C553.156 49.6051 553.593 49.5402 553.846 49.7205C554.517 50.25 555.33 50.5681 556.183 50.6343C556.478 50.7056 556.753 50.8393 556.992 51.0264C558.835 52.2012 560.814 53.1473 562.886 53.8437C563.345 54.0099 563.766 54.2657 564.125 54.5963C565.346 55.6002 566.528 56.6516 567.747 57.6571C568.638 58.3922 569.562 59.08 570.473 59.7946C571.239 60.3922 572.056 60.9345 572.769 61.5922C573.428 62.2208 574.285 62.6019 575.193 62.6704C575.929 62.6875 576.643 62.9242 577.243 63.3499C577.843 63.7756 578.302 64.3709 578.561 65.0593C578.679 65.4048 578.87 65.7213 579.12 65.988C579.37 66.2548 579.673 66.4658 580.01 66.6071C580.96 67.0245 581.877 67.4925 582.794 67.9683C583.109 68.1434 583.402 68.3558 583.667 68.6007C585.036 69.7912 586.395 70.9944 587.761 72.1896C587.896 72.3139 588.046 72.4201 588.208 72.5058C589.345 73.0655 590.485 73.6125 591.606 74.1595C591.93 75.1002 592.488 75.9433 593.228 76.6101C594.168 77.4353 594.158 77.4464 595.484 77.2061C596.471 79.0211 596.521 79.0622 598.63 79.9634C599.329 80.1598 599.992 80.4684 600.592 80.8772C601.041 81.4435 601.394 82.0796 601.636 82.7601C601.773 83.0988 601.935 83.427 602.12 83.742C603.026 84.9941 603.973 86.1909 605.788 85.9791C606.219 85.9489 606.647 86.0579 607.01 86.29C607.374 86.522 607.653 86.8648 607.806 87.2676C607.947 87.5376 608.046 87.8276 608.1 88.1276C608.307 88.9658 608.814 89.6994 609.524 90.1908C609.904 90.4951 610.302 90.7765 610.716 91.0335C611.448 91.4738 612.097 92.0389 612.634 92.703C613.601 93.814 614.963 94.5042 616.431 94.6271C616.882 94.6444 617.325 94.7584 617.728 94.9613C618.131 95.1643 618.486 95.4514 618.768 95.8034C619.201 96.3088 619.602 96.8399 619.969 97.3939C620.097 97.67 620.294 97.9083 620.542 98.0854C620.789 98.2625 621.078 98.3723 621.381 98.4041C622.705 98.6463 623.934 99.2567 624.927 100.165C625.315 100.458 625.675 100.788 626.043 101.114C626.74 101.753 627.56 102.245 628.453 102.561C629.345 102.876 630.292 103.008 631.237 102.949C631.657 102.867 632.092 102.928 632.473 103.123C632.854 103.317 633.158 103.634 633.337 104.021C633.693 104.658 634.099 105.266 634.551 105.84C634.756 106.14 635.002 106.411 635.28 106.646C635.994 107.215 636.733 107.753 637.472 108.289C637.961 108.644 638.263 108.529 638.561 107.887C638.63 107.742 638.69 107.588 638.815 107.297C639.331 107.93 640.225 107.93 640.523 108.855C640.326 109.261 640.094 109.737 639.877 110.187C640.049 110.86 640.457 111.45 641.026 111.849C642.081 112.428 643.121 113.035 644.146 113.67C644.541 113.949 644.911 114.261 645.254 114.601C645.513 114.831 645.763 115.076 646.028 115.319L647.718 114.279C648.518 115.183 649.352 115.985 650.02 116.91C651.187 118.543 652.498 120.067 653.938 121.466C656.644 124.096 659.075 126.995 661.191 130.119C661.492 130.686 661.908 131.184 662.414 131.58C662.921 131.975 663.505 132.259 664.128 132.413C664.398 132.475 664.646 132.606 664.85 132.793C665.054 132.98 665.205 133.217 665.29 133.48C665.41 133.887 665.632 134.257 665.935 134.554C666.719 135.226 667.388 136.022 667.915 136.909C668.731 137.951 669.472 139.058 670.19 140.171C670.327 140.407 670.512 140.613 670.733 140.774C670.953 140.936 671.205 141.049 671.472 141.108C671.831 141.188 672.169 141.341 672.467 141.556C672.764 141.772 673.014 142.046 673.202 142.362C673.518 142.855 674.194 143.274 673.947 143.935C673.656 144.726 672.815 144.52 672.187 144.577C670.247 144.756 668.301 144.876 666.356 144.999C665.991 145.004 665.627 144.985 665.264 144.941C664.173 144.862 663.081 144.746 661.986 144.708C659.245 144.617 656.503 144.564 653.758 144.484C653.271 144.483 652.785 144.433 652.308 144.335C650.996 144.055 649.654 143.937 648.313 143.983C647.214 143.992 646.115 144.022 645.02 143.97C643.925 143.918 642.835 143.796 641.747 143.654C641.498 143.644 641.263 143.537 641.092 143.356C640.921 143.175 640.829 142.934 640.834 142.685C640.792 142.26 640.775 141.834 640.784 141.407C640.784 139.946 640.784 138.486 640.784 137.023C640.793 136.597 640.769 136.171 640.711 135.749C640.686 135.441 640.549 135.152 640.328 134.937C640.106 134.721 639.814 134.593 639.505 134.576C639.081 134.534 638.654 134.518 638.228 134.53C636.156 134.524 634.084 134.524 632.011 134.53C627.136 134.53 622.259 134.555 617.382 134.53C615.533 134.522 615.241 134.201 615.199 132.416C615.191 132.051 615.213 131.684 615.213 131.32C615.213 129.98 615.23 128.633 615.194 127.302C615.189 126.754 615.1 126.211 614.931 125.691C614.812 125.31 614.566 124.983 614.235 124.762C613.903 124.541 613.505 124.441 613.108 124.478C610.124 124.554 607.137 124.565 604.151 124.592C603.602 124.605 603.053 124.586 602.507 124.536C602.368 124.541 602.229 124.518 602.1 124.467C601.97 124.417 601.853 124.34 601.754 124.242C601.656 124.144 601.578 124.027 601.527 123.898C601.476 123.768 601.451 123.63 601.456 123.491C601.41 123.017 601.429 122.519 601.429 122.034C601.429 120.266 601.429 118.5 601.429 116.734C601.433 116.308 601.406 115.882 601.35 115.46C601.325 115.215 601.217 114.986 601.045 114.81C600.872 114.634 600.645 114.521 600.4 114.491C600.161 114.444 599.918 114.423 599.674 114.428C598.877 114.483 598.084 114.266 597.427 113.811C597.168 113.652 596.893 113.521 596.606 113.419C594.707 112.6 592.808 111.794 590.909 110.965C589.462 110.333 588.025 109.677 586.588 109.021C584.878 108.238 583.197 107.384 581.461 106.668C580.626 106.286 579.719 106.087 578.801 106.085C577.883 106.083 576.975 106.277 576.138 106.655C574.491 107.414 572.856 108.202 571.2 108.937C570.388 109.192 569.622 109.575 568.931 110.07C568.621 110.261 568.28 110.396 567.924 110.47C567.47 110.641 567.006 110.786 566.559 110.979C564.501 111.868 562.422 112.749 560.372 113.667C559.45 114.134 558.44 114.403 557.408 114.458C556.264 114.478 555.759 115.039 555.667 116.163C555.609 116.889 555.642 117.624 555.642 118.353C555.642 119.876 555.681 121.4 555.626 122.921C555.583 124.094 555.204 124.502 554.094 124.549C552.817 124.608 551.534 124.581 550.256 124.522C549.488 124.487 549.178 124.147 549.118 123.359C549.058 122.57 549.077 121.778 549.077 120.987C549.077 115.751 549.088 110.513 549.077 105.275C549.075 104.668 549.012 104.062 548.89 103.466C548.851 103.16 548.701 102.879 548.467 102.677C548.233 102.475 547.933 102.366 547.624 102.372C547.197 102.36 546.771 102.358 546.344 102.357L522.022 102.317C521.596 102.305 521.169 102.316 520.745 102.349C520.372 102.339 520.009 102.468 519.727 102.711C519.445 102.954 519.264 103.293 519.219 103.663C519.12 104.262 519.073 104.869 519.078 105.476C519.045 106.388 519.078 107.304 519.015 108.213C519.027 108.353 519.008 108.494 518.959 108.626C518.91 108.758 518.833 108.877 518.732 108.976C518.632 109.075 518.511 109.15 518.379 109.197C518.246 109.244 518.104 109.261 517.964 109.247C516.504 109.285 515.04 109.277 513.581 109.215C513.441 109.224 513.301 109.204 513.169 109.155C513.037 109.107 512.917 109.032 512.817 108.934C512.716 108.837 512.637 108.719 512.584 108.589C512.532 108.459 512.507 108.32 512.512 108.179C512.445 107.454 512.475 106.72 512.459 105.99C512.478 105.322 512.46 104.653 512.404 103.987C512.376 103.554 512.187 103.147 511.875 102.846C511.562 102.545 511.148 102.372 510.714 102.36C510.41 102.333 510.105 102.325 509.801 102.336L485.297 102.358C484.933 102.358 484.564 102.388 484.2 102.358C482.565 102.24 481.711 103.115 481.898 104.823C481.982 105.732 482.019 106.644 482.01 107.557C482.024 110.235 482.01 112.91 482.01 115.585C482.01 115.83 482.01 116.073 481.986 116.315C481.85 118.182 481.641 118.399 479.79 118.401C474.546 118.401 469.303 118.394 464.061 118.382C463.696 118.384 463.332 118.357 462.971 118.301C462.757 118.273 462.558 118.175 462.405 118.023C462.253 117.87 462.155 117.671 462.128 117.457C462.065 117.098 462.032 116.735 462.031 116.371C462.022 114.603 462.031 112.839 462.022 111.074C462.036 110.526 462.018 109.977 461.966 109.432C461.925 108.94 461.708 108.48 461.355 108.137C461.002 107.793 460.536 107.588 460.044 107.56C459.253 107.479 458.461 107.501 457.67 107.428C457.064 107.393 456.463 107.293 455.877 107.131C454.073 106.278 452.188 105.608 450.25 105.131C450.016 105.062 449.796 104.949 449.603 104.799C449.045 104.482 448.416 104.31 447.773 104.299C447.131 104.288 446.496 104.439 445.927 104.738C445.385 105.002 444.804 105.179 444.206 105.262C443.419 105.337 442.653 105.551 441.942 105.895C441.452 106.139 440.911 106.262 440.364 106.254C439.817 106.245 439.28 106.105 438.799 105.846C437.316 105.168 435.712 104.752 434.164 104.216C433.643 104.065 433.135 103.871 432.645 103.637C432.167 103.362 431.622 103.223 431.071 103.234C430.519 103.245 429.981 103.406 429.514 103.7C429.159 103.935 428.778 104.13 428.379 104.279C426.392 105.011 424.443 105.841 422.539 106.768C421.485 107.226 420.352 107.473 419.203 107.495C406.951 107.495 394.7 107.501 382.448 107.512C382.084 107.512 381.715 107.512 381.351 107.482C380.124 107.391 379.84 107.136 379.753 105.958C379.699 105.229 379.707 104.496 379.707 103.765C379.707 90.6103 379.705 77.4548 379.699 64.2988C379.699 63.7518 379.699 63.2016 379.741 62.6562C379.82 61.7503 380.067 61.5289 380.999 61.4183C381.663 61.3659 382.325 61.2772 382.98 61.1527C383.098 61.1182 383.206 61.0561 383.296 60.9715C383.385 60.8868 383.453 60.7821 383.493 60.666C383.534 60.5498 383.547 60.4257 383.53 60.3038C383.513 60.182 383.467 60.0659 383.396 59.9653C383.23 59.71 383.015 59.4902 382.763 59.3187C382.094 58.8997 381.412 58.495 380.706 58.144C376.24 55.9306 371.771 53.7257 367.297 51.5291C366.699 51.2351 366.063 51.0153 365.471 50.7086C364.349 50.1284 363.256 49.4881 362.135 48.9126C360.517 48.0841 358.876 47.2905 357.244 46.4794C356.736 46.2612 356.304 45.8971 356.003 45.4332C355.702 44.9693 355.546 44.4266 355.554 43.8739C355.546 43.387 355.518 42.9001 355.519 42.4131C355.527 41.442 355.358 40.4777 355.019 39.5673C354.525 38.45 354.263 37.2442 354.249 36.0227C354.317 34.6852 354.363 33.3461 354.377 32.0086C354.345 31.0963 354.58 30.1945 355.051 29.4126C355.259 29.1817 355.411 28.9065 355.495 28.6079C355.58 28.3092 355.595 27.9952 355.539 27.69C355.483 27.3847 355.358 27.0962 355.173 26.8467C354.989 26.5972 354.749 26.3933 354.474 26.2506C353.912 25.8913 353.462 25.3819 353.174 24.7802C353.067 24.4894 352.875 24.2373 352.623 24.0564C352.371 23.8755 352.07 23.7741 351.76 23.7652C350.494 23.7399 349.206 23.7652 347.932 23.8443C347.683 23.8509 347.443 23.9433 347.254 24.1057C347.065 24.2681 346.938 24.4907 346.894 24.736C346.852 25.0365 346.736 25.3219 346.556 25.5664C346.376 25.8109 346.138 26.0069 345.864 26.1367C345.539 26.3109 345.272 26.5767 345.097 26.901C344.922 27.2254 344.845 27.594 344.878 27.9612C344.843 28.6334 345.017 29.2999 345.377 29.8695C345.659 30.2602 345.837 30.717 345.892 31.1959C345.948 33.2655 345.934 35.3366 345.905 37.4061C345.889 37.8042 345.782 38.1934 345.592 38.5439C345.402 38.8944 345.135 39.1968 344.81 39.4282C344.625 39.5898 344.396 39.694 344.153 39.728C343.909 39.7619 343.661 39.7242 343.438 39.6195C343.161 39.5009 342.911 39.3191 342.647 39.1736C341.152 38.3563 339.704 37.4345 338.147 36.7531C335.685 35.704 333.287 34.5125 330.964 33.1848C330.323 32.8275 329.602 32.6367 328.868 32.6298C328.134 32.6229 327.41 32.8002 326.762 33.1453C326.371 33.3145 326.02 33.5643 325.638 33.7492C323.453 34.8069 321.257 35.8409 319.076 36.9112C317.225 37.8187 315.396 38.7705 313.538 39.678C313.182 39.8061 312.815 39.8988 312.441 39.9547C311.714 38.6674 311.31 37.2234 311.263 35.746C311.329 34.5303 311.323 33.3097 311.324 32.0924C311.286 31.2982 311.464 30.5085 311.84 29.8078C312.046 29.4339 312.195 29.0317 312.283 28.6142C312.446 28.1172 312.424 27.5781 312.221 27.0963C312.017 26.6145 311.646 26.2226 311.176 25.9929C310.933 25.8737 310.719 25.7016 310.552 25.4893C310.384 25.277 310.266 25.0298 310.207 24.766C310.147 24.4622 309.979 24.1904 309.734 24.0013C309.488 23.8122 309.182 23.7188 308.873 23.7384C308.082 23.7115 307.291 23.6941 306.5 23.7131C305.039 23.7479 305.015 23.781 304.523 25.3036C304.456 25.4365 304.374 25.5616 304.28 25.6767C304.088 25.7774 303.89 25.864 303.686 25.936C303.33 26.0325 303.017 26.2485 302.801 26.5478C302.584 26.8471 302.477 27.2116 302.498 27.5802C302.4 28.3756 302.586 29.1799 303.023 29.8521C303.423 30.4686 303.611 31.1984 303.558 31.9311C303.558 33.3935 303.601 34.8559 303.558 36.3152C303.572 36.9196 303.441 37.5185 303.177 38.0622C302.594 39.1395 302.338 40.363 302.441 41.5831C302.453 42.1301 302.42 42.6898 302.48 43.2257C302.572 43.5636 302.592 43.9167 302.539 44.2628C302.487 44.6088 302.364 44.9402 302.176 45.236C301.989 45.5319 301.743 45.7857 301.453 45.9815C301.162 46.1773 300.834 46.3108 300.49 46.3735C299.521 46.647 298.708 47.4312 297.751 47.7869C296.616 48.2259 295.534 48.7873 294.521 49.4612C294.273 49.636 294.001 49.7754 293.714 49.8754C292.276 50.3683 290.887 50.9972 289.568 51.7536C287.954 52.59 286.299 53.3425 284.687 54.1805C283.299 55.0579 281.806 55.757 280.244 56.2611C280.131 56.3075 280.024 56.368 279.927 56.4413C278.353 57.4775 276.683 58.3611 274.941 59.08C274.885 59.1008 274.832 59.129 274.783 59.1638C274.548 59.3078 274.363 59.5215 274.255 59.7751C274.147 60.0286 274.121 60.3096 274.18 60.5788C274.239 60.8201 274.384 61.0317 274.588 61.1736C274.792 61.3154 275.041 61.3777 275.288 61.3487C275.712 61.3629 276.139 61.2902 276.563 61.2886C276.963 61.2542 277.36 61.3762 277.672 61.629C277.983 61.8818 278.184 62.2455 278.232 62.6435C278.287 63.0044 278.311 63.3695 278.302 63.7344C278.311 64.8301 278.302 65.9273 278.302 67.0229C278.302 76.707 278.302 86.3912 278.302 96.0753C278.308 96.7437 278.277 97.4119 278.209 98.0769C278.191 98.3245 278.084 98.5573 277.907 98.7318C277.73 98.9064 277.496 99.0107 277.248 99.0255C276.764 99.0766 276.276 99.0993 275.789 99.0934C268.414 99.0934 261.04 99.0934 253.665 99.0934C253.237 99.0934 252.809 99.0618 252.385 99.0934C252.139 99.0748 251.891 99.1097 251.66 99.1956C251.429 99.2816 251.219 99.4166 251.045 99.5913C250.871 99.7661 250.737 99.9764 250.652 100.208C250.567 100.439 250.534 100.686 250.554 100.932C250.456 102.197 250.44 103.478 250.396 104.752C250.227 107.487 250.268 110.231 250.519 112.96C250.685 114.233 250.577 115.527 250.202 116.755C250.153 116.964 250.041 117.153 249.882 117.297C249.722 117.441 249.523 117.534 249.31 117.563C248.828 117.624 248.342 117.659 247.856 117.669C246.88 117.703 245.905 117.7 244.932 117.752C244.564 117.724 244.195 117.779 243.85 117.911C243.506 118.044 243.196 118.251 242.942 118.519C242.689 118.786 242.498 119.107 242.384 119.457C242.27 119.808 242.235 120.179 242.283 120.544C242.248 122.31 242.257 124.076 242.238 125.842C242.244 126.33 242.223 126.817 242.175 127.302C242.093 127.986 241.805 128.323 241.118 128.331C239.536 128.348 237.953 128.288 236.371 128.247C236.262 128.247 236.157 128.14 236.015 128.064C235.661 127.363 235.546 126.565 235.689 125.793C235.673 118.546 235.673 111.298 235.689 104.05C235.689 102.714 235.806 101.375 235.838 100.037C235.856 99.5521 235.817 99.0664 235.719 98.5907C235.689 98.219 235.514 97.8741 235.231 97.6301C234.949 97.3862 234.582 97.2627 234.21 97.2864C233.542 97.2373 232.868 97.25 232.197 97.25H211.167C209.765 97.25 208.363 97.2184 206.963 97.25C205.154 97.2879 204.813 97.6452 204.784 99.3938C204.784 99.4555 204.784 99.5156 204.784 99.5772V109.626C204.784 110.113 204.797 110.602 204.77 111.087C204.707 112.274 204.438 112.529 203.187 112.59C202.825 112.608 202.456 112.59 202.092 112.59C199.655 112.59 197.216 112.594 194.777 112.601H181.427C180.512 112.671 179.593 112.535 178.737 112.203C176.382 111.088 174.007 110.017 171.762 108.681C171.25 108.415 170.827 108.005 170.545 107.501C170.264 106.998 170.137 106.423 170.179 105.847C170.235 101.158 170.202 96.469 170.202 91.7766C170.202 91.5948 170.202 91.4098 170.222 91.2296C170.316 90.1972 170.539 89.93 171.558 89.8778C172.577 89.8256 173.629 89.8667 174.664 89.8557C175.15 89.87 175.637 89.8462 176.12 89.7845C176.274 89.7756 176.423 89.7263 176.552 89.6416C176.682 89.5569 176.786 89.4397 176.856 89.3018C176.925 89.1638 176.957 89.0101 176.949 88.8559C176.94 88.7017 176.891 88.5525 176.806 88.4233C176.651 88.0907 176.466 87.7732 176.253 87.4747C175.593 86.6004 174.889 85.7609 174.235 84.8834C172.642 82.7364 171.07 80.5689 169.477 78.4266C168.759 77.5229 168.203 76.5017 167.833 75.4085C167.472 74.4435 167.252 73.432 167.178 72.4046C167.19 72.0386 167.126 71.6741 166.989 71.3343C166.43 70.1825 166.122 68.9253 166.086 67.6458C166.081 67.4612 166.022 67.2821 165.917 67.1304C165.34 66.265 165.026 65.2514 165.013 64.2119C164.952 63.7904 164.851 63.3758 164.709 62.974C163.958 60.8509 163.427 58.6559 163.127 56.4239C163.08 56.0631 162.973 55.7126 162.81 55.3868C162.079 53.7805 162.087 51.9418 161.228 50.3718C161.136 50.0812 161.096 49.7768 161.108 49.4723C161.085 49.2301 161.046 48.9898 160.991 48.7529C160.956 48.604 160.885 48.466 160.783 48.3511C160.682 48.2363 160.555 48.1481 160.411 48.0945C160.268 48.0409 160.113 48.0234 159.962 48.0437C159.81 48.0639 159.666 48.1213 159.541 48.2106C159.248 48.3777 159.001 48.6142 158.821 48.8993C158.641 49.1844 158.534 49.5093 158.51 49.8454C158.465 50.6994 158.223 51.5315 157.804 52.2769C157.675 52.5525 157.584 52.8446 157.535 53.1449C157.022 54.5766 156.649 56.0543 156.419 57.5575C156.342 57.9135 156.214 58.2565 156.038 58.5756C155.847 58.9559 155.701 59.357 155.603 59.7709C155.514 60.6816 155.228 61.5621 154.764 62.3511C154.472 64.0764 154.017 65.7703 153.406 67.4102C153.297 67.8197 153.22 68.2403 153.081 68.6387C152.547 70.1817 151.895 71.6916 151.476 73.2647C150.92 75.5093 149.862 77.599 148.382 79.3768C148.127 79.6376 147.902 79.9273 147.713 80.24C146.468 82.4654 145.017 84.5694 143.379 86.5245C142.982 87.0599 142.645 87.6373 142.374 88.2462C142.297 88.3629 142.25 88.4967 142.237 88.636C142.224 88.7752 142.245 88.9156 142.299 89.0445C142.353 89.1735 142.438 89.2872 142.547 89.3755C142.656 89.4637 142.784 89.5238 142.922 89.5505C143.565 89.7205 144.225 89.8228 144.89 89.8557C145.74 89.9157 146.598 89.8557 147.446 89.9284C148.21 89.99 148.489 90.3142 148.591 91.0983C148.633 91.3987 148.607 91.707 148.644 92.009C148.735 93.8304 148.728 95.6554 148.621 97.4761C148.651 100.276 148.621 103.079 148.663 105.879C148.712 106.397 148.603 106.917 148.351 107.372C148.098 107.827 147.714 108.194 147.248 108.426C146.314 108.866 145.41 109.365 144.541 109.92C143.647 110.538 142.669 111.021 141.635 111.356C139.088 112.205 136.926 113.831 134.402 114.755C132.834 115.329 131.396 116.303 129.84 116.995C127.285 118.129 124.766 119.346 122.283 120.646C121.258 121.176 120.114 121.437 118.96 121.406C114.754 121.392 110.548 121.406 106.342 121.406C105.977 121.406 105.61 121.406 105.246 121.374C104.251 121.289 103.925 121.031 103.792 120.076C103.716 119.35 103.679 118.62 103.679 117.89C103.646 116.794 103.663 115.695 103.588 114.605C103.592 114.293 103.473 113.993 103.257 113.769C103.041 113.544 102.745 113.414 102.434 113.406C102.071 113.358 101.705 113.337 101.339 113.343C99.572 113.335 97.8051 113.331 96.0381 113.333H58.5488C58.1844 113.314 57.819 113.32 57.4554 113.351C57.22 113.349 56.9868 113.396 56.7706 113.489C56.5544 113.582 56.36 113.72 56.1998 113.892C56.0396 114.064 55.9171 114.268 55.8401 114.491C55.7632 114.713 55.7335 114.949 55.7529 115.183C55.7165 115.667 55.7259 116.157 55.7259 116.643C55.7085 121.09 55.699 125.536 55.6722 129.981C55.7892 130.718 55.6741 131.473 55.343 132.141C54.5199 132.525 53.6036 132.664 52.7036 132.541C52.0343 132.525 51.3649 132.495 50.6971 132.508C49.4788 132.532 48.2635 132.607 47.0451 132.618C45.0355 132.637 43.0228 132.609 41.0116 132.626C40.0986 132.636 39.1792 132.664 38.2725 132.758C38.0413 132.749 37.8109 132.789 37.5964 132.876C37.382 132.963 37.1885 133.094 37.0288 133.262C36.8691 133.429 36.7469 133.628 36.6702 133.846C36.5936 134.064 36.5642 134.296 36.5841 134.527C36.5493 134.95 36.5841 135.379 36.5841 135.806C36.5667 137.085 36.5509 138.362 36.5446 139.643Z" fill="#FCF3DE"/>
<path d="M147.05 87.5386C146.83 86.9908 147.385 86.6393 147.719 86.3024C149.61 84.0195 151.384 81.637 153.032 79.1646C153.803 77.8695 158.914 60.6996 159.267 59.4683C159.345 59.1952 159.508 58.8731 159.997 59.0513C159.997 59.6367 165.215 78.2947 165.37 79.042C165.46 79.4074 165.637 79.7444 165.885 80.0231C166.606 80.8784 169.635 85.0171 170.137 85.5829C170.706 86.2256 171.98 87.0432 172 87.5452C172.019 88.0472 171.2 87.9916 170.916 87.9916C169.814 87.9916 168.705 87.8821 167.612 87.9769C166.938 88.0558 166.257 87.911 165.67 87.5638C165.082 87.2167 164.62 86.6856 164.35 86.049C164.127 85.6352 163.588 84.4301 163.436 84.5102C163.214 84.224 162.782 83.426 162.59 83.202C161.791 82.2454 161.014 81.2806 160.2 80.3453C160.08 80.1567 159.906 80.0109 159.702 79.9277C159.497 79.8446 159.273 79.8282 159.059 79.8809C158.169 80.2373 158.305 80.4287 157.654 81.364C156.97 82.8079 155.804 83.4898 155.211 84.7081C154.874 85.3965 152.857 87.9 151.285 87.9491C150.364 87.9785 149.442 87.9491 148.52 87.9622C147.979 87.9573 147.316 88.1944 147.05 87.5386Z" fill="#D6A529"/>
<path d="M343.176 65.4249C343.113 65.4236 343.053 65.4458 343.006 65.4871C342.959 65.5284 342.93 65.5858 342.923 65.6479C342.916 65.7101 342.933 65.7725 342.97 65.8228C343.007 65.8731 343.062 65.9077 343.123 65.9197C344.913 66.0789 346.71 66.1404 348.506 66.1038C351.049 66.1038 353.535 66.0399 355.332 65.9259C355.395 65.9193 355.453 65.8891 355.495 65.8413C355.537 65.7935 355.559 65.7316 355.557 65.6681C355.555 65.6047 355.529 65.5443 355.484 65.4992C355.44 65.4541 355.38 65.4275 355.317 65.4249H343.176ZM350.678 63.5893C350.686 63.5532 350.686 63.5158 350.677 63.4799C350.668 63.444 350.652 63.4104 350.629 63.3817C350.605 63.353 350.575 63.3299 350.542 63.314C350.508 63.2981 350.471 63.2898 350.434 63.2896H349.326C349.262 63.29 349.2 63.3151 349.154 63.3599C349.108 63.4046 349.08 63.4656 349.077 63.53L349.068 63.7298C349.065 63.7954 349.089 63.8595 349.133 63.9082C349.176 63.9569 349.238 63.9864 349.303 63.9905L350.369 64.0498H350.383C350.44 64.0498 350.496 64.0297 350.541 63.993C350.585 63.9563 350.616 63.9052 350.627 63.8484L350.678 63.5893ZM347.492 63.5113C347.482 63.4533 347.452 63.4007 347.407 63.363C347.362 63.3252 347.305 63.3048 347.246 63.3053H345.404C345.347 63.3059 345.293 63.3258 345.249 63.3615C345.205 63.3972 345.175 63.4467 345.162 63.502C345.15 63.5573 345.157 63.6152 345.181 63.6661C345.206 63.7171 345.247 63.7583 345.298 63.7829C345.599 63.9389 345.931 64.0248 346.269 64.0342C346.635 64.0172 346.996 63.9347 347.333 63.7907C347.388 63.7701 347.434 63.7308 347.463 63.6798C347.492 63.6287 347.502 63.5691 347.492 63.5113ZM304.157 65.4077C304.115 65.4078 304.073 65.4187 304.035 65.4395C303.998 65.4602 303.967 65.4901 303.944 65.5263L303.891 65.6169C303.857 65.6745 303.846 65.7434 303.862 65.8089C303.87 65.8416 303.884 65.8723 303.905 65.8991C303.925 65.9259 303.951 65.9483 303.98 65.9649L304.003 65.9837C304.074 66.0433 304.163 66.0783 304.255 66.0836C311.048 66.0836 317.843 66.0836 324.638 66.0836H325.931C325.964 66.0836 325.996 66.077 326.027 66.0644C326.057 66.0518 326.085 66.0332 326.108 66.0099C326.131 65.9865 326.149 65.9588 326.162 65.9283C326.174 65.8978 326.18 65.8652 326.18 65.8323V65.659C326.181 65.6261 326.175 65.5934 326.162 65.5631C326.15 65.5327 326.131 65.5053 326.107 65.4826C326.084 65.4587 326.057 65.4397 326.027 65.4268C325.997 65.414 325.964 65.4074 325.931 65.4077H304.157ZM319.658 63.4926C319.639 63.4468 319.607 63.4076 319.566 63.3798C319.525 63.3521 319.477 63.337 319.427 63.3365H308.536C308.496 63.3366 308.457 63.346 308.422 63.3639C308.387 63.3817 308.357 63.4077 308.333 63.4395C308.31 63.4716 308.295 63.5087 308.289 63.5478C308.283 63.5868 308.287 63.6267 308.299 63.6642L308.341 63.7954C308.357 63.8456 308.389 63.8894 308.431 63.9206C308.474 63.9517 308.525 63.9685 308.578 63.9686H319.295C319.329 63.9684 319.363 63.9613 319.395 63.9476C319.426 63.9339 319.455 63.914 319.479 63.889L319.602 63.7579C319.635 63.7239 319.658 63.681 319.668 63.6343C319.678 63.5875 319.674 63.5373 319.658 63.4926ZM292.469 113.23C292.489 114.91 292.469 120.348 292.489 122.027C292.517 123.921 292.702 124.075 294.552 124.056C295.449 124.056 296.345 124.11 297.243 124.106C298.424 124.106 298.834 123.782 298.851 122.669C298.893 119.911 298.893 117.154 298.851 114.396C298.837 113.313 298.529 113.087 297.401 113.023C297.224 113.012 297.043 113.013 296.863 113.023C295.399 113.048 293.935 113.06 292.469 113.06C292.482 112.995 292.481 112.928 292.466 112.864C292.452 112.799 292.424 112.738 292.385 112.684C292.346 112.631 292.297 112.586 292.24 112.553C292.183 112.519 292.119 112.498 292.054 112.491C291.992 112.677 291.943 112.867 291.909 113.06C290.515 113.06 289.121 113.048 287.726 113.023C287.092 112.911 286.439 113.037 285.89 113.376C285.791 113.741 285.725 114.115 285.694 114.493C285.679 117.134 285.694 119.775 285.694 122.414C285.692 122.654 285.71 122.894 285.749 123.131C285.844 123.705 286.127 124.031 286.682 124.046C287.999 124.085 289.315 124.102 290.628 124.06C291.476 124.033 291.811 123.68 291.848 122.825C291.898 121.626 291.884 120.426 291.892 119.224C291.892 118.444 291.881 113.908 291.892 113.127C291.892 113.106 291.892 113.084 291.899 113.06H292.46C292.472 113.116 292.467 113.176 292.469 113.23ZM298.876 129.892C298.876 128.875 298.876 127.863 298.876 126.838C298.898 126.54 298.903 126.241 298.893 125.942C298.891 125.607 298.758 125.286 298.522 125.048C298.287 124.81 297.967 124.675 297.633 124.671C297.218 124.651 296.803 124.651 296.388 124.671C295.551 124.671 294.714 124.662 293.877 124.693C292.943 124.728 292.477 125.101 292.488 125.979C292.503 128.677 292.547 131.374 292.665 134.068C292.715 135.185 293.045 135.423 294.131 135.457C295.217 135.491 296.284 135.493 297.358 135.457C298.361 135.415 298.792 135.035 298.839 134.029C298.904 132.654 298.856 131.274 298.856 129.896L298.876 129.892ZM298.869 85.3631C298.901 85.1368 298.88 84.9058 298.805 84.6897C298.73 84.4735 298.605 84.2786 298.439 84.1212C298.274 83.9638 298.073 83.8485 297.854 83.7851C297.635 83.7218 297.404 83.7121 297.18 83.757C296.107 83.7898 295.035 83.8304 293.96 83.8928C293.006 83.9474 292.684 84.2424 292.656 85.2336C292.614 86.7304 292.645 88.2304 292.645 89.7288H292.533C292.578 91.1695 292.607 92.6086 292.674 94.0477C292.66 94.1696 292.675 94.2931 292.716 94.4086C292.757 94.5242 292.824 94.6287 292.912 94.7142C293 94.7997 293.106 94.8638 293.222 94.9017C293.338 94.9396 293.462 94.9502 293.583 94.9327C294.96 94.9545 296.335 94.9623 297.711 94.9217C298.528 94.8968 298.771 94.6408 298.828 93.8198C298.886 92.9988 298.893 92.1403 298.893 91.3021C298.897 89.3214 298.906 87.3423 298.869 85.3631ZM298.889 81.0349C298.889 78.9917 298.889 76.9486 298.879 74.907C298.885 74.4273 298.843 73.9483 298.752 73.4773C298.714 73.1745 298.563 72.8975 298.329 72.702C298.096 72.5065 297.797 72.4071 297.493 72.4237C297.194 72.3956 296.896 72.405 296.594 72.405H292.419C292.556 72.8573 292.614 73.3299 292.59 73.8019C292.623 74.882 292.604 79.7222 292.617 80.8039C292.612 81.2838 292.632 81.7636 292.677 82.2414C292.673 82.3791 292.698 82.5162 292.751 82.6434C292.803 82.7706 292.883 82.8849 292.983 82.9787C293.084 83.0725 293.203 83.1436 293.334 83.1871C293.464 83.2306 293.602 83.2456 293.739 83.231C294.993 83.2841 296.25 83.3169 297.504 83.2903C298.388 83.27 298.764 82.8439 298.859 81.9293C298.885 81.6319 298.895 81.3333 298.889 81.0349ZM297.576 109.644C295.901 109.63 294.226 109.644 292.55 109.644H287.342C287.163 109.644 286.983 109.636 286.805 109.644C286.37 109.669 285.897 109.751 285.833 110.246C285.833 110.594 285.942 110.933 286.144 111.215C286.279 111.415 286.458 111.582 286.668 111.702C286.877 111.821 287.111 111.892 287.351 111.907C287.53 111.929 287.71 111.94 287.89 111.94C291.062 111.932 294.233 111.91 297.406 111.921C297.796 111.921 298.18 111.826 298.524 111.644C298.869 111.461 299.165 111.198 299.385 110.875C299.468 110.787 299.525 110.678 299.551 110.56C299.577 110.442 299.569 110.319 299.53 110.204C299.491 110.09 299.421 109.988 299.328 109.911C299.235 109.834 299.123 109.783 299.004 109.765C298.532 109.685 298.054 109.644 297.576 109.644ZM291.862 125.677C291.843 125.433 291.736 125.204 291.563 125.032C291.389 124.86 291.16 124.757 290.916 124.74C289.485 124.701 288.053 124.717 286.622 124.74C286.408 124.749 286.206 124.836 286.052 124.985C285.899 125.135 285.805 125.335 285.789 125.549C285.725 125.962 285.695 126.379 285.699 126.797C285.687 127.874 285.699 128.954 285.699 130.033C285.699 131.051 285.699 132.071 285.699 133.089C285.692 133.506 285.714 133.924 285.767 134.338C285.773 134.615 285.886 134.879 286.082 135.074C286.278 135.269 286.542 135.38 286.818 135.383C288.129 135.444 289.444 135.438 290.756 135.419C290.97 135.414 291.174 135.329 291.33 135.182C291.486 135.035 291.583 134.836 291.602 134.622C291.741 133.917 291.827 133.203 291.862 132.485C291.913 130.456 291.917 128.411 291.931 126.374C291.932 126.14 291.909 125.906 291.862 125.677ZM285.701 93.6575C285.725 94.5768 286.002 94.8655 286.885 94.9061C288.14 94.956 289.399 94.9545 290.658 94.9202C291.436 94.8999 291.68 94.6267 291.717 93.7698C291.786 92.0888 291.829 90.4062 291.837 88.7236C291.837 87.5233 291.794 86.3199 291.728 85.1212C291.68 84.2331 291.395 83.9256 290.513 83.8897C289.2 83.835 287.882 83.8413 286.566 83.8366C286.383 83.8341 286.205 83.8974 286.064 84.0151C285.924 84.1328 285.83 84.2971 285.8 84.4781C285.72 84.8893 285.683 85.3079 285.691 85.7268C285.677 86.9286 285.691 88.132 285.691 89.3339C285.69 90.773 285.659 92.2137 285.701 93.6575ZM285.715 81.9667C285.739 82.9875 286.046 83.2373 287.029 83.2497C288.227 83.2638 289.424 83.2934 290.619 83.2497C291.388 83.2232 291.699 82.9001 291.728 82.115C291.775 80.8554 291.728 75.8342 291.758 74.573C291.728 73.8471 291.789 73.1203 291.94 72.4097H288.339C287.98 72.4097 287.621 72.3878 287.263 72.4237C286.217 72.5252 285.803 72.9435 285.707 74.0345C285.66 74.5714 285.676 75.1146 285.677 75.6562C285.68 77.7618 285.666 79.8658 285.715 81.9667ZM287.473 71.1703C288.125 71.2343 288.786 71.225 289.441 71.225C291.949 71.225 294.457 71.225 296.964 71.225C297.322 71.2331 297.68 71.2201 298.036 71.186C299.03 71.0611 299.211 70.8925 299.772 69.6798C299.608 69.1928 299.202 69.121 298.771 69.1194C297.457 69.1194 296.143 69.1194 294.831 69.1194C292.262 69.1194 289.696 69.0991 287.129 69.1007C286.798 69.0423 286.459 69.0568 286.134 69.143C285.81 69.2293 285.508 69.3852 285.249 69.6001C285.432 70.0476 285.738 70.4333 286.132 70.7116C286.526 70.9898 286.991 71.149 287.473 71.1703ZM301.788 66.0352C301.854 66.0352 301.917 66.009 301.965 65.9622C302.012 65.9155 302.039 65.852 302.04 65.7854V65.6559C302.039 65.5891 302.012 65.5252 301.965 65.4781C301.918 65.431 301.854 65.4046 301.788 65.4046H284.179C284.146 65.4046 284.113 65.4112 284.083 65.4239C284.052 65.4366 284.025 65.4553 284.002 65.4788C283.979 65.5024 283.96 65.5303 283.948 65.5609C283.936 65.5916 283.929 65.6244 283.93 65.6574V65.7854C283.93 65.8517 283.956 65.9152 284.003 65.962C284.049 66.0089 284.113 66.0352 284.179 66.0352H301.788ZM306.015 63.9468C306.073 63.947 306.129 63.9268 306.174 63.8897C306.218 63.8527 306.249 63.801 306.259 63.7439L306.286 63.6065C306.293 63.5704 306.292 63.533 306.283 63.4973C306.274 63.4616 306.257 63.4285 306.233 63.4005C306.21 63.3718 306.181 63.3486 306.148 63.3326C306.114 63.3167 306.078 63.3084 306.041 63.3084H281.514C281.481 63.3084 281.448 63.3149 281.418 63.3275C281.388 63.3402 281.36 63.3587 281.337 63.3821C281.314 63.4054 281.295 63.4332 281.283 63.4636C281.271 63.4941 281.264 63.5267 281.265 63.5597V63.697C281.264 63.7299 281.271 63.7625 281.283 63.7929C281.296 63.8232 281.314 63.8508 281.337 63.8741C281.36 63.8973 281.388 63.9157 281.418 63.9282C281.448 63.9407 281.481 63.947 281.514 63.9468H306.015ZM309.773 125.88C309.768 125.713 309.73 125.548 309.662 125.396C309.593 125.244 309.495 125.107 309.374 124.993C309.252 124.879 309.109 124.791 308.953 124.733C308.796 124.675 308.63 124.649 308.464 124.656C307.154 124.632 305.839 124.684 304.529 124.753C303.883 124.787 303.596 125.108 303.571 125.817C303.536 127.194 303.56 128.572 303.56 129.947H303.541C303.541 131.026 303.541 132.104 303.541 133.183C303.533 133.541 303.549 133.9 303.591 134.257C303.594 134.564 303.717 134.857 303.934 135.074C304.151 135.291 304.444 135.413 304.75 135.415C305.995 135.477 307.255 135.479 308.506 135.423C309.307 135.387 309.654 134.99 309.718 134.14C309.787 133.245 309.788 132.346 309.797 131.445C309.815 129.885 309.818 128.333 309.819 126.775C309.825 126.476 309.808 126.176 309.768 125.88H309.773ZM309.79 114.579C309.789 114.34 309.761 114.101 309.709 113.867C309.681 113.656 309.58 113.461 309.423 113.317C309.266 113.173 309.064 113.089 308.851 113.079C307.13 112.931 305.398 112.969 303.686 113.195C303.628 113.819 303.552 114.287 303.549 114.765C303.536 117.22 303.541 119.674 303.549 122.129C303.542 122.428 303.552 122.727 303.578 123.025C303.574 123.161 303.598 123.297 303.649 123.423C303.7 123.549 303.777 123.664 303.875 123.758C303.974 123.853 304.09 123.925 304.218 123.972C304.346 124.018 304.482 124.037 304.618 124.027C305.81 124.095 307 124.156 308.196 124.163C309.262 124.163 309.77 123.694 309.78 122.659C309.798 119.965 309.785 117.271 309.785 114.579H309.79ZM304.3 111.457C304.66 111.779 305.131 111.947 305.612 111.926H307.579C310.081 111.926 312.584 111.891 315.086 111.943C315.533 111.943 315.971 111.824 316.357 111.598C316.742 111.371 317.06 111.046 317.278 110.655C317.319 110.575 317.343 110.487 317.347 110.397C317.352 110.307 317.337 110.217 317.305 110.133C317.272 110.049 317.223 109.973 317.159 109.91C317.095 109.846 317.019 109.797 316.935 109.765C316.652 109.678 316.359 109.63 316.063 109.622C314.159 109.609 312.253 109.622 310.347 109.622V109.648C308.498 109.648 306.651 109.648 304.804 109.648C304.338 109.648 303.768 109.597 303.572 110.149C303.339 110.796 303.91 111.1 304.296 111.454L304.3 111.457ZM316.704 129.961C316.704 128.881 316.704 127.801 316.704 126.719C316.709 126.36 316.681 126.001 316.62 125.647C316.594 125.403 316.481 125.177 316.301 125.011C316.121 124.845 315.887 124.751 315.643 124.745C314.209 124.704 312.773 124.7 311.336 124.732C311.092 124.74 310.859 124.835 310.677 124.998C310.495 125.162 310.377 125.384 310.342 125.627C310.26 125.977 310.219 126.336 310.218 126.696C310.227 128.856 310.255 131.016 310.277 133.178C310.277 133.417 310.277 133.659 310.305 133.898C310.423 135.051 310.739 135.412 311.861 135.458C312.983 135.505 314.135 135.485 315.271 135.433C315.452 135.452 315.635 135.431 315.807 135.372C315.979 135.313 316.136 135.217 316.268 135.091C316.4 134.965 316.503 134.812 316.57 134.642C316.637 134.473 316.666 134.29 316.656 134.108C316.684 133.748 316.693 133.387 316.683 133.027C316.683 132.008 316.683 130.987 316.683 129.964L316.704 129.961ZM316.622 114.168C316.599 113.376 316.301 113.076 315.517 113.054C314.204 113.01 312.89 113.007 311.576 113.045C310.675 113.071 310.395 113.357 310.283 114.209C310.243 114.566 310.225 114.925 310.23 115.285C310.23 117.68 310.23 120.078 310.26 122.474C310.27 123.651 310.597 124.035 311.7 124.067C312.945 124.103 314.207 124.085 315.461 124.046C316.25 124.022 316.622 123.651 316.667 122.797C316.723 121.781 316.69 120.76 316.695 119.742C316.695 119.322 316.695 118.903 316.695 118.484H316.633C316.628 117.039 316.658 115.601 316.617 114.165L316.622 114.168ZM310.263 81.8887C310.291 82.8252 310.656 83.2263 311.567 83.256C312.877 83.3012 314.193 83.2856 315.506 83.2451C316.241 83.2201 316.567 82.8627 316.662 82.1228C316.693 81.8252 316.705 81.526 316.698 81.2269C316.698 79.0698 316.694 76.9132 316.684 74.7572C316.691 74.3979 316.667 74.0387 316.614 73.6833C316.61 73.5169 316.573 73.353 316.503 73.2016C316.434 73.0502 316.335 72.9145 316.212 72.8026C316.089 72.6908 315.945 72.6052 315.788 72.5511C315.631 72.497 315.465 72.4754 315.299 72.4877C314.107 72.4284 312.915 72.4185 311.721 72.458C311.386 72.4368 311.055 72.5478 310.801 72.7674C310.546 72.987 310.387 73.2978 310.358 73.6334C310.272 74.1045 310.23 74.5826 310.232 75.0615C310.214 76.0792 310.232 77.0984 310.232 78.1161H310.261C310.249 79.371 310.218 80.6291 310.264 81.8856L310.263 81.8887ZM315.26 83.9053C314.123 83.8663 312.986 83.8788 311.848 83.8772C311.609 83.8751 311.37 83.8981 311.136 83.9459C310.897 83.9838 310.68 84.1071 310.524 84.2929C310.368 84.4788 310.285 84.7147 310.289 84.9573C310.277 86.3933 310.289 87.8308 310.289 89.2668H310.305C310.305 90.7668 310.278 92.2683 310.314 93.7683C310.334 94.5612 310.636 94.8609 311.416 94.8936C312.73 94.9451 314.048 94.9639 315.365 94.9311C316.374 94.9061 316.655 94.6267 316.673 93.6278C316.709 91.6471 316.687 89.6648 316.693 87.6841C316.693 86.9037 316.736 86.1232 316.704 85.3428C316.658 84.3423 316.258 83.9412 315.256 83.9022L315.26 83.9053ZM303.583 82.0182C303.611 82.8954 303.921 83.1795 304.811 83.2263C305.943 83.2856 307.082 83.3262 308.217 83.3122C309.351 83.2981 309.773 82.8907 309.782 81.7966C309.816 79.2774 309.798 76.7582 309.782 74.2374C309.77 73.9382 309.718 73.642 309.626 73.3571C309.565 73.0902 309.412 72.8536 309.194 72.689C308.976 72.5245 308.707 72.4427 308.435 72.458C307.299 72.4471 306.161 72.3987 305.027 72.458C304.009 72.5111 303.617 72.8998 303.575 73.9206C303.516 75.2988 303.56 76.6801 303.56 78.0599C303.574 79.3773 303.532 80.6977 303.574 82.0151L303.583 82.0182ZM303.54 92.9738C303.538 93.3335 303.556 93.693 303.594 94.0508C303.594 94.2653 303.676 94.4717 303.824 94.6267C303.972 94.7817 304.174 94.8735 304.387 94.8827C305.881 94.9139 307.375 94.9202 308.867 94.864C309.457 94.8421 309.724 94.4488 309.738 93.7074C309.766 92.2074 309.748 90.7075 309.748 89.2075C309.748 87.8886 309.768 86.5696 309.748 85.2507C309.726 84.3298 309.349 83.8912 308.455 83.8694C307.142 83.8382 305.822 83.8881 304.509 83.9521C304.387 83.9491 304.266 83.971 304.153 84.0163C304.04 84.0617 303.937 84.1297 303.851 84.2161C303.765 84.3025 303.697 84.4056 303.652 84.519C303.607 84.6325 303.585 84.754 303.588 84.8761C303.522 85.7128 303.507 86.554 303.507 87.3938C303.499 89.2481 303.519 91.1117 303.535 92.9707L303.54 92.9738ZM305.596 71.2219C307.865 71.2063 310.134 71.2125 312.402 71.2125C313.298 71.2125 314.195 71.2421 315.089 71.2125C316.334 71.1782 316.597 71.0034 317.579 69.6657C317.166 68.9945 316.589 69.0991 316.069 69.0991C313.799 69.0991 311.531 69.1069 309.261 69.1085C307.647 69.1085 306.035 69.096 304.422 69.1085C303.955 69.1085 303.446 69.0554 303.154 69.6079C303.295 70.1291 303.622 70.5805 304.071 70.8776C304.521 71.1747 305.063 71.2971 305.596 71.2219ZM320.809 127.355C320.798 129.274 320.753 131.19 320.728 133.109C320.728 133.4 320.753 133.693 320.775 134.133C322.298 133.621 323.731 134.16 325.19 134.097C327.546 133.996 327.607 134.002 327.54 131.656C327.532 131.417 327.526 131.177 327.529 130.935C327.538 129.952 327.286 129.153 326.182 128.898C326.048 128.865 325.959 128.653 325.85 128.53C325.954 128.414 326.026 128.258 326.11 128.252C327.391 128.122 327.574 127.287 327.529 126.204C327.476 124.945 327.529 123.685 327.529 122.424C327.537 122.124 327.523 121.824 327.487 121.526C327.482 121.329 327.438 121.135 327.358 120.955C327.278 120.775 327.164 120.613 327.021 120.477C326.878 120.342 326.71 120.236 326.527 120.166C326.343 120.096 326.148 120.063 325.951 120.068C324.82 119.935 323.674 120.01 322.569 120.289C322.352 120.339 322.131 120.373 321.909 120.392C321.612 119.383 321.699 119.104 322.351 118.965C323.651 118.773 324.97 118.731 326.28 118.842C326.815 118.896 327.353 118.908 327.89 118.878C329.739 118.626 331.59 118.965 333.439 118.837C333.597 118.861 333.751 118.907 333.896 118.974C334 119.271 334.125 119.63 334.252 119.992L334.221 120.006C334.222 120.022 334.222 120.038 334.221 120.054C332.802 120.054 331.382 120.039 329.963 120.086C328.684 120.126 328.209 120.532 328.151 121.817C328.074 123.612 328.114 125.407 328.144 127.212C328.158 127.949 328.432 128.126 329.315 128.13C330.166 128.13 330.263 128.338 329.793 129.242L328.54 128.918C328.376 129.375 328.25 129.845 328.165 130.323C328.106 131.161 328.089 132 328.114 132.839C328.127 133.514 328.416 133.944 329.027 133.966C330.583 134.018 332.13 133.993 333.68 133.951C333.894 133.939 334.095 133.844 334.239 133.684C334.383 133.525 334.458 133.315 334.448 133.1C334.492 132.563 334.537 132.023 334.537 131.485C334.537 128.547 334.559 125.608 334.517 122.669C334.466 121.79 334.367 120.915 334.221 120.047H334.266C334.259 120.025 334.252 120.004 334.246 119.984C334.451 119.883 334.736 119.828 334.826 119.66C335.225 118.932 335.674 118.244 336.123 117.551C336.324 117.145 336.426 116.696 336.419 116.242C336.412 115.788 336.296 115.342 336.082 114.943C335.454 113.274 334.357 111.823 332.924 110.766C331.491 109.71 329.784 109.092 328.008 108.988C326.213 109.105 324.486 109.718 323.017 110.76C322.382 111.305 321.781 111.888 321.217 112.506C320.458 113.506 319.896 114.643 319.563 115.854C319.388 116.211 319.337 116.616 319.417 117.005C319.497 117.394 319.704 117.745 320.005 118.003C320.229 118.198 320.381 118.463 320.434 118.756C320.659 119.871 320.783 121.005 320.803 122.143C320.72 123.882 320.818 125.616 320.809 127.355ZM352.726 129.872C352.726 128.675 352.759 127.476 352.715 126.282C352.675 125.168 352.289 124.767 351.184 124.721C349.876 124.665 348.562 124.676 347.249 124.692C346.367 124.703 345.955 125.098 345.911 126.015C345.86 127.088 345.88 128.166 345.875 129.242C345.875 130.378 345.852 131.513 345.875 132.649C345.882 133.303 345.945 133.956 346.063 134.6C346.105 134.841 346.231 135.06 346.42 135.215C346.608 135.37 346.846 135.452 347.09 135.446C348.461 135.469 349.835 135.521 351.204 135.46C352.25 135.413 352.654 134.95 352.696 133.826C352.745 132.51 352.707 131.191 352.707 129.875L352.726 129.872ZM346.035 122.858C346.065 123.741 346.392 124.044 347.255 124.06C348.569 124.083 349.885 124.091 351.197 124.03C352.314 123.977 352.681 123.615 352.7 122.453C352.746 119.755 352.743 117.058 352.714 114.359C352.704 113.483 352.359 113.099 351.547 113.067C350.056 113.01 348.561 113.009 347.069 113.052C346.317 113.076 346.036 113.401 346.012 114.226C345.972 115.664 346.001 117.104 346.001 118.544H346.023C346.018 119.983 345.986 121.422 346.031 122.858H346.035ZM350.445 111.932C350.923 111.928 351.398 111.865 351.861 111.744C352.123 111.676 352.367 111.547 352.571 111.369C352.776 111.19 352.937 110.967 353.042 110.716C353.089 110.622 353.113 110.519 353.114 110.414C353.115 110.309 353.092 110.205 353.047 110.11C353.002 110.015 352.937 109.932 352.855 109.867C352.773 109.801 352.677 109.755 352.575 109.733C352.223 109.671 351.865 109.641 351.508 109.645C349.771 109.637 348.036 109.645 346.302 109.645V109.655C344.567 109.655 342.83 109.655 341.094 109.655C340.677 109.648 340.261 109.677 339.849 109.739C339.745 109.756 339.647 109.798 339.563 109.863C339.48 109.927 339.414 110.011 339.371 110.108C339.328 110.204 339.31 110.31 339.318 110.416C339.327 110.521 339.361 110.623 339.418 110.711C339.629 111.074 339.928 111.376 340.288 111.59C340.647 111.803 341.056 111.921 341.473 111.932C344.453 111.897 347.451 111.94 350.44 111.93L350.445 111.932ZM352.712 85.4349C352.658 84.2768 352.306 83.949 351.169 83.9069C349.798 83.8585 348.427 83.8725 347.056 83.9069C346.417 83.9209 346.092 84.2378 346.017 84.9167C345.933 85.6864 345.892 86.4603 345.895 87.2346C345.895 88.1289 345.97 89.0248 346.011 89.9208H345.965C345.965 91.1694 345.95 92.4337 345.965 93.6887C345.979 94.5752 346.238 94.8718 347.148 94.9046C348.517 94.9529 349.891 94.9592 351.26 94.9124C352.329 94.8749 352.639 94.5409 352.701 93.4967C352.757 92.5414 352.784 91.5831 352.781 90.6278C352.782 88.8969 352.788 87.1628 352.707 85.4334L352.712 85.4349ZM352.712 74.2889C352.69 72.9965 352.225 72.5205 350.991 72.4659C349.799 72.4133 348.604 72.4206 347.413 72.4877C347.23 72.4722 347.046 72.4963 346.873 72.5583C346.7 72.6203 346.543 72.7188 346.411 72.847C346.279 72.9753 346.177 73.1304 346.11 73.3019C346.044 73.4734 346.014 73.6572 346.025 73.841C345.925 75.3379 345.91 76.8392 345.979 78.3378C345.979 79.5365 345.961 80.7368 345.979 81.9355C346 82.9469 346.291 83.2529 347.244 83.2622C348.561 83.2763 349.879 83.2888 351.192 83.2372C352.304 83.192 352.69 82.8111 352.709 81.6764C352.742 79.2087 352.751 76.7472 352.709 74.2874L352.712 74.2889ZM339.29 78.0349C339.29 79.3554 339.259 80.6775 339.301 81.9964C339.329 82.9657 339.637 83.2451 340.639 83.2778C341.716 83.3122 342.796 83.334 343.87 83.2778C345.023 83.2216 345.393 82.8595 345.41 81.7326C345.446 79.2727 345.426 76.8097 345.424 74.3482C345.425 74.1082 345.401 73.8687 345.354 73.6334C345.327 73.298 345.17 72.9865 344.918 72.7648C344.665 72.5431 344.337 72.4286 344.002 72.4456C342.928 72.3956 341.848 72.3847 340.772 72.43C339.785 72.4721 339.348 72.8982 339.312 73.8894C339.258 75.2676 339.298 76.6505 339.298 78.0318L339.29 78.0349ZM345.407 85.1259C345.406 84.8209 345.29 84.5277 345.082 84.305C344.874 84.0824 344.59 83.9468 344.287 83.9256C343.815 83.8586 343.339 83.8299 342.863 83.8397C342.029 83.8397 341.192 83.8257 340.359 83.8709C340.224 83.8597 340.087 83.8776 339.959 83.9236C339.83 83.9696 339.713 84.0425 339.615 84.1375C339.517 84.2325 339.441 84.3475 339.391 84.4746C339.34 84.6017 339.318 84.738 339.325 84.8746C339.272 85.4693 339.286 86.0702 339.283 86.6664C339.283 87.6248 339.283 88.5816 339.283 89.5384C339.283 90.8557 339.262 92.17 339.29 93.4858C339.315 94.6517 339.533 94.8905 340.627 94.9248C341.817 94.9592 343.012 94.9514 344.206 94.9077C345.128 94.8749 345.426 94.5955 345.433 93.7355C345.458 91.0446 345.45 88.3537 345.452 85.6612C345.448 85.4824 345.432 85.304 345.404 85.1274L345.407 85.1259ZM339.308 122.797C339.329 123.705 339.608 124.003 340.489 124.031C341.733 124.072 343 124.075 344.251 124.013C345.029 123.974 345.306 123.641 345.373 122.872C345.427 122.276 345.43 121.675 345.43 121.075C345.43 119.155 345.428 117.236 345.422 115.316C345.429 114.899 345.412 114.482 345.373 114.067C345.295 113.408 345.002 113.084 344.329 113.063C342.955 113.024 341.581 113.029 340.207 113.063C339.622 113.081 339.371 113.376 339.322 113.989C339.272 114.602 339.286 115.186 339.283 115.786C339.283 116.747 339.283 117.707 339.283 118.665H339.301C339.297 120.04 339.269 121.422 339.304 122.806L339.308 122.797ZM345.438 126.543C345.442 126.303 345.429 126.064 345.399 125.826C345.39 125.553 345.281 125.292 345.094 125.093C344.907 124.894 344.653 124.77 344.382 124.745C344.146 124.705 343.908 124.686 343.669 124.687C342.653 124.687 341.646 124.67 340.622 124.714C339.599 124.757 339.364 125.01 339.29 126.003C339.264 126.36 339.273 126.721 339.272 127.08C339.272 128.04 339.272 128.999 339.272 129.956C339.272 130.976 339.272 131.995 339.272 133.013C339.261 133.429 339.275 133.846 339.314 134.261C339.403 135.028 339.7 135.393 340.429 135.424C341.674 135.476 342.938 135.468 344.187 135.412C344.492 135.404 344.782 135.281 345 135.068C345.218 134.855 345.348 134.567 345.363 134.261C345.412 133.966 345.435 133.666 345.432 133.367C345.44 131.1 345.439 128.828 345.429 126.552L345.438 126.543ZM340.327 71.0439C340.614 71.1266 340.91 71.1701 341.209 71.1735C344.497 71.1922 347.783 71.1938 351.067 71.2094C351.548 71.2293 352.024 71.117 352.445 70.8844C352.866 70.6519 353.216 70.3082 353.456 69.8905C353.512 69.803 353.487 69.6657 353.502 69.5237C353.073 68.9711 352.435 69.1022 351.862 69.096C349.89 69.0726 347.918 69.0819 345.95 69.0835C344.157 69.0835 342.365 69.0887 340.571 69.0991C340.039 69.0991 339.482 69.0679 339.155 69.647C339.156 69.981 339.274 70.3041 339.487 70.5605C339.7 70.8169 339.996 70.9907 340.324 71.0517L340.327 71.0439ZM340.902 66.0242C340.969 66.0242 341.033 65.9978 341.08 65.9506C341.127 65.9035 341.153 65.8396 341.153 65.773V65.6793C341.153 65.6126 341.127 65.5487 341.08 65.5016C341.033 65.4545 340.969 65.428 340.902 65.428H328.207C328.141 65.4284 328.078 65.4551 328.031 65.5022C327.985 65.5492 327.958 65.6129 327.958 65.6793V65.7246C327.957 65.7417 327.957 65.7589 327.958 65.7761C327.958 65.809 327.965 65.8416 327.977 65.8721C327.989 65.9026 328.008 65.9303 328.031 65.9537C328.054 65.977 328.081 65.9956 328.112 66.0082C328.142 66.0209 328.175 66.0274 328.207 66.0274H340.907L340.902 66.0242ZM327.588 85.1977C327.641 84.5733 327.397 83.949 326.644 83.9209C325.156 83.8569 323.661 83.9209 322.17 83.9755C321.704 83.9943 321.459 84.3798 321.392 84.8371C321.359 85.0744 321.343 85.3139 321.346 85.5535C321.346 88.1336 321.346 90.7137 321.366 93.2938C321.398 93.7523 321.462 94.208 321.556 94.658C321.813 94.7624 322.08 94.8377 322.354 94.8827C323.669 94.9139 324.985 94.9483 326.298 94.9186C327.168 94.8983 327.47 94.583 327.517 93.6996C327.569 92.6507 327.58 91.5987 327.601 90.5482C327.575 90.4885 327.562 90.4243 327.562 90.3594C327.545 89.6476 327.523 85.9188 327.585 85.2055L327.588 85.1977ZM327.548 74.1906C327.498 72.8795 327.081 72.4737 325.793 72.4315C324.778 72.4003 323.757 72.4315 322.741 72.4752C321.774 72.5236 321.497 72.8155 321.389 73.7863C321.362 74.0857 321.351 74.3864 321.357 74.6869C321.357 76.9086 321.357 79.1301 321.357 81.3517C321.351 81.6516 321.365 81.9514 321.4 82.2492C321.476 82.8268 321.749 83.1701 322.304 83.1857C323.677 83.2466 325.055 83.2809 326.428 83.2435C327.237 83.2216 327.546 82.8174 327.565 81.9277C327.59 80.6665 327.565 79.4054 327.565 78.1442C327.555 76.8393 327.594 75.5126 327.545 74.1984L327.548 74.1906ZM323.281 71.2031C326.446 71.1782 329.611 71.2031 332.773 71.2031C333.299 71.2766 333.835 71.1617 334.286 70.8786C334.737 70.5955 335.074 70.1622 335.239 69.6548C334.861 69.0102 334.283 69.11 333.762 69.1069C331.912 69.0913 330.061 69.0976 328.209 69.0976C326.119 69.0976 324.028 69.0898 321.94 69.1116C321.489 69.1116 320.955 69.0242 320.709 69.6751C320.941 70.1552 321.307 70.5567 321.764 70.8298C322.221 71.1028 322.747 71.2353 323.278 71.2109L323.281 71.2031ZM334.517 85.1977C334.487 84.1347 334.142 83.8491 333.071 83.8491C332.114 83.8491 331.157 83.8553 330.201 83.8678C329.843 83.8601 329.484 83.8768 329.129 83.9178C328.855 83.9355 328.6 84.0596 328.416 84.2637C328.233 84.4679 328.136 84.7358 328.147 85.0104C328.117 85.9001 328.139 89.7975 328.139 90.6403L328.099 90.6513C328.106 91.6658 328.099 92.6804 328.147 93.6949C328.184 94.583 328.486 94.878 329.374 94.9046C330.689 94.9451 332.006 94.9483 333.319 94.9046C334.181 94.8749 334.47 94.5565 334.517 93.6559C334.571 92.5773 334.57 91.4972 334.567 90.4171C334.562 88.6846 334.562 86.9443 334.514 85.2055L334.517 85.1977ZM334.542 74.8259C334.548 74.5267 334.535 74.2274 334.503 73.9299C334.51 73.7177 334.471 73.5064 334.389 73.3105C334.307 73.1147 334.184 72.9391 334.028 72.7956C333.872 72.6522 333.686 72.5444 333.485 72.4797C333.283 72.4149 333.07 72.3948 332.86 72.4206C331.789 72.3909 330.713 72.4034 329.64 72.4487C329.445 72.4247 329.246 72.4446 329.059 72.5071C328.872 72.5695 328.702 72.6729 328.559 72.8098C328.417 72.9467 328.307 73.1135 328.237 73.2984C328.167 73.4832 328.139 73.6813 328.155 73.8784C328.078 74.7697 328.113 75.6718 328.105 76.5693C328.105 77.0469 328.105 77.5261 328.105 78.0053H328.137C328.137 79.254 328.113 80.5183 328.147 81.7732C328.173 82.8533 328.503 83.2232 329.511 83.2513C330.823 83.2903 332.135 83.2669 333.446 83.2326C333.689 83.2339 333.925 83.1454 334.107 82.9838C334.289 82.8223 334.406 82.5992 334.434 82.3569C334.505 81.9445 334.538 81.5267 334.535 81.1083C334.537 79.0214 334.537 76.9283 334.537 74.8337L334.542 74.8259ZM322.208 63.9452H343.501C343.567 63.9452 343.631 63.9189 343.677 63.8722C343.724 63.8254 343.751 63.7618 343.751 63.6955V63.5581C343.751 63.4917 343.724 63.4282 343.677 63.3814C343.631 63.3346 343.567 63.3084 343.501 63.3084H322.245C322.189 63.3083 322.134 63.3272 322.09 63.362C322.046 63.3969 322.015 63.4456 322.002 63.5004L321.981 63.5893C321.965 63.6227 321.958 63.6588 321.957 63.6955C321.956 63.7287 321.962 63.7618 321.974 63.7928C321.986 63.8238 322.004 63.8521 322.027 63.8761C322.05 63.9001 322.078 63.9192 322.108 63.9324C322.139 63.9456 322.171 63.9526 322.205 63.953L322.208 63.9452ZM353.068 63.8188C354.036 63.9249 359.205 63.9749 363.814 63.9749C368.886 63.9749 372.706 63.9155 374.027 63.8188C374.09 63.812 374.148 63.7815 374.19 63.7333C374.231 63.6852 374.253 63.6231 374.251 63.5595C374.248 63.4959 374.222 63.4356 374.177 63.3907C374.132 63.3459 374.072 63.3198 374.008 63.3177H353.096C353.034 63.3202 352.975 63.3459 352.931 63.3897C352.886 63.4335 352.86 63.4924 352.856 63.5547C352.853 63.6171 352.873 63.6785 352.912 63.7271C352.951 63.7756 353.007 63.8093 353.068 63.8188ZM357.15 133.901C357.192 135.059 357.528 135.387 358.685 135.437C359.701 135.482 360.719 135.477 361.737 135.444C362.754 135.412 363.146 135.076 363.23 134.04C363.322 132.906 363.31 131.761 363.325 130.621C363.345 129.301 363.345 127.984 363.349 126.665C363.362 126.365 363.351 126.065 363.314 125.767C363.29 125.493 363.169 125.237 362.975 125.043C362.78 124.849 362.523 124.73 362.25 124.707C360.815 124.671 359.379 124.695 357.945 124.739C357.761 124.753 357.589 124.832 357.457 124.961C357.325 125.09 357.243 125.262 357.224 125.446C357.157 125.858 357.124 126.276 357.126 126.694C357.112 127.835 357.126 128.976 357.126 130.117H357.145C357.137 131.391 357.098 132.654 357.146 133.912L357.15 133.901ZM368.885 124.657C367.571 124.615 366.253 124.657 364.939 124.704C364.634 124.703 364.341 124.821 364.122 125.033C363.902 125.246 363.774 125.535 363.764 125.84C363.74 126.019 363.73 126.199 363.734 126.379C363.745 128.659 363.758 130.939 363.773 133.22C363.768 133.58 363.793 133.939 363.848 134.294C363.861 134.602 363.994 134.892 364.218 135.102C364.443 135.313 364.741 135.426 365.048 135.418C366.42 135.465 367.799 135.466 369.169 135.391C369.351 135.391 369.531 135.354 369.698 135.283C369.866 135.212 370.017 135.108 370.143 134.977C370.27 134.846 370.369 134.691 370.434 134.52C370.5 134.35 370.53 134.169 370.525 133.987C370.595 133.27 370.59 132.547 370.602 131.828C370.615 131.169 370.602 130.509 370.602 129.849C370.602 128.706 370.621 127.567 370.602 126.427C370.574 125.129 370.196 124.707 368.881 124.668L368.885 124.657ZM370.584 122.344C370.584 119.705 370.584 117.062 370.571 114.421C370.536 114.058 370.47 113.699 370.372 113.347C370.041 113.195 369.692 113.088 369.333 113.028C367.897 112.996 366.459 112.992 365.024 113.028C364.14 113.056 363.821 113.365 363.779 114.232C363.727 115.43 363.747 116.633 363.748 117.833C363.748 119.394 363.748 120.955 363.784 122.516C363.814 123.704 364.164 124.046 365.272 124.064C366.348 124.08 367.425 124.097 368.5 124.086C368.919 124.085 369.337 124.036 369.745 123.941C369.952 123.897 370.139 123.787 370.279 123.628C370.419 123.469 370.505 123.269 370.523 123.057C370.558 122.825 370.577 122.59 370.581 122.355L370.584 122.344ZM363.991 111.916C365.547 111.916 367.092 111.874 368.64 111.932C369.088 111.935 369.528 111.818 369.916 111.594C370.303 111.37 370.625 111.046 370.847 110.657C370.889 110.578 370.914 110.49 370.92 110.401C370.925 110.311 370.911 110.221 370.878 110.138C370.845 110.054 370.794 109.979 370.729 109.917C370.664 109.856 370.586 109.809 370.501 109.781C370.158 109.693 369.805 109.645 369.451 109.639C365.813 109.621 362.175 109.613 358.538 109.614C358.3 109.611 358.062 109.628 357.826 109.664C357.132 109.784 356.916 110.405 357.319 111.023C357.519 111.323 357.795 111.564 358.118 111.72C358.442 111.877 358.802 111.943 359.16 111.913L363.991 111.916ZM363.797 81.7779C363.826 82.8611 364.161 83.2294 365.164 83.256C366.478 83.2903 367.794 83.3122 369.105 83.2404C370.237 83.1795 370.568 82.7955 370.577 81.6452C370.604 79.2462 370.585 76.8487 370.577 74.4497C370.588 74.15 370.558 73.8502 370.489 73.5585C370.435 73.2589 370.28 72.9868 370.051 72.788C369.821 72.5891 369.53 72.4754 369.227 72.4659C367.794 72.4331 366.361 72.4471 364.928 72.4659C364.684 72.4715 364.45 72.5624 364.267 72.723C364.083 72.8835 363.961 73.1034 363.923 73.3446C363.823 73.7502 363.77 74.1661 363.767 74.5839C363.745 75.7233 363.759 76.8628 363.759 78.0022H363.789C363.789 79.2711 363.759 80.5307 363.789 81.7888L363.797 81.7779ZM370.574 85.2617C370.49 84.347 370.171 84.0239 369.232 83.8819C369.113 83.8629 368.994 83.8525 368.874 83.8506C367.62 83.8506 366.364 83.8257 365.111 83.8694C364.178 83.9022 363.823 84.2799 363.803 85.2164C363.773 86.6539 363.803 88.0915 363.803 89.5306H363.748C363.748 90.5498 363.739 91.569 363.748 92.5883C363.75 93.0677 363.779 93.5466 363.835 94.0227C363.838 94.2377 363.922 94.4437 364.07 94.5991C364.218 94.7544 364.42 94.8474 364.634 94.8593C366.303 94.8874 367.976 94.8952 369.644 94.8437C370.204 94.8265 370.467 94.4753 370.534 93.8916C370.587 93.4153 370.613 92.9364 370.612 92.4572C370.612 90.297 370.602 88.1399 370.596 85.9812C370.588 85.7518 370.595 85.5098 370.571 85.2726L370.574 85.2617ZM357.157 82.0838C357.182 82.8829 357.483 83.1764 358.247 83.2092C359.491 83.2591 360.755 83.281 362.007 83.2544C362.849 83.2373 363.252 82.8408 363.252 82.0573C363.288 79.6629 363.296 77.2686 363.313 74.8774C363.313 74.8165 363.313 74.7556 363.313 74.6963C363.224 72.7687 362.89 72.4456 360.931 72.4221C360.095 72.4112 359.258 72.3894 358.424 72.4221C357.59 72.4549 357.28 72.7702 357.167 73.6396C357.129 73.9968 357.113 74.3559 357.119 74.715C357.119 75.792 357.119 76.8706 357.119 77.9491H357.145C357.145 79.3414 357.114 80.718 357.154 82.0947L357.157 82.0838ZM357.148 122.7C357.179 123.793 357.459 124.033 358.575 124.058C359.69 124.083 360.842 124.097 361.973 124.058C362.851 124.031 363.204 123.683 363.218 122.876C363.269 120.304 363.297 117.726 363.331 115.161C363.336 114.922 363.327 114.683 363.307 114.445C363.204 113.352 362.946 113.059 361.88 113.021C360.686 112.982 359.491 112.99 358.301 113.029C357.405 113.059 357.164 113.308 357.142 114.257C357.104 115.692 357.132 117.129 357.132 118.565C357.136 119.959 357.098 121.336 357.145 122.711L357.148 122.7ZM358.463 94.917C359.596 94.9451 360.73 94.9514 361.863 94.917C362.935 94.8827 363.142 94.7094 363.193 93.6684C363.277 91.9389 363.31 90.2049 363.32 88.4723C363.328 87.3391 363.257 86.2044 363.219 85.0712C363.194 84.3423 362.879 83.9225 362.157 83.8991C360.847 83.8585 359.533 83.871 358.222 83.9193C357.465 83.9459 357.187 84.2518 357.154 85.0681C357.111 86.2044 357.136 87.3407 357.132 88.4786C357.132 88.7767 357.132 89.0764 357.132 89.376H357.115C357.115 90.7511 357.094 92.1278 357.115 93.5029C357.145 94.6798 357.35 94.8936 358.46 94.9233L358.463 94.917ZM358.472 71.1142C358.944 71.176 359.42 71.2083 359.896 71.2109C362.517 71.2182 365.139 71.2182 367.761 71.2109C368.416 71.2107 369.071 71.1753 369.722 71.1048C369.991 71.0731 370.247 70.9695 370.462 70.8048C370.678 70.64 370.846 70.4202 370.948 70.1683C371.002 70.0793 371.034 69.9788 371.041 69.875C371.049 69.7712 371.033 69.667 370.993 69.5709C370.953 69.4748 370.891 69.3894 370.812 69.3218C370.733 69.2542 370.639 69.2063 370.539 69.1818C370.247 69.126 369.951 69.0988 369.655 69.1007C365.9 69.1007 362.143 69.1007 358.388 69.1116C357.817 69.1116 357.178 68.9664 356.726 69.5799C356.817 69.9885 357.035 70.3578 357.348 70.6347C357.661 70.9115 358.053 71.0815 358.469 71.1204L358.472 71.1142ZM372.255 66.082C372.288 66.0821 372.32 66.0756 372.351 66.063C372.381 66.0504 372.409 66.0319 372.432 66.0086C372.478 65.961 372.505 65.8973 372.505 65.8307V65.6465C372.505 65.5801 372.479 65.5165 372.432 65.4694C372.386 65.4223 372.322 65.3956 372.256 65.3952H357.721C357.658 65.3954 357.597 65.4193 357.551 65.462C357.505 65.5048 357.477 65.5634 357.472 65.6262C357.454 65.6848 357.453 65.7473 357.47 65.8062C357.486 65.8651 357.519 65.918 357.565 65.9587C357.653 66.0313 357.762 66.0734 357.876 66.0789C362.007 66.0789 366.137 66.0789 370.266 66.0789L372.255 66.082ZM374.164 137.818C373.569 137.756 372.97 137.73 372.371 137.74C358.229 137.74 344.087 137.74 329.947 137.74H328.15V137.729H284.467C283.868 137.729 283.265 137.706 282.67 137.756C282.315 137.786 281.969 137.883 281.65 138.042C281.491 138.13 281.362 138.264 281.279 138.427C281.195 138.59 281.162 138.773 281.184 138.955C281.179 139.137 281.232 139.315 281.336 139.464C281.44 139.613 281.589 139.724 281.761 139.782C282.041 139.888 282.334 139.952 282.632 139.974C283.169 140.008 283.709 139.999 284.249 139.999H368.737C370.112 139.999 371.492 139.999 372.871 139.988C373.29 139.994 373.708 139.97 374.123 139.916C374.364 139.881 374.582 139.753 374.73 139.56C374.878 139.366 374.945 139.122 374.917 138.88C374.928 138.316 374.662 137.887 374.161 137.825L374.164 137.818ZM281.257 61.2168H374.749C374.806 61.2173 374.861 61.1983 374.906 61.1629C374.95 61.1275 374.981 61.0778 374.994 61.0222C375.006 60.9666 375 60.9083 374.975 60.8571C374.95 60.8059 374.908 60.7649 374.856 60.7408L328.063 38.0258C328.029 38.0089 327.992 38.0001 327.954 38.0001C327.916 38.0001 327.879 38.0089 327.845 38.0258L281.168 60.7345C281.113 60.7539 281.066 60.7923 281.036 60.843C281.005 60.8936 280.994 60.9532 281.003 61.0115C281.012 61.0697 281.042 61.1228 281.086 61.1615C281.131 61.2002 281.187 61.222 281.246 61.2231L281.257 61.2168Z" fill="#FBFAF4"/>
</svg>
