<svg width="17" height="17" viewBox="0 0 17 17" fill="none" xmlns="http://www.w3.org/2000/svg">
<path d="M12.6693 7.6896C12.635 6.54163 12.4586 5.40226 12.1441 4.29734C12.6836 4.10807 13.204 3.8688 13.6986 3.58269C14.695 4.73282 15.2941 6.17144 15.4075 7.68646H12.6693V7.6896ZM12.1441 12.1795C12.4588 11.0746 12.6352 9.9352 12.6693 8.78721H15.4159C15.3006 10.3018 14.7018 11.7398 13.707 12.891C13.2092 12.607 12.6854 12.3688 12.1441 12.1795ZM11.7786 13.2258C12.1588 13.3595 12.529 13.5197 12.8867 13.705C12.2831 14.209 11.6008 14.6112 10.8669 14.8958C11.2383 14.3769 11.5451 13.8151 11.7807 13.2227L11.7786 13.2258ZM4.76122 13.2258C4.99574 13.8185 5.30152 14.3806 5.67187 14.9C4.93789 14.6159 4.25613 14.2128 3.65416 13.7071C4.01104 13.5187 4.38142 13.3567 4.76227 13.2227L4.76122 13.2258ZM3.87368 8.78931C3.90798 9.93727 4.08437 11.0766 4.39885 12.1816C3.85939 12.3708 3.33894 12.6101 2.84434 12.8962C1.84638 11.7454 1.24584 10.3058 1.13123 8.78931H3.87368ZM4.39885 4.29944C4.08413 5.40431 3.90774 6.5437 3.87368 7.69169H1.13123C1.24559 6.17797 1.84293 4.74037 2.83594 3.58897C3.33375 3.87297 3.85654 4.11112 4.3978 4.30048L4.39885 4.29944ZM4.76437 3.25309C4.3842 3.11938 4.01392 2.95925 3.65626 2.77386C4.25804 2.27059 4.93906 1.86969 5.67187 1.58731C5.30218 2.10538 4.99676 2.66611 4.76227 3.25727L4.76437 3.25309ZM10.869 1.59045C11.6036 1.87369 12.286 2.27604 12.8888 2.78119C12.5317 2.96772 12.1613 3.1279 11.7807 3.26041C11.5469 2.66849 11.2407 2.10759 10.869 1.59045ZM8.82291 3.82753V1.22004C9.72688 1.73976 10.4059 2.57423 10.7293 3.56281C10.1029 3.70673 9.46495 3.79532 8.82291 3.82753ZM8.82291 7.6896V4.92515C9.5886 4.89376 10.3494 4.78864 11.0948 4.61125C11.3761 5.61644 11.5344 6.6518 11.5664 7.69483H8.82291V7.6896ZM8.82291 11.5548V8.78931H11.5664C11.5344 9.83233 11.3761 10.8677 11.0948 11.8729C10.3496 11.6944 9.58871 11.5872 8.82291 11.5548ZM8.82291 12.6524C9.46494 12.6841 10.1029 12.7723 10.7293 12.9161C10.4061 13.9051 9.72708 14.7399 8.82291 15.2599V12.6524ZM7.71795 12.6524V15.2599C6.81398 14.7402 6.13495 13.9057 5.81157 12.9171C6.43832 12.7732 7.07556 12.6846 7.71795 12.6524ZM7.71795 8.79035V11.5548C6.9524 11.5878 6.19171 11.6929 5.44605 11.8687C5.16547 10.8648 5.00748 9.83089 4.97549 8.78931H7.719L7.71795 8.79035ZM7.71795 4.92515V7.6896H4.97549C5.00732 6.64587 5.16567 5.60979 5.4471 4.60392C6.19222 4.78378 6.95202 4.89136 7.71795 4.92515ZM7.71795 3.82753C7.07592 3.79588 6.43797 3.70765 5.81157 3.56385C6.13391 2.57414 6.81364 1.7389 7.719 1.22004L7.71795 3.82753ZM8.27148 6.64577e-08C6.63554 6.64577e-08 5.03633 0.483266 3.67609 1.38869C2.31586 2.29411 1.25568 3.58101 0.629632 5.08667C0.00358392 6.59233 -0.160219 8.24911 0.158938 9.84751C0.478095 11.4459 1.26588 12.9141 2.42266 14.0665C3.57945 15.2189 5.05329 16.0037 6.65779 16.3216C8.2623 16.6396 9.92542 16.4764 11.4368 15.8527C12.9483 15.2291 14.2401 14.1729 15.149 12.8179C16.0578 11.4628 16.543 9.86969 16.543 8.23997C16.5431 7.15785 16.3292 6.08629 15.9136 5.08651C15.498 4.08673 14.8887 3.17831 14.1206 2.41313C13.3525 1.64795 12.4406 1.041 11.437 0.626951C10.4334 0.212902 9.35775 -0.000137373 8.27148 6.64577e-08Z" fill="white"/>
</svg>
