<svg width="30" height="58" viewBox="0 0 30 58" fill="none" xmlns="http://www.w3.org/2000/svg">
<path d="M14.8133 54.6672C14.8133 55.1765 14.4051 55.5893 13.9016 55.5893H2.86016C1.28309 55.5893 0 54.2916 0 52.6966V24.7167C0 20.3382 2.6188 16.3837 6.58048 14.6784V5.56662C6.24274 5.24519 6.03942 4.79124 6.03942 4.30277V2.2352C6.03942 1.49815 6.50246 0.839479 7.19174 0.596166C7.37474 0.532143 7.56361 0.5 7.75508 0.5H13.8103C14.0017 0.5 14.1906 0.532143 14.3716 0.595639C15.0629 0.839742 15.5259 1.49841 15.5259 2.23533V4.3029C15.5259 4.79137 15.3226 5.24519 14.9849 5.56676V14.6785C17.1797 15.6239 19.0131 17.283 20.1919 19.4059C20.4384 19.85 20.2824 20.4121 19.8433 20.6615C19.4041 20.9106 18.8485 20.7529 18.6019 20.309C17.532 18.3821 15.8149 16.9145 13.767 16.1765C13.4038 16.0457 13.1614 15.6978 13.1614 15.3078V6.0381H12.9541C12.4506 6.0381 12.0424 5.62524 12.0424 5.11596C12.0424 4.60668 12.4506 4.19382 12.9541 4.19382H13.7024V2.34414H7.86292V4.19382H8.61134C9.11488 4.19382 9.52309 4.60668 9.52309 5.11596C9.52309 5.62524 9.11488 6.0381 8.61134 6.0381H8.40398V15.3077C8.40398 15.6976 8.16145 16.0454 7.79832 16.1764C4.22452 17.4644 1.82337 20.8966 1.82337 24.7167V52.6964C1.82337 53.2746 2.28836 53.7449 2.86003 53.7449H13.9014C14.4051 53.7451 14.8133 54.1578 14.8133 54.6672ZM7.04078 19.1031C5.07922 20.2338 3.86061 22.3459 3.86061 24.615V49.7019C3.86061 50.2112 4.26881 50.624 4.77235 50.624C5.2759 50.624 5.6841 50.2112 5.6841 49.7019V24.615C5.6841 23.0069 6.54987 21.5088 7.94368 20.7052C8.38119 20.4531 8.53358 19.8901 8.28428 19.4476C8.03498 19.0051 7.47816 18.8507 7.04078 19.1031ZM25.6989 35.5372C25.1989 35.5975 24.842 36.0563 24.9017 36.5619C24.9998 37.393 24.7218 38.2289 24.1189 38.9158C23.3698 39.7691 22.2458 40.2787 21.1122 40.2787C20.6087 40.2787 20.2004 40.6915 20.2004 41.2008C20.2004 41.7101 20.6087 42.123 21.1122 42.123C22.7591 42.123 24.3928 41.3817 25.4826 40.1401C26.4363 39.0535 26.873 37.7052 26.7123 36.3435C26.6528 35.8377 26.1992 35.4763 25.6989 35.5372ZM28.0261 42.6424C26.5039 44.3768 24.3102 45.4939 22.0239 45.7315V55.6556H24.9268C25.4304 55.6556 25.8386 56.0685 25.8386 56.5777C25.8386 57.087 25.4304 57.4999 24.9268 57.4999H21.1277C21.1225 57.5 21.1174 57.5 21.1122 57.5C21.107 57.5 21.1019 57.5 21.0967 57.4999H17.2976C16.794 57.4999 16.3858 57.087 16.3858 56.5777C16.3858 56.0685 16.794 55.6556 17.2976 55.6556H20.2006V45.7315C17.9142 45.4939 15.7205 44.3767 14.1981 42.6422C12.7081 40.9442 12.0251 38.8429 12.2753 36.7253L12.9403 31.0931C12.9415 31.0809 12.9431 31.0686 12.9446 31.0565L13.6962 24.6919C13.7509 24.2282 14.1398 23.8791 14.6015 23.8791H27.6231C28.0849 23.8791 28.4737 24.2282 28.5285 24.6919L29.9495 36.7254C30.1993 38.843 29.5163 40.9446 28.0261 42.6424ZM28.1387 36.944L26.8136 25.7232H15.4108L14.8189 30.7352C17.2722 32.2359 21.3607 32.1552 24.8006 30.4841C25.2543 30.2635 25.7992 30.457 26.0173 30.9159C26.2353 31.375 26.0441 31.9259 25.5902 32.1465C21.8709 33.9535 17.5806 34.1259 14.5872 32.6982L14.0859 36.9438C13.8984 38.5308 14.4226 40.1195 15.5619 41.4178C16.945 42.9937 19.0199 43.9346 21.1121 43.9346C23.2044 43.9346 25.2793 42.9937 26.6624 41.4179C27.8017 40.1199 28.3261 38.531 28.1387 36.944Z" fill="white"/>
</svg>
