<svg width="32" height="33" viewBox="0 0 32 33" fill="none" xmlns="http://www.w3.org/2000/svg">
<path fill-rule="evenodd" clip-rule="evenodd" d="M17.759 0.557617L17.6655 4.29666L21.0626 1.62864L22.5659 3.5419L17.5865 7.45425L17.4084 14.5762L23.4874 10.861L24.3858 4.59264L26.7944 4.93788L26.1808 9.2148L29.3738 7.26343L30.9959 10.073L27.711 11.8616L31.7202 13.4696L30.8149 15.7281L24.937 13.372L18.6801 16.7788L24.6275 20.0171L30.9708 17.8616L31.7537 20.1654L27.5332 21.5993L30.9959 23.4847L29.3738 26.2943L26.0097 24.2383L26.8781 28.6101L24.4915 29.084L23.1866 22.5128L17.4084 18.9814L17.5777 25.7511L22.6161 30.1668L21.0124 31.9967L17.6604 29.0586L17.759 33.0001H14.5147L14.6132 29.0587L11.2613 31.9967L9.65755 30.1668L14.6959 25.7511L14.8652 18.9814L9.08707 22.5128L7.78218 29.084L5.39559 28.6101L6.26399 24.2382L2.89991 26.2943L1.27779 23.4847L4.74033 21.5993L0.52002 20.1654L1.30289 17.8616L7.64617 20.0171L13.5934 16.7788L7.33657 13.372L1.45878 15.7281L0.553486 13.4696L4.5642 11.8625L1.27779 10.073L2.89991 7.26343L6.09127 9.21392L5.47928 4.93788L7.88784 4.59264L8.78635 10.8611L14.8652 14.5762L14.6871 7.45417L9.70777 3.5419L11.211 1.62864L14.6082 4.29848L14.5147 0.557617H17.759Z" fill="#0057B7"/>
</svg>
