<svg width="26" height="30" viewBox="0 0 26 30" fill="none" xmlns="http://www.w3.org/2000/svg">
<path d="M18.3758 20.2854C17.8837 20.2559 16.7006 20.3259 15.5158 20.5511C14.8304 19.8574 14.2369 18.9835 13.7967 18.2628C15.2075 14.2062 14.314 13.0532 13.1113 13.0532C12.1668 13.0532 11.6953 14.05 11.8002 15.1512C11.8533 15.7055 12.3227 16.8703 12.9006 17.9767C12.5461 18.9091 11.9135 20.4849 11.2855 21.6253C10.5505 21.8487 9.91999 22.0969 9.46753 22.3063C7.21372 23.3544 7.03261 24.7539 7.50159 25.347C8.39204 26.4735 10.2893 25.5015 12.193 22.0969C13.4963 21.7263 15.211 21.2325 15.3656 21.2325C15.3834 21.2325 15.4078 21.2382 15.4361 21.2473C16.3862 22.0851 17.5084 23.0444 18.4319 23.1707C19.7683 23.3544 20.529 22.3852 20.4763 21.7825C20.424 21.1794 20.0718 20.3873 18.3758 20.2854ZM9.93915 23.9579C9.38831 24.6128 8.49739 25.2411 8.18298 25.0321C7.86816 24.8227 7.81589 24.22 8.52394 23.5382C9.23152 22.8571 10.4159 22.5036 10.594 22.4374C10.8043 22.359 10.8566 22.4374 10.8566 22.5423C10.8566 22.6472 10.4895 23.3021 9.93915 23.9579ZM12.351 15.1507C12.2983 14.4949 12.4289 13.8662 12.9798 13.7878C13.5297 13.7086 13.7923 14.3378 13.5828 15.3598C13.3729 16.383 13.2676 17.0637 13.163 17.1434C13.0582 17.2218 12.954 16.9591 12.954 16.9591C12.7438 16.5393 12.4033 15.8056 12.351 15.1507ZM12.5609 21.3104C12.8487 20.8379 13.5829 18.9255 13.5829 18.9255C13.7401 19.2142 14.9715 20.6808 14.9715 20.6808C14.9715 20.6808 13.0843 21.101 12.5609 21.3104ZM18.2734 22.1482C17.4874 22.0446 16.1511 21.0997 16.1511 21.0997C15.9678 21.0213 17.6155 20.7975 18.2482 20.838C19.0611 20.8907 19.3494 21.2316 19.3494 21.5722C19.3494 21.9131 19.0611 22.2532 18.2734 22.1482Z" fill="white"/>
<path d="M25.0315 6.3082L19.2694 0.545625L18.7237 0H17.9512H6.20003C3.42544 0 1.16817 2.25773 1.16817 5.03326V5.41822H0.423096V11.4377H1.16817V24.9673C1.16817 27.7423 3.4255 30.0001 6.20009 30.0001H20.5443C23.3198 30.0001 25.5771 27.7423 25.5771 24.9673V7.62627V6.85424L25.0315 6.3082ZM20.5442 28.1363H6.20003C4.44954 28.1363 3.03093 26.7176 3.03093 24.9672V11.4377H12.2483V5.41816H3.03093V5.0332C3.03093 3.2823 4.44954 1.86316 6.20003 1.86316H17.5053V5.43117C17.5053 6.88945 18.6884 8.0717 20.1467 8.0717H23.7142V24.9671C23.7142 26.7177 22.2951 28.1363 20.5442 28.1363ZM3.16159 9.7316V6.94523C3.16159 6.89607 3.20161 6.85594 3.25089 6.85594H4.13612C4.28202 6.85594 4.41655 6.8799 4.53673 6.92695C4.65561 6.97354 4.76009 7.03887 4.84722 7.1216C4.93517 7.20475 5.00267 7.30582 5.04837 7.42166C5.09407 7.53527 5.11763 7.65943 5.11763 7.79045C5.11763 7.92416 5.09407 8.04908 5.0479 8.16146C5.0022 8.27385 4.9347 8.37352 4.84763 8.4576C4.76097 8.54121 4.65602 8.60695 4.53585 8.65266C4.41655 8.69836 4.28202 8.72145 4.13612 8.72145H3.76253V9.73166C3.76253 9.78088 3.72251 9.8209 3.67329 9.8209H3.25095C3.20161 9.8209 3.16159 9.78082 3.16159 9.7316ZM5.89177 9.7316V6.94523C5.89177 6.89607 5.93185 6.85594 5.98106 6.85594H6.95946C7.14538 6.85594 7.30915 6.88687 7.4472 6.94781C7.587 7.01004 7.71192 7.10895 7.81909 7.24131C7.8744 7.31098 7.91835 7.38803 7.95011 7.47076C7.98104 7.55133 8.00454 7.63846 8.01978 7.72898C8.0346 7.81869 8.04327 7.91537 8.04632 8.01943C8.04895 8.11869 8.05024 8.22539 8.05024 8.33859C8.05024 8.45133 8.04895 8.55809 8.04632 8.65734C8.04327 8.761 8.0346 8.85809 8.01978 8.9482C8.00454 9.03879 7.98104 9.12545 7.95011 9.20596C7.91788 9.28957 7.87394 9.36668 7.81944 9.435C7.71151 9.56871 7.58647 9.66756 7.44714 9.72891C7.31038 9.78984 7.14626 9.82078 6.9594 9.82078H5.98101C5.93179 9.8209 5.89177 9.78082 5.89177 9.7316ZM10.5549 8.08482C10.6041 8.08482 10.6441 8.1249 10.6441 8.17412V8.55381C10.6441 8.60303 10.6041 8.64311 10.5549 8.64311H9.48591V9.73172C9.48591 9.78094 9.44583 9.82096 9.39661 9.82096H8.97421C8.92499 9.82096 8.88497 9.78094 8.88497 9.73172V6.94535C8.88497 6.89619 8.92499 6.85605 8.97421 6.85605H10.5945C10.6437 6.85605 10.6838 6.89613 10.6838 6.94535V7.32504C10.6838 7.37426 10.6437 7.41434 10.5945 7.41434H9.48591V8.08488L10.5549 8.08482Z" fill="white"/>
<path d="M4.41126 8.06868C4.48228 8.00469 4.51661 7.9137 4.51661 7.79041C4.51661 7.6676 4.48222 7.57661 4.41126 7.51262C4.33726 7.44641 4.2397 7.41418 4.11255 7.41418H3.76245V8.167H4.11255C4.23964 8.16706 4.33726 8.13489 4.41126 8.06868Z" fill="white"/>
<path d="M7.14881 9.22739C7.21502 9.20254 7.27203 9.16252 7.32301 9.10504C7.37832 9.04323 7.41313 8.9544 7.42666 8.84073C7.44189 8.71135 7.44928 8.54243 7.44928 8.33864C7.44928 8.13444 7.44189 7.96545 7.42666 7.83655C7.41313 7.72252 7.37832 7.6337 7.32342 7.57229C7.2725 7.51475 7.21367 7.47391 7.14928 7.44989C7.08002 7.42334 7.0008 7.41028 6.91244 7.41028H6.49268V9.26653H6.91244C7.00033 9.26659 7.08002 9.25352 7.14881 9.22739Z" fill="white"/>
</svg>
