<svg width="20" height="16" viewBox="0 0 20 16" fill="none" xmlns="http://www.w3.org/2000/svg">
<path d="M3.15803 4C4.31926 4 5.26338 3.10313 5.26338 2C5.26338 0.896875 4.31926 0 3.15803 0C1.9968 0 1.05268 0.896875 1.05268 2C1.05268 3.10313 1.9968 4 3.15803 4ZM15.7901 4C16.9514 4 17.8955 3.10313 17.8955 2C17.8955 0.896875 16.9514 0 15.7901 0C14.6289 0 13.6848 0.896875 13.6848 2C13.6848 3.10313 14.6289 4 15.7901 4ZM19.9778 11.0781L18.4778 5.27187C18.3692 4.85 17.9679 4.55312 17.4975 4.51562C17.004 4.81875 16.4185 5 15.7869 5C15.1553 5 14.5697 4.81875 14.0763 4.51562C13.6058 4.55312 13.2045 4.85 13.096 5.27187L11.5959 11.0781C11.4808 11.55 11.8755 12 12.4084 12H14.2111V15.25C14.2111 15.6656 14.5631 16 15.0006 16H16.5797C17.0172 16 17.3692 15.6656 17.3692 15.25V12H19.1719C19.7048 12 20.0995 11.55 19.9778 11.0781ZM10.0004 0H8.94775C8.65826 0 8.42141 0.225 8.42141 0.5V15.5C8.42141 15.775 8.65826 16 8.94775 16H10.0004C10.2899 16 10.5268 15.775 10.5268 15.5V0.5C10.5268 0.225 10.2899 0 10.0004 0ZM4.87192 4.5125C4.37848 4.81875 3.78964 5 3.15803 5C2.52642 5 1.93758 4.81875 1.44414 4.5125C0.634896 4.57812 0 5.21562 0 6V10.25C0 10.6656 0.351989 11 0.789507 11H1.05268V15.25C1.05268 15.6656 1.40467 16 1.84218 16H4.47388C4.91139 16 5.26338 15.6656 5.26338 15.25V11H5.52655C5.96407 11 6.31606 10.6656 6.31606 10.25V6C6.31606 5.21562 5.68116 4.57812 4.87192 4.5125Z" fill="white"/>
</svg>
