<svg width="19" height="23" viewBox="0 0 19 23" fill="none" xmlns="http://www.w3.org/2000/svg">
<path d="M12.2089 10.7521H13.1467L12.0651 15.5483L10.6591 8.80463H8.39942L6.76407 15.5483L5.53857 8.80463H3.17578L5.57385 19.6591H7.88235L9.50007 13.2398L10.9468 19.6591H13.0748L15.823 8.80463H12.2089V10.7521Z" fill="#3F3F8B"/>
<path d="M18.1056 5.51768C17.6347 4.87575 16.9779 4.12389 16.2572 3.40325C15.5366 2.6826 14.7847 2.02575 14.1428 1.55482C13.0489 0.752747 12.5183 0.660461 12.2143 0.660461H1.69643C0.761357 0.660461 0 1.42182 0 2.35689V20.6783C0 21.6134 0.761357 22.3747 1.69643 22.3747H17.3036C18.2386 22.3747 19 21.6134 19 20.6783V7.44618C19 7.14218 18.9077 6.61153 18.1056 5.51768ZM15.2964 4.3641C15.9478 5.01553 16.4581 5.60182 16.8354 6.08903H13.5701V2.8251C14.0573 3.20239 14.6463 3.71268 15.2964 4.3641ZM17.6429 20.6783C17.6429 20.8629 17.4881 21.0176 17.3036 21.0176H1.69643C1.51321 21.0176 1.35714 20.8629 1.35714 20.6783V2.35689C1.35714 2.17368 1.51321 2.0176 1.69643 2.0176H12.2143V6.7676C12.2143 7.14218 12.5183 7.44618 12.8929 7.44618H17.6429V20.6783Z" fill="#3F3F8B"/>
</svg>
