<svg width="60" height="81" viewBox="0 0 60 81" fill="none" xmlns="http://www.w3.org/2000/svg">
<path d="M42.5677 16C33.3552 16 25.8604 23.4949 25.8604 32.7074C25.8604 37.5411 28.1174 41.8226 31.7246 45C29.9146 47.9633 27.74 49.8868 27.7199 49.9039C27.2875 50.2731 27.1423 50.8789 27.3598 51.4041C27.5642 51.8971 28.0445 52.214 28.5715 52.214C28.606 52.214 28.6408 52.2125 28.6756 52.21C28.8915 52.1929 33.8184 51.7721 38.1891 48.833C39.6136 49.2193 41.0834 49.4149 42.5677 49.4149C51.7802 49.4149 59.2751 41.92 59.2751 32.7075C59.2751 23.4949 51.7802 16 42.5677 16ZM42.5677 48.214C40.2807 48.3739 38.1891 47 38.1891 47C38.1891 47 37.1968 47.9686 36.8603 48.214C35.2449 49.393 28.7246 51.5 28.5715 50.8214C28.5715 50.5 31.7751 47.214 33.2751 45.714C33.5855 45.1466 33.2878 44.6079 32.7751 44.214C29.2658 41.518 27.3598 37.1051 27.3598 32.7074C27.3598 24.9418 34.5097 17.214 42.2751 17.214C50.0406 17.214 57.7751 22.714 57.7751 32.7074C57.7751 40.4728 52.7751 47.5 42.5677 48.214Z" fill="black"/>
<path d="M43.3926 23.714H43.3792C42.6908 23.714 42.1392 24.2736 42.1392 24.964C42.1392 25.6542 42.704 26.214 43.3925 26.214C44.0809 26.214 44.6392 25.6544 44.6392 24.964C44.6393 24.2736 44.0812 23.714 43.3926 23.714Z" fill="black"/>
<path d="M16.4767 7H16.4687C16.0556 7 15.7246 7.33575 15.7246 7.75C15.7246 8.16415 16.0635 8.5 16.4766 8.5C16.8897 8.5 17.2246 8.16425 17.2246 7.75C17.2247 7.33575 16.8898 7 16.4767 7Z" fill="black"/>
<path d="M48.7246 11.5V6C48.7246 3.23858 46.486 1 43.7246 1H5.72461C2.96319 1 0.724609 3.23858 0.724609 6V75C0.724609 77.7614 2.96319 80 5.72461 80H43.7246C46.486 80 48.7246 77.7614 48.7246 75V62.875V52" stroke="black" stroke-width="1.25" stroke-linecap="round"/>
<path d="M43.7246 12H5.72461C5.17232 12 4.72461 12.4477 4.72461 13V68C4.72461 68.5523 5.17232 69 5.72461 69H42.7246C43.2769 69 43.7246 68.5523 43.7246 68V54" stroke="black" stroke-width="1.25" stroke-linecap="round" stroke-linejoin="round"/>
<rect x="20.7246" y="7" width="8.22" height="1.5" rx="0.75" fill="black"/>
<rect x="20.7246" y="74" width="8.22" height="1.5" rx="0.75" fill="black"/>
<rect x="11.7246" y="42" width="8.22" height="1.5" rx="0.75" fill="black"/>
<rect x="11.7246" y="47" width="13" height="1.5" rx="0.75" fill="black"/>
<rect x="11.7246" y="52" width="13" height="1.5" rx="0.75" fill="black"/>
<rect x="11.7246" y="62" width="6" height="1.5" rx="0.75" fill="black"/>
<rect x="21.7246" y="62" width="6" height="1.5" rx="0.75" fill="black"/>
<rect x="30.7246" y="62" width="6" height="1.5" rx="0.75" fill="black"/>
<path fill-rule="evenodd" clip-rule="evenodd" d="M40.7246 28.75C40.7246 28.3358 41.0604 28 41.4746 28H43.4746H44.9746C45.3888 28 45.7246 28.3358 45.7246 28.75C45.7246 29.1642 45.3888 29.5 44.9746 29.5H44.2246V40H44.9746C45.3888 40 45.7246 40.3358 45.7246 40.75C45.7246 41.1642 45.3888 41.5 44.9746 41.5H41.4746C41.0604 41.5 40.7246 41.1642 40.7246 40.75C40.7246 40.3358 41.0604 40 41.4746 40H42.7246V29.5H41.4746C41.0604 29.5 40.7246 29.1642 40.7246 28.75Z" fill="black"/>
</svg>
