<svg width="46" height="52" viewBox="0 0 46 52" fill="none" xmlns="http://www.w3.org/2000/svg">
<path d="M19.697 27.8644C18.5438 27.8644 17.6055 28.8027 17.6055 29.956V44.5431C17.6055 45.6963 18.5437 46.6347 19.697 46.6347C20.8503 46.6347 21.7886 45.6964 21.7886 44.5431V29.956C21.7886 28.8027 20.8502 27.8644 19.697 27.8644ZM20.1797 44.543C20.1797 44.8091 19.9631 45.0257 19.697 45.0257C19.4309 45.0257 19.2144 44.8091 19.2144 44.543V29.956C19.2144 29.6899 19.4309 29.4734 19.697 29.4734C19.9631 29.4734 20.1797 29.6899 20.1797 29.956V44.543Z" fill="white"/>
<path d="M30.3576 27.8964C29.2337 27.6981 28.1322 28.4703 27.9344 29.5925L25.3602 44.1796C25.1597 45.3154 25.9205 46.4024 27.0563 46.6028C27.1768 46.624 27.2996 46.6348 27.4213 46.6348C28.4371 46.6348 29.3028 45.908 29.4795 44.9065L32.0537 30.3194C32.2541 29.1839 31.4932 28.0969 30.3576 27.8964ZM30.4692 30.0401L27.895 44.6272C27.8493 44.8865 27.599 45.0648 27.3358 45.0187C27.0736 44.9723 26.8981 44.7215 26.9443 44.4593L29.5185 29.8722C29.5643 29.6135 29.8185 29.4349 30.0776 29.4808H30.0777C30.3399 29.527 30.5154 29.7779 30.4692 30.0401Z" fill="white"/>
<path d="M14.0341 44.1796L11.4599 29.5925C11.262 28.4707 10.1604 27.6974 9.03682 27.8963C7.90104 28.0968 7.14013 29.1838 7.34066 30.3195L9.91486 44.9066C10.0915 45.908 10.9572 46.6349 11.973 46.6349C12.0949 46.6349 12.2176 46.624 12.338 46.6028C13.4737 46.4023 14.2346 45.3154 14.0341 44.1796ZM12.0582 45.0183C11.7957 45.0648 11.5448 44.886 11.499 44.6269L8.92482 30.0398C8.87859 29.7777 9.05414 29.5269 9.31641 29.4806C9.57555 29.4347 9.82986 29.6133 9.87548 29.872L12.4497 44.4591C12.4959 44.7212 12.3204 44.972 12.0582 45.0183Z" fill="white"/>
<path d="M45.6647 14.7128C45.2336 13.6665 44.4208 12.8507 43.3761 12.4158L33.8209 8.43728L34.831 6.01133C34.9996 5.60645 34.8016 5.12775 34.3976 4.95945L26.4762 1.6613C26.0714 1.49261 25.5925 1.69081 25.4243 2.09479L24.4143 4.52074L14.859 0.542148C12.7024 -0.355837 10.2172 0.668144 9.31924 2.82478L8.65965 4.40904C8.48893 4.81916 8.68291 5.29 9.09303 5.46092L33.9774 15.8219C34.4098 16.0021 34.9151 15.7637 35.0546 15.318C35.1771 14.9267 34.9737 14.494 34.5958 14.3366L10.4541 4.28486L10.8045 3.44317C11.3614 2.10556 12.9028 1.47015 14.2405 2.02741L42.7578 13.9009C44.0788 14.4509 44.725 16.0127 44.1736 17.337L43.8233 18.1786L38.0272 15.7654C37.6171 15.5945 37.1462 15.7886 36.9754 16.1988C36.8047 16.6089 36.9986 17.0797 37.4088 17.2506L43.9473 19.9731C44.3522 20.1418 44.831 19.9435 44.9992 19.5397L45.6588 17.9555C46.0938 16.9107 46.096 15.759 45.6647 14.7128ZM32.3355 7.81888L25.8993 5.13913L26.6002 3.45576L33.0364 6.13562L32.3355 7.81888Z" fill="white"/>
<path d="M38.5749 19.2841H21.36V11.5079C21.36 11.0637 20.9998 10.7035 20.5556 10.7035H12.833C12.3887 10.7035 12.0285 11.0637 12.0285 11.5079C12.0285 11.9522 12.3887 12.3123 12.833 12.3123H17.499L11.975 15.7118L6.45088 12.3123H8.54275C8.98701 12.3123 9.34717 11.9522 9.34717 11.5079C9.34717 11.0637 8.98701 10.7035 8.54275 10.7035H3.39425C2.94999 10.7035 2.58983 11.0637 2.58983 11.5079V19.2841H0.820044C0.375785 19.2841 0.015625 19.6443 0.015625 20.0885V23.5207C0.015625 23.965 0.375785 24.3251 0.820044 24.3251H2.42677L5.60396 43.3884C5.66952 43.7818 6.01035 44.0607 6.39649 44.0607C6.4404 44.0607 6.48502 44.057 6.52974 44.0496C6.96795 43.9766 7.26406 43.5621 7.19094 43.1238L4.05786 24.3252H35.3371L31.0288 50.1744H8.3661L7.76311 46.5563C7.69009 46.1181 7.27494 45.8219 6.83733 45.8951C6.39911 45.9681 6.10301 46.3826 6.17613 46.8209L6.89121 51.1112C6.95587 51.4991 7.29135 51.7834 7.68475 51.7834H31.7106C32.1039 51.7834 32.4394 51.4991 32.5041 51.1112L36.9685 24.3253H38.5752C39.0194 24.3253 39.3796 23.9652 39.3796 23.5209V20.0887C39.3793 19.6443 39.0191 19.2841 38.5749 19.2841ZM4.19867 12.8154L11.5533 17.3414C11.6825 17.421 11.8287 17.4607 11.9749 17.4607C12.1211 17.4607 12.2672 17.421 12.3965 17.3414L19.751 12.8154V19.284H4.19867V12.8154ZM37.7705 22.7163H1.62446V20.8929H37.7704V22.7163H37.7705Z" fill="white"/>
</svg>
