<svg width="19" height="22" viewBox="0 0 19 22" fill="none" xmlns="http://www.w3.org/2000/svg">
<path d="M13.1654 14.8759C12.8045 14.8543 11.9369 14.9056 11.0681 15.0707C10.5655 14.562 10.1302 13.9212 9.80738 13.3927C10.842 10.4179 10.1867 9.57233 9.30477 9.57233C8.61216 9.57233 8.26635 10.3033 8.34331 11.1108C8.38224 11.5173 8.7265 12.3715 9.15026 13.1829C8.8903 13.8666 8.42636 15.0222 7.96587 15.8585C7.42683 16.0223 6.96449 16.2043 6.63268 16.3579C4.97989 17.1265 4.84708 18.1528 5.191 18.5877C5.84399 19.4138 7.23527 18.7011 8.63133 16.2043C9.58708 15.9325 10.8446 15.5705 10.9579 15.5705C10.971 15.5705 10.9889 15.5746 11.0096 15.5813C11.7064 16.1957 12.5293 16.8992 13.2065 16.9918C14.1866 17.1265 14.7444 16.4157 14.7058 15.9738C14.6674 15.5315 14.4091 14.9506 13.1654 14.8759ZM6.97854 17.5691C6.57459 18.0494 5.92125 18.5101 5.69068 18.3568C5.45981 18.2033 5.42148 17.7613 5.94071 17.2613C6.4596 16.7618 7.32817 16.5026 7.45875 16.454C7.61301 16.3966 7.65134 16.454 7.65134 16.531C7.65134 16.6079 7.38214 17.0882 6.97854 17.5691ZM8.74721 11.1105C8.70858 10.6296 8.80436 10.1685 9.20831 10.111C9.61161 10.0529 9.8042 10.5143 9.65054 11.2638C9.49663 12.0142 9.41937 12.5133 9.34272 12.5718C9.2658 12.6292 9.18945 12.4367 9.18945 12.4367C9.03527 12.1288 8.78554 11.5907 8.74721 11.1105ZM8.90113 15.6276C9.11219 15.2811 9.65058 13.8787 9.65058 13.8787C9.76587 14.0904 10.6689 15.1659 10.6689 15.1659C10.6689 15.1659 9.28497 15.474 8.90113 15.6276ZM13.0903 16.242C12.5139 16.166 11.5339 15.473 11.5339 15.473C11.3995 15.4156 12.6078 15.2515 13.0718 15.2811C13.668 15.3198 13.8793 15.5698 13.8793 15.8195C13.8793 16.0695 13.668 16.319 13.0903 16.242Z" fill="#5F249F"/>
<path d="M18.0461 4.62601L13.8206 0.400124L13.4204 0H12.8539H4.23641C2.20171 0 0.54639 1.65567 0.54639 3.69105V3.97336H0V8.38766H0.54639V18.3093C0.54639 20.3443 2.20176 22 4.23645 22H14.7555C16.7909 22 18.4462 20.3443 18.4462 18.3093V5.59259V5.02643L18.0461 4.62601ZM14.7555 20.6333H4.23641C2.95272 20.6333 1.91241 19.5929 1.91241 18.3092V8.38761H8.67181V3.97331H1.91241V3.69101C1.91241 2.40702 2.95272 1.36632 4.23641 1.36632H12.527V3.98285C12.527 5.05226 13.3945 5.91923 14.4639 5.91923H17.0801V18.3092C17.0801 19.5929 16.0395 20.6333 14.7555 20.6333ZM2.00823 7.13649V5.09316C2.00823 5.05711 2.03757 5.02768 2.07371 5.02768H2.72288C2.82987 5.02768 2.92853 5.04525 3.01666 5.07976C3.10384 5.11392 3.18045 5.16183 3.24435 5.2225C3.30885 5.28347 3.35835 5.35759 3.39186 5.44254C3.42538 5.52586 3.44265 5.61691 3.44265 5.71299C3.44265 5.81104 3.42538 5.90265 3.39152 5.98506C3.358 6.06748 3.3085 6.14057 3.24465 6.20223C3.1811 6.26354 3.10414 6.31175 3.01601 6.34527C2.92853 6.37878 2.82987 6.39571 2.72288 6.39571H2.44891V7.13654C2.44891 7.17263 2.41957 7.20198 2.38347 7.20198H2.07375C2.03757 7.20198 2.00823 7.17259 2.00823 7.13649ZM4.01035 7.13649V5.09316C4.01035 5.05711 4.03974 5.02768 4.07584 5.02768H4.79333C4.92967 5.02768 5.04976 5.05037 5.151 5.09505C5.25352 5.14069 5.34513 5.21322 5.42372 5.31028C5.46428 5.36137 5.49651 5.41788 5.5198 5.47855C5.54249 5.53763 5.55972 5.60152 5.57089 5.66791C5.58176 5.7337 5.58812 5.80459 5.59035 5.88091C5.59229 5.9537 5.59323 6.03194 5.59323 6.11496C5.59323 6.19763 5.59229 6.27592 5.59035 6.34871C5.58812 6.42472 5.58176 6.49592 5.57089 6.562C5.55972 6.62843 5.54249 6.69198 5.5198 6.75102C5.49617 6.81234 5.46394 6.86889 5.42398 6.91899C5.34483 7.01704 5.25313 7.08953 5.15096 7.13452C5.05067 7.1792 4.93031 7.20189 4.79328 7.20189H4.07579C4.0397 7.20198 4.01035 7.17259 4.01035 7.13649ZM7.42997 5.92886C7.46606 5.92886 7.49541 5.95825 7.49541 5.99434V6.27278C7.49541 6.30887 7.46606 6.33827 7.42997 6.33827H6.64605V7.13658C6.64605 7.17267 6.61666 7.20202 6.58057 7.20202H6.2708C6.23471 7.20202 6.20536 7.17267 6.20536 7.13658V5.09325C6.20536 5.0572 6.23471 5.02776 6.2708 5.02776H7.45902C7.49507 5.02776 7.5245 5.05715 7.5245 5.09325V5.37169C7.5245 5.40778 7.49511 5.43717 7.45902 5.43717H6.64605V5.9289L7.42997 5.92886Z" fill="#5F249F"/>
<path d="M2.92501 5.91703C2.97709 5.87011 3.00227 5.80338 3.00227 5.71297C3.00227 5.62291 2.97705 5.55618 2.92501 5.50926C2.87074 5.46071 2.7992 5.43707 2.70596 5.43707H2.44922V5.98913H2.70596C2.79916 5.98918 2.87074 5.96559 2.92501 5.91703Z" fill="#5F249F"/>
<path d="M4.93234 6.76675C4.98089 6.74853 5.0227 6.71918 5.06008 6.67703C5.10064 6.6317 5.12617 6.56656 5.13609 6.4832C5.14726 6.38832 5.15268 6.26444 5.15268 6.115C5.15268 5.96525 5.14726 5.84133 5.13609 5.7468C5.12617 5.66318 5.10064 5.59804 5.06038 5.55301C5.02304 5.51082 4.9799 5.48087 4.93268 5.46325C4.88189 5.44379 4.8238 5.4342 4.759 5.4342H4.45117V6.79545H4.759C4.82345 6.79549 4.88189 6.78591 4.93234 6.76675Z" fill="#5F249F"/>
</svg>
