<svg width="44" height="52" viewBox="0 0 44 52" fill="none" xmlns="http://www.w3.org/2000/svg">
<path d="M36.1557 31.4758V6.26673C36.1557 5.75195 35.8126 5.40879 35.2978 5.40879H25.8601V4.55086C25.8601 4.03608 25.517 3.69292 25.0022 3.69292H22.3425C21.9135 1.71956 20.1975 0.260986 18.1384 0.260986C16.0793 0.260986 14.3633 1.71956 13.9344 3.69282H11.2747C10.76 3.69282 10.4168 4.03598 10.4168 4.55076V5.40879H0.979028C0.464247 5.40879 0.121094 5.75195 0.121094 6.26673V49.1651C0.121094 49.6799 0.464247 50.0231 0.979028 50.0231H27.9094C29.5387 51.1061 31.4898 51.739 33.5818 51.739C39.2444 51.739 43.8774 47.106 43.8774 41.4434C43.8774 36.6687 40.5834 32.6262 36.1557 31.4758ZM34.4398 7.12476V31.1478C34.1824 31.1478 33.8392 31.1478 33.5818 31.1478C33.293 31.1478 33.0069 31.1605 32.7239 31.1841V9.69866C32.7239 9.18388 32.3807 8.84073 31.866 8.84073H25.8601V7.12476H34.4398ZM29.8734 31.8432C26.4307 33.1335 23.9681 36.2167 23.4087 39.8612C23.4047 39.887 23.401 39.9131 23.3972 39.939C23.3819 40.044 23.3679 40.1492 23.3557 40.2551C23.3468 40.3311 23.3388 40.4074 23.3317 40.4839C23.3276 40.5276 23.3234 40.5711 23.3199 40.6149C23.3104 40.7319 23.3031 40.8494 23.2977 40.9675C23.2964 40.996 23.2955 41.0247 23.2944 41.0533C23.2894 41.1828 23.2862 41.3127 23.2862 41.4434C23.2862 42.507 23.4211 43.5033 23.7498 44.4919C23.7579 44.5175 23.7664 44.5428 23.7747 44.5683C23.7991 44.6443 23.8241 44.72 23.8504 44.7953C23.8596 44.8221 23.8692 44.8487 23.8787 44.8754H5.2689V10.5566H10.4167V11.4145C10.4167 11.9293 10.7599 12.2725 11.2746 12.2725H25.0021C25.5169 12.2725 25.86 11.9293 25.86 11.4145V10.5566H31.0078V31.4758C30.6205 31.5764 30.242 31.6996 29.8734 31.8432ZM12.1327 5.40879H14.7066C15.2214 5.40879 15.5645 5.06564 15.5645 4.55086C15.5645 3.09228 16.6798 1.97695 18.1384 1.97695C19.597 1.97695 20.7123 3.09228 20.7123 4.55086C20.7123 5.06564 21.0555 5.40879 21.5702 5.40879H24.1442V6.26673V9.69856V10.5565H12.1327V9.69856V6.26673V5.40879ZM1.83706 7.12476H10.4167V8.84073H4.41096C3.89618 8.84073 3.55303 9.18388 3.55303 9.69866V45.7333C3.55303 46.2481 3.89618 46.5912 4.41096 46.5912H24.6753C25.0331 47.2061 25.4526 47.7808 25.9252 48.3072H1.83706V7.12476ZM33.5818 50.0231C31.7734 50.0231 30.092 49.4544 28.7046 48.4893C28.7001 48.4858 28.696 48.4821 28.6914 48.4787C27.553 47.6776 26.643 46.6274 26.0114 45.4409C25.996 45.3936 25.9748 45.3476 25.946 45.3043C25.4598 44.3318 25.1424 43.3031 25.0391 42.2181C25.0304 42.1222 25.0224 42.0261 25.017 41.9294C25.0148 41.8927 25.0134 41.8557 25.0117 41.8188C25.0063 41.6942 25.0022 41.5693 25.0022 41.4434C25.0022 41.3037 25.0061 41.1648 25.0128 41.0267C25.0147 40.9886 25.0181 40.9508 25.0204 40.9127C25.0267 40.8101 25.034 40.7079 25.0439 40.6063C25.0474 40.5698 25.052 40.5336 25.056 40.4973C25.0679 40.3893 25.0812 40.2818 25.0973 40.175C25.1008 40.1513 25.1046 40.1276 25.1084 40.104C25.5755 37.1571 27.5565 34.6973 30.2231 33.5532C30.7952 33.3171 31.402 33.1413 32.0376 33.0353C32.1097 33.0209 32.1764 32.9986 32.2385 32.9705C32.6765 32.9008 33.1251 32.8637 33.5819 32.8637C33.6582 32.8637 33.7337 32.8675 33.8096 32.8695C34.2484 32.8895 34.6873 32.9621 35.1263 33.0353C35.2232 33.0676 35.3202 33.0755 35.4125 33.0638C39.2593 33.9085 42.1616 37.3526 42.1616 41.4434C42.1615 46.1622 38.3006 50.0231 33.5818 50.0231Z" fill="white"/>
<path d="M9.55715 17.4203H21.5687C21.9977 17.4203 22.4267 17.0772 22.4267 16.5624C22.4267 16.0476 22.0835 15.7045 21.5687 15.7045H9.55715C9.04237 15.7045 8.69922 16.0476 8.69922 16.5624C8.69922 17.0772 9.04237 17.4203 9.55715 17.4203Z" fill="white"/>
<path d="M25.0025 17.4203H27.5764C28.0054 17.4203 28.4343 17.0772 28.4343 16.5624C28.4343 16.0476 28.0911 15.7045 27.5764 15.7045H25.0025C24.4877 15.7045 24.1445 16.0476 24.1445 16.5624C24.1445 17.0772 24.4877 17.4203 25.0025 17.4203Z" fill="white"/>
<path d="M27.5743 19.1362H18.9947C18.4799 19.1362 18.1367 19.4794 18.1367 19.9942C18.1367 20.5089 18.4799 20.8521 18.9947 20.8521H27.5743C28.0033 20.8521 28.4322 20.5089 28.4322 19.9942C28.4322 19.4794 28.0891 19.1362 27.5743 19.1362Z" fill="white"/>
<path d="M27.5749 22.5682H24.1431C23.6283 22.5682 23.2852 22.9114 23.2852 23.4262C23.2852 23.941 23.6283 24.2841 24.1431 24.2841H27.5749C28.0039 24.2841 28.4329 23.941 28.4329 23.4262C28.4329 22.9114 28.0897 22.5682 27.5749 22.5682Z" fill="white"/>
<path d="M9.55715 20.8522H15.5629C15.9919 20.8522 16.4208 20.5091 16.4208 19.9943C16.4208 19.4795 16.0777 19.1364 15.5629 19.1364H9.55715C9.04237 19.1364 8.69922 19.4795 8.69922 19.9943C8.69922 20.5091 9.04237 20.8522 9.55715 20.8522Z" fill="white"/>
<path d="M9.55715 24.2841H12.1311C12.5601 24.2841 12.989 23.941 12.989 23.4262C12.989 22.9114 12.6458 22.5682 12.1311 22.5682H9.55715C9.04237 22.5682 8.69922 22.9114 8.69922 23.4262C8.69922 23.941 9.04237 24.2841 9.55715 24.2841Z" fill="white"/>
<path d="M9.55725 27.716H16.421C16.85 27.716 17.279 27.3728 17.279 26.858C17.279 26.3433 16.9357 26 16.4209 26H9.55715C9.04237 26 8.69922 26.3432 8.69922 26.8579C8.69922 27.3727 9.04247 27.716 9.55725 27.716Z" fill="white"/>
<path d="M14.707 23.4262C14.707 23.941 15.0502 24.2841 15.565 24.2841H20.7128C21.1418 24.2841 21.5707 23.941 21.5707 23.4262C21.5707 22.9114 21.2276 22.5682 20.7128 22.5682H15.565C15.0502 22.5682 14.707 22.9114 14.707 23.4262Z" fill="white"/>
<path d="M27.5752 26H26.7173C26.2025 26 25.8594 26.3432 25.8594 26.8579C25.8594 27.3727 26.2025 27.7159 26.7173 27.7159H27.5752C28.0043 27.7159 28.4332 27.3727 28.4332 26.8579C28.4332 26.3432 28.09 26 27.5752 26Z" fill="white"/>
<path d="M23.2859 27.716C23.7149 27.716 24.1438 27.3728 24.1438 26.858C24.1438 26.3433 23.8006 26 23.2859 26H19.854C19.3392 26 18.9961 26.3432 18.9961 26.8579C18.9961 27.3727 19.3392 27.7159 19.854 27.7159L23.2859 27.716Z" fill="white"/>
<path d="M10.4151 29.4318H9.55715C9.04237 29.4318 8.69922 29.775 8.69922 30.2898C8.69922 30.8045 9.04237 31.1477 9.55715 31.1477H10.4151C10.8441 31.1477 11.273 30.8045 11.273 30.2898C11.273 29.775 10.9299 29.4318 10.4151 29.4318Z" fill="white"/>
<path d="M27.5772 29.4318H20.7134C20.1986 29.4318 19.8555 29.775 19.8555 30.2898C19.8555 30.8045 20.1986 31.1477 20.7134 31.1477H27.5772C28.0062 31.1477 28.4351 30.8045 28.4351 30.2898C28.4351 29.775 28.092 29.4318 27.5772 29.4318Z" fill="white"/>
<path d="M17.282 29.4318H13.8501C13.3353 29.4318 12.9922 29.775 12.9922 30.2898C12.9922 30.8045 13.3353 31.1477 13.8501 31.1477H17.282C17.711 31.1477 18.1399 30.8045 18.1399 30.2898C18.1399 29.775 17.7967 29.4318 17.282 29.4318Z" fill="white"/>
<path d="M38.2993 37.2395C37.8703 36.9821 37.3555 37.0678 37.0981 37.4968L32.6367 44.189L30.835 41.7867C30.5776 41.4436 29.977 41.3577 29.6338 41.6151C29.2906 41.8725 29.2047 42.473 29.4621 42.8163L31.8604 46.014C31.9151 46.1556 32.011 46.2824 32.1487 46.3803C32.3108 46.5346 32.5162 46.5915 32.7224 46.5915C32.7492 46.5915 32.776 46.5888 32.8029 46.5849C32.8147 46.5833 32.8265 46.5812 32.8384 46.5789C32.8564 46.5753 32.8745 46.5709 32.8925 46.5658C32.902 46.5631 32.9116 46.561 32.921 46.5579C33.0265 46.5251 33.1319 46.4725 33.2373 46.4198C33.369 46.321 33.4624 46.1716 33.5134 46.0056L38.5567 38.4407C38.814 38.0116 38.7283 37.4968 38.2993 37.2395Z" fill="white"/>
</svg>
