<svg width="314" height="380" viewBox="0 0 314 380" fill="none" xmlns="http://www.w3.org/2000/svg">
<path d="M69.5182 333.488V358.816C69.5182 370.483 60.1424 380 48.5561 380C36.9697 380 27.4414 370.483 27.4414 358.816C27.4414 352.292 27.7463 333.488 27.7463 333.488H0V183.438C0 183.438 7.62262 107.453 10.8241 77.2127C14.3305 43.5952 22.0294 33.771 45.507 22.6419C79.199 6.67744 117.007 0 156.721 0C196.435 0 234.243 6.67744 267.935 22.6419C291.413 33.771 299.111 43.5952 302.618 77.2127C305.819 107.453 313.442 183.438 313.442 183.438V333.488H285.619C285.619 333.488 286.001 352.292 286.001 358.816C286.001 370.483 276.548 380 264.962 380C253.376 380 243.924 370.559 243.924 358.816V333.488H69.5182ZM48.5561 283.906C60.1424 283.906 69.5182 274.466 69.5182 262.799C69.5182 251.133 60.2187 241.693 48.5561 241.693C36.8935 241.693 27.5939 251.133 27.5939 262.799C27.5939 274.466 36.9697 283.906 48.5561 283.906ZM264.962 283.906C276.472 283.906 285.924 274.466 285.924 262.799C285.924 251.133 276.548 241.693 264.962 241.693C253.376 241.693 244 251.133 244 262.799C244 274.466 253.452 283.906 264.962 283.906ZM222.275 47.7398C227.535 47.7398 231.804 43.4417 231.804 38.1458C231.804 32.8499 227.535 28.5518 222.275 28.5518H92.0812C86.8216 28.5518 82.5529 32.8499 82.5529 38.1458C82.5529 43.4417 86.8216 47.7398 92.0812 47.7398H222.275ZM272.585 184.589C280.055 184.589 286.687 178.756 286.001 168.932C283.485 134.393 281.884 118.659 277.387 83.0458C276.472 75.8311 270.298 70.0747 260.998 70.0747H52.8247C43.5251 70.0747 37.3508 75.2939 36.4361 82.4318C32.3199 116.28 30.4142 135.391 27.975 169.162C27.3652 177.605 33.6157 184.589 42.2293 184.589H272.585Z" fill="#5F249F"/>
<path d="M110.282 33.8393C111.749 33.8393 112.947 34.2898 113.876 35.1906C114.842 36.1286 115.325 37.2988 115.325 38.7012C115.325 40.085 114.842 41.2459 113.876 42.1839C112.938 43.094 111.74 43.5491 110.282 43.5491C108.814 43.5491 107.607 43.094 106.66 42.1839C106.205 41.7567 105.847 41.2459 105.587 40.6515C105.336 40.0478 105.211 39.407 105.211 38.729C105.211 38.0789 105.341 37.4381 105.601 36.8066C105.87 36.1658 106.219 35.6318 106.646 35.2046C107.556 34.2944 108.768 33.8393 110.282 33.8393ZM110.268 35.8175C109.441 35.8175 108.763 36.0822 108.234 36.6116C107.686 37.1409 107.412 37.8421 107.412 38.7151C107.412 39.551 107.695 40.2475 108.262 40.8047C108.8 41.3155 109.464 41.5709 110.254 41.5709C111.099 41.5709 111.786 41.3062 112.316 40.7769C112.854 40.2568 113.124 39.5649 113.124 38.7012C113.124 37.8468 112.854 37.1502 112.316 36.6116C111.768 36.0822 111.085 35.8175 110.268 35.8175Z" fill="black"/>
<path d="M124.778 34.0483V39.551C124.778 40.8047 124.434 41.7845 123.747 42.4903C123.06 43.1962 122.094 43.5491 120.849 43.5491C119.605 43.5491 118.639 43.1962 117.952 42.4903C117.264 41.7845 116.921 40.8047 116.921 39.551V34.0483H119.066V39.4952C119.066 40.2011 119.229 40.7211 119.554 41.0555C119.86 41.3805 120.292 41.5431 120.849 41.5431C121.406 41.5431 121.838 41.3805 122.145 41.0555C122.47 40.7211 122.632 40.2011 122.632 39.4952V34.0483H124.778Z" fill="black"/>
<path d="M132.091 35.8593H130.071V43.3401H127.925V35.8593H125.906V34.0483H132.091V35.8593Z" fill="black"/>
<path d="M141.109 33.8393C142.576 33.8393 143.774 34.2898 144.703 35.1906C145.669 36.1286 146.152 37.2988 146.152 38.7012C146.152 40.085 145.669 41.2459 144.703 42.1839C143.765 43.094 142.567 43.5491 141.109 43.5491C139.642 43.5491 138.434 43.094 137.487 42.1839C137.032 41.7567 136.674 41.2459 136.414 40.6515C136.164 40.0478 136.038 39.407 136.038 38.729C136.038 38.0789 136.168 37.4381 136.428 36.8066C136.698 36.1658 137.046 35.6318 137.473 35.2046C138.383 34.2944 139.595 33.8393 141.109 33.8393ZM141.095 35.8175C140.268 35.8175 139.591 36.0822 139.061 36.6116C138.513 37.1409 138.239 37.8421 138.239 38.7151C138.239 39.551 138.522 40.2475 139.089 40.8047C139.628 41.3155 140.292 41.5709 141.081 41.5709C141.926 41.5709 142.613 41.3062 143.143 40.7769C143.682 40.2568 143.951 39.5649 143.951 38.7012C143.951 37.8468 143.682 37.1502 143.143 36.6116C142.595 36.0822 141.912 35.8175 141.095 35.8175Z" fill="black"/>
<path d="M152.902 34.0483V35.8593H149.893V37.6564H152.679V39.4674H149.893V43.3401H147.748V34.0483H152.902Z" fill="black"/>
<path d="M163.487 34.7588L162.526 36.319C162.033 35.8732 161.513 35.6503 160.965 35.6503C160.557 35.6503 160.255 35.7571 160.06 35.9708C159.902 36.1286 159.823 36.3237 159.823 36.5558C159.823 36.7695 159.893 36.9413 160.032 37.0713C160.078 37.1084 160.125 37.1456 160.171 37.1827C160.218 37.2106 160.283 37.2431 160.366 37.2802C160.45 37.3174 160.52 37.3499 160.575 37.3778C160.631 37.3963 160.729 37.4335 160.868 37.4892C161.007 37.5356 161.119 37.5728 161.202 37.6007L161.899 37.8653C162.484 38.0882 162.906 38.3251 163.166 38.5758C163.622 39.003 163.849 39.5788 163.849 40.3032C163.849 41.2691 163.575 42.0353 163.027 42.6018C162.423 43.2333 161.546 43.5491 160.394 43.5491C159.688 43.5491 159.075 43.4191 158.555 43.159C158.091 42.9268 157.636 42.5879 157.19 42.1421L158.305 40.6097C158.62 40.9255 158.908 41.1623 159.168 41.3202C159.531 41.5431 159.921 41.6545 160.339 41.6545C160.738 41.6545 161.063 41.5477 161.314 41.3341C161.537 41.1484 161.648 40.8976 161.648 40.5818C161.648 40.3218 161.541 40.0989 161.328 39.9132C161.16 39.7738 160.798 39.602 160.241 39.3977L159.475 39.133C158.871 38.9194 158.439 38.6733 158.179 38.3947C157.808 38.0046 157.622 37.466 157.622 36.7787C157.622 35.9336 157.891 35.2371 158.43 34.6891C158.987 34.1226 159.753 33.8393 160.729 33.8393C161.741 33.8393 162.66 34.1458 163.487 34.7588Z" fill="black"/>
<path d="M170.645 34.0483V35.8593H167.538V37.6564H170.491V39.4674H167.538V41.5291H170.645V43.3401H165.393V34.0483H170.645Z" fill="black"/>
<path d="M172.385 34.0483H175.645C176.648 34.0483 177.437 34.3176 178.013 34.8563C178.552 35.3764 178.821 36.0683 178.821 36.932C178.821 37.7214 178.58 38.3529 178.097 38.8266C177.725 39.1795 177.294 39.4163 176.801 39.537L179.657 43.3401H177.038L174.531 39.6763V43.3401H172.385V34.0483ZM174.531 35.72V38.2693H175.018C175.603 38.2693 176.03 38.1347 176.3 37.8653C176.532 37.6332 176.648 37.3313 176.648 36.9598C176.648 36.5512 176.504 36.2354 176.216 36.0125C175.956 35.8175 175.561 35.72 175.032 35.72H174.531Z" fill="black"/>
<path d="M179.75 34.0483H182.062L184.417 39.9967L186.771 34.0483H189.083L185.141 43.3401H183.692L179.75 34.0483Z" fill="black"/>
<path d="M190.194 34.0483H192.34V43.3401H190.194V34.0483Z" fill="black"/>
<path d="M201.125 40.5818V43.0476C200.466 43.3819 199.783 43.5491 199.077 43.5491C197.564 43.5491 196.347 43.0987 195.427 42.1978C194.462 41.2598 193.979 40.085 193.979 38.6733C193.979 37.2802 194.462 36.1147 195.427 35.1767C196.347 34.2851 197.503 33.8393 198.896 33.8393C199.583 33.8393 200.326 34.0112 201.125 34.3548V36.8345C200.503 36.1751 199.779 35.8454 198.952 35.8454C198.19 35.8454 197.559 36.0868 197.057 36.5698C196.472 37.1363 196.18 37.8514 196.18 38.7151C196.18 39.5602 196.449 40.2429 196.988 40.7629C197.508 41.283 198.176 41.5431 198.994 41.5431C199.765 41.5431 200.475 41.2226 201.125 40.5818Z" fill="black"/>
<path d="M208.097 34.0483V35.8593H204.991V37.6564H207.944V39.4674H204.991V41.5291H208.097V43.3401H202.845V34.0483H208.097Z" fill="black"/>
</svg>
