<svg width="20" height="20" viewBox="0 0 20 20" fill="none" xmlns="http://www.w3.org/2000/svg">
<g clip-path="url(#clip0_601_5534)">
<path d="M9.16667 15C9.16667 15.4602 9.53975 15.8333 10 15.8333C10.4602 15.8333 10.8333 15.4602 10.8333 15H9.16667ZM10 10.8333H10.8333C10.8333 10.6123 10.7455 10.4003 10.5892 10.2441L10 10.8333ZM7.08333 7.91665L6.53458 7.2895C6.361 7.44138 6.25813 7.6584 6.25046 7.88891C6.24278 8.11943 6.33099 8.34281 6.49407 8.5059L7.08333 7.91665ZM10.4167 4.99998L11.0494 4.45765C10.9046 4.28873 10.6982 4.18472 10.4763 4.16879C10.2544 4.15285 10.0353 4.22632 9.86792 4.37283L10.4167 4.99998ZM15.4167 9.16665C15.8769 9.16665 16.25 8.79356 16.25 8.33331C16.25 7.87308 15.8769 7.49998 15.4167 7.49998V9.16665ZM6.66667 14.1666C6.66667 15.5474 5.54737 16.6666 4.16667 16.6666V18.3333C6.46785 18.3333 8.33333 16.4678 8.33333 14.1666H6.66667ZM4.16667 16.6666C2.78596 16.6666 1.66667 15.5474 1.66667 14.1666H0C0 16.4678 1.86548 18.3333 4.16667 18.3333V16.6666ZM1.66667 14.1666C1.66667 12.7859 2.78596 11.6666 4.16667 11.6666V9.99998C1.86548 9.99998 0 11.8655 0 14.1666H1.66667ZM4.16667 11.6666C5.54737 11.6666 6.66667 12.7859 6.66667 14.1666H8.33333C8.33333 11.8655 6.46785 9.99998 4.16667 9.99998V11.6666ZM10.8333 15V10.8333H9.16667V15H10.8333ZM10.5892 10.2441L7.67259 7.32739L6.49407 8.5059L9.41075 11.4226L10.5892 10.2441ZM7.63208 8.54381L10.9654 5.62713L9.86792 4.37283L6.53458 7.2895L7.63208 8.54381ZM9.78392 5.5423C10.212 6.04172 11.0027 6.9224 11.9607 7.68368C12.8891 8.42131 14.121 9.16665 15.4167 9.16665V7.49998C14.7123 7.49998 13.8609 7.06479 12.9976 6.37878C12.164 5.71645 11.4547 4.93045 11.0494 4.45765L9.78392 5.5423ZM18.3333 14.1666C18.3333 15.5474 17.2141 16.6666 15.8333 16.6666V18.3333C18.1345 18.3333 20 16.4678 20 14.1666H18.3333ZM15.8333 16.6666C14.4526 16.6666 13.3333 15.5474 13.3333 14.1666H11.6667C11.6667 16.4678 13.5322 18.3333 15.8333 18.3333V16.6666ZM13.3333 14.1666C13.3333 12.7859 14.4526 11.6666 15.8333 11.6666V9.99998C13.5322 9.99998 11.6667 11.8655 11.6667 14.1666H13.3333ZM15.8333 11.6666C17.2141 11.6666 18.3333 12.7859 18.3333 14.1666H20C20 11.8655 18.1345 9.99998 15.8333 9.99998V11.6666ZM13.3333 2.49998V4.16665C14.2538 4.16665 15 3.42045 15 2.49998H13.3333ZM13.3333 2.49998H11.6667C11.6667 3.42045 12.4128 4.16665 13.3333 4.16665V2.49998ZM13.3333 2.49998V0.833313C12.4128 0.833313 11.6667 1.5795 11.6667 2.49998H13.3333ZM13.3333 2.49998H15C15 1.5795 14.2538 0.833313 13.3333 0.833313V2.49998Z" fill="white"/>
</g>
<defs>
<clipPath id="clip0_601_5534">
<rect width="20" height="20" fill="white"/>
</clipPath>
</defs>
</svg>
