<svg width="68" height="81" viewBox="0 0 68 81" fill="none" xmlns="http://www.w3.org/2000/svg">
<path d="M57.4062 5.50412C59.8719 6.67188 61.3828 7.7155 62.3985 9.25738C63.4256 10.8167 64.0096 12.9808 64.3808 16.5364L64.3809 16.5375C64.7222 19.7585 65.2994 25.4175 65.7914 30.2727C66.0373 32.7 66.2619 34.9259 66.4251 36.5449L66.6186 38.4677L66.6714 38.9927L66.6851 39.1295L66.6861 39.1388V70.3356H61.5002H60.7348L60.7503 71.1009L61.5002 71.0856L60.7503 71.1009V71.101L60.7504 71.1016L60.7504 71.1037L60.7506 71.1123L60.7513 71.146L60.7538 71.2754L60.763 71.748C60.7706 72.1452 60.7808 72.6892 60.791 73.2766C60.8113 74.4541 60.8315 75.797 60.8315 76.4845C60.8315 78.5613 59.1465 80.25 57.093 80.25C55.0378 80.25 53.3545 78.5759 53.3545 76.4845V71.0856V70.3356H52.6045H15.3955H14.6455V71.0856V76.4845C14.6455 78.5649 12.9732 80.25 10.9233 80.25C8.86628 80.25 7.16853 78.5578 7.16853 76.4845C7.16853 75.7954 7.1847 74.4512 7.20098 73.274C7.2091 72.6865 7.21723 72.1424 7.22332 71.7452L7.23069 71.2725L7.23275 71.143L7.23329 71.1093L7.23343 71.1007L7.23347 71.0985L7.23347 71.098L7.23348 71.0979L6.48358 71.0856L7.23348 71.0978L7.24585 70.3356H6.48358H1.31396V39.1388L1.3149 39.1295L1.32864 38.9927L1.38141 38.4677L1.57496 36.5449C1.73809 34.9259 1.9627 32.7 2.20866 30.2727C2.70063 25.4175 3.27778 19.7585 3.61909 16.5375L3.61921 16.5364C3.9904 12.9808 4.57437 10.8167 5.60153 9.25738C6.61723 7.7155 8.12814 6.67188 10.5938 5.50412C17.6581 2.15982 25.6089 0.75 34 0.75C42.3912 0.75 50.3419 2.15979 57.4062 5.50412ZM57.4062 5.50412L57.7272 4.8263M57.4062 5.50412L57.7272 4.8263M57.7272 4.8263C62.7361 7.19855 64.3787 9.29267 65.1268 16.4585C65.8098 22.9045 67.4361 39.1012 67.4361 39.1012L57.7272 4.8263ZM62.3297 35.9568L62.3295 35.9546C61.7918 28.5782 61.4489 25.2111 60.4879 17.6078L60.4878 17.6075C60.2402 15.656 58.5685 14.187 56.2473 14.187H11.834C9.55558 14.187 7.84662 15.503 7.59361 17.4756L7.5936 17.4756L7.59301 17.4804C6.71349 24.7063 6.30568 28.7923 5.78432 36.0041C5.62365 38.2265 7.28877 40.0966 9.57348 40.0966H58.7193C59.7116 40.0966 60.6664 39.7083 61.3511 38.975C62.0417 38.2354 62.4159 37.1903 62.3297 35.9568ZM10.9233 61.2669C13.8137 61.2669 16.1455 58.9145 16.1455 56.0178C16.1455 53.1228 13.8317 50.7687 10.9233 50.7687C8.01488 50.7687 5.70105 53.1228 5.70105 56.0178C5.70105 58.9145 8.03292 61.2669 10.9233 61.2669ZM57.093 61.2669C59.9653 61.2669 62.3152 58.9163 62.3152 56.0178C62.3152 53.121 59.9834 50.7687 57.093 50.7687C54.2026 50.7687 51.8708 53.121 51.8708 56.0178C51.8708 58.9163 54.2207 61.2669 57.093 61.2669ZM47.9859 10.9261C49.5265 10.9261 50.7687 9.66992 50.7687 8.13108C50.7687 6.59225 49.5265 5.33604 47.9859 5.33604H20.2093C18.6687 5.33604 17.4264 6.59225 17.4264 8.13108C17.4264 9.66992 18.6687 10.9261 20.2093 10.9261H47.9859Z" stroke="black" stroke-width="1.5"/>
</svg>
