<svg width="20" height="20" viewBox="0 0 20 20" fill="none" xmlns="http://www.w3.org/2000/svg">
<path fill-rule="evenodd" clip-rule="evenodd" d="M12.3463 2.93458C10.9799 3.04162 9.63799 3.62174 8.74199 4.51767C7.8461 5.4136 7.26598 6.75553 7.15894 8.12198C7.05204 9.48657 7.4205 10.796 8.31247 11.688C9.20449 12.58 10.5139 12.9484 11.8785 12.8415C13.2449 12.7345 14.5868 12.1543 15.4828 11.2584C16.3787 10.3625 16.9588 9.02057 17.0659 7.65411C17.1727 6.28952 16.8043 4.98009 15.9123 4.08811C15.0204 3.19613 13.7109 2.82768 12.3463 2.93458ZM12.2487 1.6884C13.8782 1.56075 15.5827 1.99072 16.7962 3.20423C18.0097 4.41774 18.4397 6.1222 18.3121 7.75174C18.1846 9.37941 17.4972 11.0118 16.3667 12.1423C15.2362 13.2728 13.6037 13.9602 11.9761 14.0877C11.4967 14.1252 11.011 14.1146 10.5331 14.0498L7.3715 15.5982C7.26874 15.6485 7.25495 15.656 7.24385 15.6629C7.22868 15.6722 7.21413 15.6827 7.2003 15.694C7.1902 15.7022 7.17862 15.7129 7.09771 15.7937L5.46409 17.4274C5.27397 17.6176 5.10545 17.7861 4.9543 17.9144C4.79326 18.0511 4.61133 18.1785 4.38392 18.2523C4.05136 18.3604 3.69313 18.3604 3.36057 18.2523C3.1418 18.1812 2.9651 18.0607 2.80862 17.9299C2.7663 17.9043 2.72638 17.8732 2.68985 17.8367L2.59029 17.7372L2.574 17.7209C2.52585 17.6727 2.4791 17.626 2.43404 17.5806C2.38444 17.5314 2.33325 17.4802 2.28041 17.4274L2.16451 17.3115C2.1277 17.2747 2.09645 17.2344 2.07075 17.1918C1.94023 17.0355 1.81997 16.8591 1.74901 16.6407C1.64095 16.3081 1.64095 15.9499 1.74901 15.6173C1.8229 15.3899 1.95025 15.208 2.08695 15.0469C2.21527 14.8957 2.38382 14.7272 2.57396 14.5372L4.20757 12.9035C4.28848 12.8226 4.29908 12.811 4.30735 12.8009C4.31867 12.7871 4.32907 12.7726 4.33847 12.7574C4.34535 12.7462 4.35287 12.7325 4.4032 12.6297L5.95088 9.46941C5.88594 8.99091 5.87515 8.50441 5.91275 8.02436C6.04026 6.39669 6.72767 4.76426 7.85815 3.63379C8.98865 2.50331 10.6211 1.81591 12.2487 1.6884ZM6.4777 11.2358L5.67023 12.8846L7.11672 14.3311L8.76599 13.5234C8.28045 13.2857 7.82794 12.9712 7.42859 12.5719C7.0296 12.1729 6.7153 11.7208 6.4777 11.2358ZM6.0708 15.0529L4.94836 13.9305L3.47417 15.4047C3.26276 15.6161 3.13114 15.7484 3.03988 15.8559C2.95336 15.9578 2.94042 15.9956 2.93783 16.0036C2.91135 16.0851 2.91135 16.1729 2.93783 16.2544C2.94042 16.2623 2.95336 16.3002 3.03988 16.4021C3.10614 16.4801 3.19367 16.5712 3.31756 16.6962C3.43614 16.8136 3.52375 16.8975 3.59916 16.9615C3.70108 17.048 3.73888 17.0609 3.74685 17.0635C3.82835 17.09 3.91615 17.09 3.99765 17.0635C4.00561 17.0609 4.04341 17.048 4.14533 16.9615C4.25282 16.8702 4.38514 16.7386 4.59655 16.5272L6.0708 15.0529Z" fill="white"/>
</svg>
