<svg width="22" height="22" viewBox="0 0 22 22" fill="none" xmlns="http://www.w3.org/2000/svg">
<path d="M1 7.66667H21M11 17.6667V11M14.3333 14.3344L7.66667 14.3333M5.44444 1V3.22222M16.5556 1V3.22222M4.55556 21H17.4444C18.689 21 19.3113 21 19.7867 20.7578C20.2048 20.5448 20.5448 20.2048 20.7578 19.7867C21 19.3113 21 18.689 21 17.4444V6.77778C21 5.53321 21 4.91093 20.7578 4.43558C20.5448 4.01743 20.2048 3.67748 19.7867 3.46443C19.3113 3.22222 18.689 3.22222 17.4444 3.22222H4.55556C3.311 3.22222 2.68871 3.22222 2.21336 3.46443C1.79521 3.67748 1.45526 4.01743 1.24221 4.43558C1 4.91093 1 5.53321 1 6.77778V17.4444C1 18.689 1 19.3113 1.24221 19.7867C1.45526 20.2048 1.79521 20.5448 2.21336 20.7578C2.68871 21 3.31099 21 4.55556 21Z" stroke="#3F3F8B" stroke-width="2" stroke-linecap="round" stroke-linejoin="round"/>
</svg>
