<svg width="30" height="30" viewBox="0 0 30 30" fill="none" xmlns="http://www.w3.org/2000/svg">
<path id="Vector" opacity="0.6" d="M15 30C6.735 30 0 23.265 0 15C0 6.735 6.735 0 15 0C23.265 0 30 6.735 30 15C30 23.265 23.265 30 15 30ZM21.09 12.315C20.865 12.09 20.58 11.985 20.295 11.985C20.01 11.985 19.725 12.09 19.5 12.315L15 16.815L10.5 12.315C10.065 11.88 9.345 11.88 8.91 12.315C8.475 12.75 8.475 13.47 8.91 13.905L14.205 19.2C14.64 19.635 15.36 19.635 15.795 19.2L21.09 13.905C21.525 13.455 21.525 12.75 21.09 12.315Z" fill="#323254"/>
</svg>
