<svg width="30" height="31" viewBox="0 0 30 31" fill="none" xmlns="http://www.w3.org/2000/svg">
<path id="Vector" opacity="0.6" d="M15 0.591797C6.735 0.591797 0 7.3268 0 15.5918C0 23.8568 6.735 30.5918 15 30.5918C23.265 30.5918 30 23.8568 30 15.5918C30 7.3268 23.265 0.591797 15 0.591797ZM21.09 18.2768C20.865 18.5018 20.58 18.6068 20.295 18.6068C20.01 18.6068 19.725 18.5018 19.5 18.2768L15 13.7768L10.5 18.2768C10.065 18.7118 9.345 18.7118 8.91 18.2768C8.475 17.8418 8.475 17.1218 8.91 16.6868L14.205 11.3918C14.64 10.9568 15.36 10.9568 15.795 11.3918L21.09 16.6868C21.525 17.1368 21.525 17.8418 21.09 18.2768Z" fill="#323254"/>
</svg>
