<svg width="41" height="42" viewBox="0 0 41 42" fill="none" xmlns="http://www.w3.org/2000/svg">
<path fill-rule="evenodd" clip-rule="evenodd" d="M9.36057 7.69321L33.8089 32.1415C39.5308 25.3233 39.1856 15.1412 32.7732 8.72886C26.3608 2.3165 16.1788 1.97129 9.36057 7.69321ZM31.6434 34.307L7.19506 9.85873C1.47319 16.6769 1.81834 26.859 8.2307 33.2714C14.6431 39.6837 24.8252 40.0289 31.6434 34.307ZM6.06519 6.56335C14.0384 -1.40986 26.9655 -1.40986 34.9387 6.56335C42.9119 14.5365 42.9119 27.4637 34.9387 35.4369C26.9656 43.41 14.0383 43.41 6.06519 35.4369C-1.90801 27.4637 -1.90794 14.5365 6.06519 6.56335Z" fill="#890606"/>
</svg>
