<svg width="30" height="30" viewBox="0 0 30 30" fill="none" xmlns="http://www.w3.org/2000/svg">
<g clip-path="url(#clip0_601_3763)">
<path d="M24.0736 21.3398V18.9875H22.2368V21.3398H20.002V23.1765H22.2368V25.5288H24.0736V23.1765H26.3085V21.3398H24.0736Z" fill="#5F249F"/>
<path d="M28.9095 18.5969C28.2838 17.6219 27.427 16.8232 26.4175 16.2678V2.1481H20.1577V0.765289H18.321V2.1481H8.09648V0.765289H6.25975V2.1481H0V25.249H16.8298C17.1788 25.9934 17.661 26.6777 18.2471 27.2536C19.5474 28.5312 21.2671 29.2347 23.0895 29.2347C26.9 29.2347 30 26.1346 30 22.3242C30 20.9977 29.6229 19.7089 28.9095 18.5969ZM1.83674 3.98484H6.2598V5.78572H8.09654V3.98484H18.321V5.78572H20.1578V3.98484H24.5808V7.31015H1.83674V3.98484ZM16.6903 19.7184C16.6828 19.7367 16.6753 19.755 16.668 19.7733H14.1053V17.256H16.6903V19.7184ZM14.1052 15.4193V12.902H16.6903V15.4193H14.1052ZM3.41426 11.0653V21.6101H16.2163C16.1918 21.8462 16.179 22.0846 16.179 22.3243C16.179 22.57 16.1924 22.8197 16.2188 23.0664C16.2255 23.1289 16.2332 23.1913 16.2417 23.2537C16.2445 23.2745 16.2478 23.2952 16.2508 23.316C16.2554 23.3481 16.2598 23.3802 16.2649 23.4122H1.83674V9.14689H24.5808V15.5749C24.5696 15.5724 24.5585 15.5703 24.5472 15.5679C24.5153 15.5611 24.4834 15.5546 24.4514 15.5483C24.4237 15.5427 24.396 15.5372 24.3682 15.532C24.336 15.526 24.3037 15.5204 24.2714 15.5147C24.2437 15.5099 24.2159 15.5051 24.1881 15.5007C24.1555 15.4955 24.1229 15.4908 24.0902 15.486C24.0626 15.482 24.0349 15.4779 24.0071 15.4742C23.9739 15.4698 23.9406 15.4659 23.9073 15.462C23.88 15.4588 23.8527 15.4554 23.8253 15.4525C23.791 15.4489 23.7566 15.4459 23.7221 15.4428C23.6957 15.4404 23.6691 15.4377 23.6426 15.4356C23.6063 15.4328 23.5699 15.4306 23.5335 15.4283C23.5087 15.4267 23.4839 15.4248 23.459 15.4236C23.4185 15.4214 23.3777 15.4201 23.3371 15.4186C23.3163 15.4179 23.2955 15.4168 23.2746 15.4162C23.213 15.4147 23.1513 15.4138 23.0893 15.4138C23.0458 15.4138 23.0024 15.4145 22.959 15.4153V11.0653H3.41426ZM9.6835 15.4193V12.902H12.2685V15.4193H9.6835ZM12.2685 17.256V19.7733H9.6835V17.256H12.2685ZM5.251 15.4193V12.902H7.84682V15.4193H5.251ZM7.84676 17.256V19.7733H5.251V17.256H7.84676ZM21.1225 12.902V15.4194H18.527V12.902H21.1225ZM23.0895 27.398C21.7516 27.398 20.4891 26.8814 19.5345 25.9434C18.9885 25.407 18.5646 24.7429 18.3086 24.023C18.1754 23.6484 18.0868 23.2608 18.0452 22.871C18.0257 22.6888 18.0158 22.5049 18.0158 22.3242C18.0158 20.864 18.646 19.4735 19.7461 18.5082L19.7794 18.4791C20.1971 18.1191 20.6671 17.8313 21.1762 17.6238C21.7842 17.376 22.4279 17.2504 23.0895 17.2504C23.3555 17.2504 23.6183 17.2706 23.8768 17.3108C24.3077 17.3778 24.7267 17.5003 25.1295 17.6774L25.1303 17.6778C25.1825 17.7008 25.2345 17.7243 25.2857 17.7489C27.0338 18.5898 28.1633 20.3857 28.1633 22.3242C28.1633 25.1219 25.8872 27.398 23.0895 27.398Z" fill="#5F249F"/>
</g>
<defs>
<clipPath id="clip0_601_3763">
<rect width="30" height="30" fill="white"/>
</clipPath>
</defs>
</svg>
