<svg width="1034" height="223" viewBox="0 0 1034 223" fill="none" xmlns="http://www.w3.org/2000/svg">
<path d="M986.67 193.094L1022.55 219.934H3.0661L31.6816 206.727L61.5784 193.094L100.444 151.342L149.987 142.396L220.885 70.3959H247.792L259.751 80.6207L274.7 103.201L300.325 142.396H398.131L408.381 116.834L432.298 62.7272L457.924 25.2362H509.176L546.76 37.1652L567.688 62.7272L599.293 94.2538V142.396H660.795H794.476L891.854 151.342L986.67 193.094Z" fill="#555582"/>
<path d="M56.0247 214.787C56.0247 216.59 55.4789 217.589 53.4485 217.696C51.4933 217.81 49.5429 218.108 47.5901 218.137C42.4521 218.212 37.3094 218.2 32.1714 218.19C30.6771 218.19 29.1829 218.081 27.691 218.028C24.3336 217.902 20.9739 217.671 17.6165 217.698C15.465 217.665 13.3181 217.91 11.2291 218.425C7.93408 219.09 4.57202 219.362 1.21289 219.237C0.796997 219.183 0.389526 219.078 0 218.922C0.21875 218.569 0.470459 218.238 0.751953 217.933C1.39233 217.393 2.1106 216.942 2.73645 216.384C6.23071 213.3 9.91541 210.437 13.769 207.814C14.3681 207.383 14.8549 206.814 15.1882 206.156C15.792 204.991 16.6733 203.992 17.7547 203.248C20.622 201.173 23.6252 199.266 26.3325 196.999C29.6923 194.19 32.8822 191.182 35.9994 188.092C38.9734 185.152 41.8481 182.093 44.5894 178.933C47.1486 175.981 49.4943 172.842 51.9032 169.759C52.6454 168.809 53.2933 167.786 53.9798 166.79C54.3485 166.254 54.7269 165.723 55.0689 165.166C55.6463 164.218 56.2212 163.263 56.7549 162.289C57.9851 160.319 59.066 158.259 59.9885 156.128C60.54 154.76 61.2808 153.475 62.1888 152.313C64.0349 149.741 65.7596 147.085 67.511 144.445C68.6439 142.748 69.6531 140.952 70.866 139.309C71.7211 138.326 72.3496 137.168 72.7072 135.916C72.9874 134.724 73.6995 133.677 74.7062 132.978C78.2206 130.484 81.1071 127.208 83.1383 123.409C83.336 123.093 83.5531 122.79 83.7884 122.5C86.6994 118.169 90.622 114.599 93.3535 110.12C93.5607 109.809 93.8051 109.525 94.0813 109.274C95.5368 107.839 97.0408 106.443 98.4672 104.974C102.036 101.295 105.531 97.5455 109.141 93.9075C111.242 91.7891 113.675 89.9858 115.659 87.7729C119.298 83.7204 123.982 80.8943 127.762 77.0236C128.544 76.3592 129.409 75.7994 130.335 75.3585C131.548 74.6556 132.812 74.0545 133.974 73.3056C135.946 71.9052 138.06 70.7159 140.281 69.7572C141.756 69.1997 143.171 68.4775 144.648 67.9539C147.899 66.8051 150.802 64.8612 154.133 63.899C154.478 63.7602 154.81 63.5915 155.125 63.3948C157.376 62.2775 159.625 61.148 161.896 60.0646C162.41 59.8403 162.957 59.6988 163.516 59.6453C165.741 59.326 167.9 58.6568 169.915 57.6627C171.358 57.0021 172.892 56.5625 174.466 56.3587C175.562 56.1671 176.639 55.8801 177.685 55.5007C179.541 54.8899 181.37 54.1919 183.228 53.5932C183.771 53.4493 184.332 53.3912 184.893 53.4211C190.496 53.4429 196.1 53.4575 201.704 53.5399C202.817 53.6154 203.924 53.7774 205.012 54.0246C206.759 54.3252 208.501 54.6693 210.247 54.965C213.556 55.5249 216.872 56.046 220.176 56.6301C220.708 56.7943 221.222 57.0094 221.712 57.2724C222.277 57.5852 222.893 57.7961 223.531 57.8954C226.151 57.8638 228.276 59.5338 230.772 59.8804C232.609 61.2813 234.998 61.2716 236.985 62.3405C238.373 63.0984 239.849 63.6821 241.381 64.0783C245.29 65.0358 248.964 66.7756 252.18 69.1925C252.614 69.5439 253.087 69.844 253.59 70.0868C256.259 70.9167 258.665 72.429 260.569 74.4738C260.978 74.853 261.453 75.1545 261.971 75.3633C265.586 77.2928 269.096 79.4134 272.485 81.716C273.346 82.2743 274.243 82.7747 275.17 83.2139C275.859 83.5008 276.524 83.8395 277.162 84.227C279.191 85.7036 281.442 86.849 283.83 87.6202C284.342 87.8273 284.775 88.1892 285.07 88.6552C285.696 89.5874 286.59 90.3082 287.634 90.7226C288.99 91.3407 290.261 92.1381 291.583 92.8337C293.73 93.9608 295.887 95.0708 298.043 96.1833C298.948 96.6487 299.843 97.1529 300.782 97.5431C302.336 98.5729 304.047 99.3417 305.85 99.819C306.877 99.8891 307.866 100.233 308.715 100.815C309.193 101.104 309.723 101.299 310.274 101.39C312.45 102.202 314.709 102.771 317.011 103.086C317.293 103.105 317.565 103.193 317.804 103.343C319.823 104.349 322.094 104.735 324.332 104.451C324.974 104.333 325.635 104.368 326.261 104.553C327.524 105.172 328.954 105.369 330.339 105.115C330.711 105.103 331.083 105.157 331.437 105.275C332.803 105.597 334.176 105.886 335.518 106.278C337.144 106.723 338.851 106.789 340.508 106.472C342.157 106.208 343.841 106.099 345.512 105.975C346.349 105.915 347.21 106.058 348.03 105.958C349.385 105.949 350.718 105.616 351.918 104.987C353.118 104.358 354.149 103.451 354.927 102.342C355.557 101.402 356.461 100.678 357.518 100.27C359.301 99.4918 361.156 98.8907 362.951 98.1417C366.024 97.04 368.921 95.4986 371.551 93.5657C372.855 92.6428 373.802 91.3015 374.236 89.7653C374.588 88.3091 375.463 87.033 376.696 86.1805C378.631 84.6888 380.082 82.6592 380.866 80.3466C381.045 79.8173 381.29 79.3124 381.594 78.8438C383.465 75.8399 384.904 72.5887 385.871 69.1852C386.114 68.5771 386.183 67.9131 386.07 67.268C385.099 63.9523 387.644 61.451 388.01 58.4455C388.061 58.0577 388.542 57.6918 388.888 57.3815C390.279 55.9891 391.346 54.3075 392.013 52.4564C392.646 50.8005 393.621 49.2959 394.873 48.0404C395.205 47.7804 395.455 47.4298 395.592 47.0311C395.729 46.6323 395.747 46.2025 395.644 45.7936C395.533 45.3392 395.52 44.8664 395.606 44.4066C395.692 43.9468 395.876 43.5107 396.144 43.1274C397.236 41.3944 398.245 39.6033 399.453 37.9552C400.352 36.8828 400.977 35.6087 401.275 34.242C401.357 33.4981 401.622 32.7861 402.046 32.1697C403.838 29.9012 405.757 27.7365 407.795 25.6861C408.892 24.8511 409.871 23.8729 410.707 22.7776C411.159 22.1829 411.693 21.6535 412.291 21.2046C413.309 20.3869 414.276 19.5062 415.185 18.5676C416.829 16.7743 418.787 15.2958 420.963 14.2048C423.66 12.7239 426.38 11.2575 429.211 10.0456C432.185 8.76832 435.171 7.51525 438.237 6.43668C440.249 5.70274 442.356 5.26195 444.494 5.12786C445.706 5.08997 446.898 4.81148 448.001 4.30862C450.781 2.93825 453.864 2.30001 456.96 2.45446C458.368 2.57379 459.777 2.23359 460.975 1.48495C461.839 0.909508 462.872 0.640657 463.908 0.721474C466.898 0.674213 469.885 0.965303 472.81 1.58918C474.441 2.07935 476.174 2.12288 477.827 1.71521C478.713 1.41114 479.652 1.29336 480.585 1.36928C481.519 1.44519 482.426 1.71315 483.251 2.15633C483.581 2.33456 483.945 2.44034 484.318 2.46658C487.664 2.79378 490.766 4.4686 494.211 4.25046C494.399 4.23508 494.588 4.26935 494.759 4.34983C496.714 5.2374 498.774 5.87033 500.889 6.23308C502.151 6.54332 503.429 6.78569 504.693 7.07897C505.517 7.20566 506.324 7.42017 507.102 7.71884C509.285 8.76347 511.42 9.92446 513.589 11.0079C514.088 11.2589 514.619 11.44 515.168 11.5459C516.472 11.6759 517.733 12.0798 518.87 12.7312C519.266 12.985 519.728 13.1188 520.199 13.1165C522.538 13.0923 524.374 14.675 526.586 15.0822C527.125 15.1816 527.545 15.9014 528.02 16.3329C528.617 17.0356 529.311 17.6493 530.082 18.1555C532.583 19.4213 534.932 20.9662 537.085 22.7606C538.711 24.0096 540.709 24.6763 542.759 24.6536C543.126 24.6657 543.487 24.6851 544.011 24.7093C544.464 25.7102 545.034 26.654 545.709 27.5209C546.527 28.3644 547.791 28.774 548.62 29.6029C550.665 31.643 553.025 33.3419 555.609 34.6346C556.095 34.9066 556.543 35.2433 556.938 35.6356C558.326 36.8814 559.621 38.2387 561.079 39.3924C564.371 41.9931 567.748 44.4823 571.079 47.0491C573.861 49.3871 576.814 51.5138 579.914 53.4114C580.399 53.6978 580.808 54.0969 581.107 54.5748C582.174 56.1284 583.731 57.2803 585.529 57.8469C586.756 58.3172 587.751 59.2454 588.304 60.4354C589.613 62.8242 591.507 64.8423 593.809 66.3009C595.612 67.4541 597.183 68.9338 598.442 70.6637C598.891 71.3802 599.485 71.9945 600.187 72.4663C600.888 72.9382 601.682 73.2572 602.515 73.4025C604.007 73.6178 605.359 74.3989 606.29 75.5839C607.35 76.7635 608.558 77.8013 609.885 78.6717C610.767 79.1949 611.479 79.9617 611.935 80.8798C612.805 82.7591 614.24 84.32 616.042 85.3443C618.539 86.9871 620.827 88.9284 622.853 91.125C623.571 91.9942 624.506 92.6582 625.563 93.0494C626.011 93.1802 626.426 93.4047 626.781 93.7081C627.136 94.0115 627.422 94.3868 627.62 94.8091C627.892 95.3641 628.365 96.084 628.881 96.2173C630.798 96.8777 632.489 98.0667 633.757 99.6469C635.121 101.043 636.668 102.257 638.151 103.525C638.951 104.303 639.819 105.009 640.744 105.634C642.59 106.717 644.533 107.633 646.418 108.649C646.895 108.938 647.349 109.262 647.779 109.618C650.379 111.586 653.009 113.52 655.558 115.552C656.121 116.047 656.782 116.417 657.498 116.639C658.215 116.861 658.97 116.929 659.714 116.839C660.602 116.76 661.494 116.931 662.29 117.331C663.086 117.732 663.754 118.347 664.219 119.107C664.99 120.038 665.725 121.003 666.53 121.904C666.878 122.333 667.321 122.676 667.823 122.905C670.213 123.951 672.51 125.198 674.689 126.633C676.384 127.604 678.157 128.434 679.989 129.115C681.845 129.73 683.654 130.476 685.404 131.347C687.623 132.549 690.042 133.34 692.543 133.684C693.561 133.816 694.568 134.018 695.558 134.29C697.71 134.935 699.946 135.253 702.193 135.235C704.063 135.218 705.936 135.155 707.796 135.276C711.622 135.167 715.399 134.39 718.955 132.978C719.91 132.622 720.916 132.42 721.934 132.38C723.622 132.554 725.317 132.124 726.718 131.168C727.268 130.812 727.886 130.574 728.532 130.47C730.357 130.047 732.09 129.299 733.649 128.262C734.271 127.848 734.935 127.5 735.63 127.224C737.557 126.502 739.298 125.359 740.725 123.877C741.899 122.535 743.423 121.545 745.128 121.017C745.91 120.733 746.602 120.244 747.131 119.602C747.384 119.27 747.704 118.994 748.069 118.791C748.435 118.589 748.838 118.465 749.254 118.426C749.864 118.387 750.453 118.191 750.963 117.855C751.474 117.52 751.888 117.058 752.165 116.514C752.491 115.953 752.964 115.492 753.533 115.181C754.989 114.521 756.202 113.46 757.553 112.694C760.044 111.209 762.157 109.166 763.724 106.727C764.102 106.085 764.639 105.552 765.284 105.18C766.624 104.507 767.772 103.506 768.622 102.272C770.245 100.224 771.897 98.1951 773.415 96.0694C774.233 94.9356 775.241 93.9516 776.394 93.1609C778.529 91.6582 780.606 90.0658 782.667 88.4637C785.387 86.3526 788.07 84.1955 790.775 82.065C791.077 81.8457 791.392 81.6426 791.716 81.4566C792.977 80.6616 794.263 79.9079 795.495 79.0692C798.538 77.0806 801.736 75.3419 805.06 73.8703C806.19 73.4848 807.186 72.7842 807.93 71.8513C808.272 71.2805 808.789 70.8355 809.405 70.583C810.02 70.3305 810.701 70.2839 811.346 70.4504C813.927 70.8883 816.565 70.8826 819.145 70.4334C820.547 70.3297 821.865 69.7278 822.861 68.7368C824.559 67.1395 824.865 67.1807 827 68.4581C827.157 68.5526 827.313 68.6544 827.485 68.7513C828.115 69.236 828.838 69.5874 829.609 69.7841C830.379 69.9807 831.182 70.0186 831.968 69.8953C832.385 69.8031 832.82 69.8307 833.222 69.9748C833.624 70.1189 833.977 70.3737 834.241 70.7097C834.595 71.1467 835.048 71.4934 835.563 71.7213C836.077 71.9493 836.638 72.052 837.2 72.021C837.762 72.0156 838.316 72.1475 838.815 72.4052C839.314 72.6629 839.742 73.0385 840.063 73.4995C840.47 74.1198 841.042 74.6143 841.715 74.9271C843.037 75.3712 844.324 75.9116 845.567 76.5437C846.191 76.6926 846.834 76.7474 847.474 76.7061C848.017 76.7546 848.687 76.6552 849.075 76.9315C850.104 77.7433 851.351 78.231 852.658 78.3324C853.109 78.4417 853.532 78.6467 853.897 78.9335C856.723 80.7345 859.757 82.1849 862.934 83.2526C863.637 83.5074 864.283 83.8996 864.833 84.4063C866.706 85.9454 868.518 87.5572 870.386 89.0987C871.752 90.2258 873.168 91.2801 874.565 92.3756C875.74 93.2918 876.991 94.1232 878.085 95.1314C879.096 96.0952 880.409 96.6793 881.802 96.7844C882.93 96.8107 884.024 97.1734 884.944 97.8261C885.864 98.4787 886.567 99.3914 886.964 100.447C887.146 100.976 887.438 101.462 887.821 101.871C888.204 102.279 888.669 102.603 889.186 102.82C890.642 103.459 892.048 104.177 893.453 104.906C893.937 105.175 894.386 105.5 894.792 105.876C896.89 107.701 898.974 109.546 901.068 111.378C901.275 111.568 901.505 111.731 901.754 111.863C903.496 112.721 905.245 113.559 906.963 114.398C907.46 115.84 908.316 117.133 909.449 118.155C910.89 119.42 910.875 119.437 912.908 119.068C914.422 121.851 914.497 121.914 917.731 123.295C918.803 123.597 919.819 124.07 920.739 124.696C921.427 125.565 921.968 126.54 922.34 127.583C922.55 128.102 922.798 128.605 923.082 129.088C924.47 131.008 925.923 132.843 928.705 132.518C929.365 132.472 930.022 132.639 930.579 132.994C931.136 133.35 931.563 133.876 931.798 134.493C932.015 134.907 932.167 135.352 932.249 135.812C932.567 137.097 933.344 138.221 934.433 138.975C935.015 139.441 935.625 139.873 936.259 140.267C937.382 140.942 938.377 141.808 939.2 142.826C940.682 144.529 942.77 145.587 945.022 145.776C945.713 145.802 946.391 145.977 947.009 146.288C947.627 146.599 948.171 147.039 948.604 147.579C949.267 148.354 949.882 149.168 950.446 150.017C950.641 150.441 950.943 150.806 951.323 151.078C951.702 151.349 952.145 151.517 952.61 151.566C954.64 151.937 956.524 152.873 958.046 154.266C958.64 154.715 959.193 155.221 959.756 155.72C960.826 156.7 962.083 157.455 963.451 157.938C964.819 158.422 966.271 158.624 967.72 158.534C968.363 158.408 969.03 158.502 969.614 158.8C970.198 159.098 970.664 159.583 970.939 160.178C971.485 161.154 972.107 162.086 972.8 162.965C973.115 163.426 973.491 163.841 973.918 164.201C975.012 165.074 976.145 165.898 977.278 166.719C978.027 167.265 978.491 167.088 978.947 166.104C979.054 165.881 979.146 165.646 979.337 165.2C980.128 166.169 981.499 166.169 981.955 167.587C981.654 168.21 981.298 168.94 980.965 169.63C981.229 170.662 981.854 171.566 982.726 172.178C984.344 173.065 985.938 173.995 987.51 174.97C988.115 175.398 988.683 175.875 989.208 176.397C989.606 176.749 989.989 177.125 990.394 177.498L992.985 175.903C994.213 177.289 995.491 178.518 996.515 179.936C998.304 182.439 1000.31 184.777 1002.52 186.921C1006.67 190.953 1010.4 195.398 1013.64 200.187C1014.1 201.057 1014.74 201.82 1015.52 202.426C1016.29 203.032 1017.19 203.467 1018.14 203.703C1018.56 203.799 1018.94 204 1019.25 204.287C1019.56 204.573 1019.79 204.936 1019.92 205.339C1020.11 205.963 1020.45 206.53 1020.91 206.985C1022.12 208.016 1023.14 209.236 1023.95 210.597C1025.2 212.194 1026.34 213.89 1027.44 215.597C1027.65 215.959 1027.93 216.274 1028.27 216.521C1028.61 216.769 1028.99 216.943 1029.4 217.034C1029.95 217.156 1030.47 217.39 1030.93 217.721C1031.38 218.051 1031.77 218.472 1032.05 218.956C1032.54 219.712 1033.57 220.355 1033.2 221.368C1032.75 222.58 1031.46 222.265 1030.5 222.352C1027.52 222.626 1024.54 222.81 1021.56 222.999C1021 223.006 1020.44 222.976 1019.89 222.909C1018.21 222.788 1016.54 222.611 1014.86 222.553C1010.66 222.412 1006.45 222.332 1002.24 222.209C1001.5 222.208 1000.75 222.131 1000.02 221.981C998.01 221.552 995.953 221.37 993.897 221.44C992.214 221.455 990.528 221.501 988.849 221.421C987.17 221.341 985.499 221.154 983.833 220.936C983.451 220.922 983.09 220.758 982.828 220.48C982.566 220.202 982.424 219.832 982.433 219.451C982.368 218.8 982.342 218.146 982.355 217.492C982.355 215.253 982.355 213.013 982.355 210.771C982.369 210.118 982.332 209.465 982.244 208.818C982.205 208.345 981.996 207.903 981.656 207.573C981.316 207.242 980.869 207.046 980.395 207.019C979.745 206.954 979.091 206.931 978.437 206.949C975.261 206.939 972.084 206.939 968.906 206.949C961.432 206.949 953.956 206.988 946.479 206.949C943.644 206.937 943.197 206.445 943.132 203.708C943.12 203.148 943.154 202.586 943.154 202.029C943.154 199.973 943.18 197.908 943.125 195.867C943.117 195.028 942.981 194.196 942.722 193.398C942.539 192.815 942.162 192.312 941.654 191.974C941.145 191.636 940.536 191.482 939.927 191.539C935.352 191.655 930.772 191.672 926.195 191.713C925.354 191.733 924.512 191.705 923.674 191.628C923.461 191.636 923.249 191.6 923.05 191.522C922.852 191.445 922.672 191.327 922.521 191.177C922.369 191.026 922.251 190.847 922.172 190.649C922.094 190.451 922.057 190.239 922.063 190.026C921.993 189.299 922.022 188.536 922.022 187.791C922.022 185.082 922.022 182.374 922.022 179.667C922.028 179.014 921.987 178.361 921.901 177.714C921.862 177.338 921.697 176.987 921.433 176.717C921.168 176.447 920.82 176.275 920.445 176.228C920.079 176.157 919.705 176.124 919.332 176.131C918.11 176.216 916.895 175.883 915.887 175.186C915.489 174.942 915.068 174.741 914.628 174.584C911.717 173.329 908.806 172.093 905.895 170.823C903.676 169.853 901.473 168.847 899.27 167.842C896.648 166.642 894.072 165.333 891.411 164.235C890.131 163.649 888.74 163.344 887.332 163.341C885.925 163.338 884.533 163.636 883.25 164.216C880.725 165.379 878.219 166.586 875.679 167.713C874.435 168.105 873.261 168.692 872.2 169.451C871.725 169.743 871.203 169.95 870.657 170.064C869.961 170.326 869.25 170.549 868.564 170.845C865.41 172.207 862.223 173.557 859.079 174.965C857.665 175.681 856.118 176.094 854.535 176.177C852.781 176.208 852.008 177.069 851.867 178.792C851.777 179.905 851.828 181.032 851.828 182.149C851.828 184.483 851.889 186.82 851.804 189.151C851.738 190.95 851.156 191.575 849.456 191.648C847.498 191.737 845.531 191.696 843.571 191.606C842.394 191.553 841.919 191.032 841.826 189.823C841.734 188.613 841.763 187.399 841.763 186.187C841.763 178.16 841.78 170.13 841.763 162.1C841.76 161.168 841.664 160.239 841.477 159.327C841.418 158.857 841.187 158.426 840.829 158.117C840.47 157.807 840.01 157.641 839.536 157.65C838.881 157.63 838.229 157.628 837.574 157.625L800.286 157.565C799.633 157.547 798.98 157.563 798.329 157.613C797.758 157.598 797.202 157.796 796.769 158.168C796.337 158.541 796.059 159.061 795.99 159.627C795.838 160.546 795.766 161.476 795.774 162.408C795.723 163.806 795.774 165.209 795.677 166.603C795.695 166.818 795.666 167.034 795.591 167.236C795.516 167.439 795.398 167.622 795.244 167.773C795.09 167.924 794.905 168.04 794.702 168.112C794.498 168.183 794.281 168.21 794.066 168.188C791.827 168.246 789.584 168.234 787.347 168.14C787.132 168.154 786.917 168.123 786.715 168.048C786.513 167.974 786.329 167.859 786.175 167.709C786.02 167.56 785.899 167.379 785.818 167.18C785.738 166.981 785.7 166.767 785.707 166.552C785.605 165.44 785.651 164.315 785.627 163.195C785.656 162.171 785.628 161.146 785.542 160.124C785.499 159.461 785.21 158.837 784.731 158.376C784.251 157.914 783.617 157.648 782.951 157.63C782.486 157.589 782.018 157.577 781.552 157.594L743.985 157.628C743.427 157.628 742.862 157.674 742.304 157.628C739.798 157.446 738.488 158.789 738.774 161.407C738.903 162.8 738.961 164.198 738.947 165.597C738.968 169.703 738.947 173.804 738.947 177.905C738.947 178.281 738.947 178.654 738.91 179.025C738.702 181.887 738.381 182.219 735.543 182.222C727.504 182.222 719.466 182.212 711.43 182.193C710.871 182.196 710.312 182.155 709.759 182.069C709.43 182.027 709.125 181.877 708.891 181.642C708.657 181.408 708.508 181.103 708.466 180.775C708.369 180.225 708.32 179.668 708.318 179.11C708.303 176.4 708.318 173.695 708.303 170.99C708.326 170.15 708.298 169.309 708.219 168.472C708.156 167.719 707.823 167.014 707.282 166.486C706.74 165.959 706.026 165.645 705.271 165.602C704.058 165.478 702.845 165.512 701.632 165.401C700.703 165.346 699.781 165.194 698.884 164.945C696.118 163.638 693.228 162.611 690.258 161.879C689.898 161.773 689.561 161.6 689.265 161.37C688.409 160.883 687.445 160.62 686.46 160.603C685.475 160.587 684.502 160.818 683.63 161.276C682.798 161.681 681.908 161.953 680.991 162.08C679.785 162.194 678.61 162.523 677.52 163.05C676.769 163.424 675.94 163.613 675.101 163.6C674.263 163.587 673.44 163.372 672.702 162.975C670.429 161.935 667.969 161.297 665.596 160.476C664.797 160.244 664.018 159.948 663.268 159.589C662.534 159.167 661.7 158.954 660.854 158.971C660.008 158.988 659.183 159.235 658.467 159.686C657.923 160.046 657.339 160.344 656.728 160.573C653.681 161.694 650.693 162.967 647.774 164.388C646.159 165.09 644.421 165.469 642.66 165.503C623.878 165.503 605.095 165.512 586.313 165.529C585.755 165.529 585.19 165.529 584.632 165.483C582.749 165.343 582.315 164.952 582.182 163.147C582.099 162.029 582.111 160.905 582.111 159.785C582.111 139.618 582.107 119.45 582.099 99.2809C582.099 98.4423 582.099 97.5988 582.162 96.7626C582.284 95.3738 582.662 95.0345 584.091 94.8648C585.11 94.7845 586.124 94.6486 587.128 94.4576C587.309 94.4049 587.475 94.3096 587.612 94.1799C587.749 94.0501 587.853 93.8895 587.916 93.7115C587.978 93.5335 587.997 93.3432 587.971 93.1564C587.945 92.9695 587.875 92.7916 587.766 92.6374C587.511 92.246 587.182 91.909 586.796 91.6461C585.77 91.0038 584.724 90.3833 583.642 89.8452C576.796 86.452 569.944 83.0717 563.085 79.7043C562.168 79.2534 561.193 78.9165 560.286 78.4463C558.566 77.5568 556.89 76.5752 555.172 75.693C552.691 74.4229 550.175 73.2062 547.674 71.9628C546.895 71.6283 546.233 71.07 545.771 70.3589C545.31 69.6478 545.071 68.8158 545.083 67.9685C545.071 67.2219 545.028 66.4754 545.03 65.7289C545.042 64.2402 544.782 62.7619 544.263 61.3662C543.506 59.6533 543.104 57.8047 543.082 55.9321C543.186 53.8816 543.257 51.8287 543.279 49.7782C543.23 48.3796 543.589 46.9971 544.312 45.7984C544.63 45.4445 544.863 45.0225 544.993 44.5647C545.122 44.107 545.145 43.6256 545.06 43.1576C544.974 42.6895 544.783 42.2473 544.5 41.8648C544.216 41.4823 543.849 41.1697 543.427 40.9509C542.565 40.4001 541.875 39.6192 541.435 38.6968C541.27 38.2509 540.975 37.8644 540.589 37.5871C540.202 37.3098 539.742 37.1544 539.266 37.1408C537.325 37.102 535.351 37.1408 533.398 37.262C533.016 37.2721 532.649 37.4137 532.359 37.6627C532.069 37.9117 531.874 38.253 531.807 38.629C531.742 39.0897 531.564 39.5272 531.289 39.9021C531.013 40.2769 530.648 40.5774 530.228 40.7764C529.729 41.0434 529.32 41.4509 529.051 41.9481C528.783 42.4454 528.666 43.0105 528.716 43.5734C528.663 44.6039 528.93 45.6257 529.48 46.4989C529.914 47.0979 530.186 47.7981 530.271 48.5324C530.356 51.7051 530.334 54.8802 530.291 58.0529C530.266 58.6633 530.102 59.2599 529.811 59.7972C529.52 60.3345 529.11 60.7982 528.612 61.1529C528.328 61.4007 527.978 61.5604 527.604 61.6124C527.23 61.6645 526.85 61.6067 526.509 61.4461C526.084 61.2644 525.701 60.9856 525.296 60.7626C523.003 59.5096 520.784 58.0965 518.397 57.0519C514.623 55.4435 510.947 53.6169 507.386 51.5815C506.403 51.0337 505.298 50.7412 504.172 50.7306C503.046 50.72 501.936 50.9918 500.943 51.5209C500.344 51.7802 499.805 52.1632 499.22 52.4468C495.87 54.0682 492.503 55.6534 489.16 57.2943C486.322 58.6855 483.518 60.1446 480.67 61.5358C480.125 61.7322 479.562 61.8743 478.989 61.96C477.874 59.9865 477.254 57.7728 477.182 55.508C477.284 53.6441 477.274 51.773 477.276 49.9067C477.217 48.6892 477.49 47.4785 478.067 46.4044C478.382 45.8311 478.611 45.2144 478.746 44.5744C478.997 43.8126 478.963 42.9861 478.65 42.2475C478.338 41.5088 477.769 40.908 477.048 40.5558C476.676 40.3732 476.349 40.1094 476.092 39.7839C475.835 39.4584 475.655 39.0794 475.564 38.675C475.472 38.2092 475.214 37.7925 474.838 37.5026C474.462 37.2128 473.993 37.0695 473.519 37.0996C472.306 37.0584 471.093 37.0317 469.88 37.0608C467.641 37.1141 467.604 37.165 466.85 39.4991C466.747 39.7029 466.622 39.8947 466.477 40.0711C466.183 40.2254 465.879 40.3583 465.567 40.4686C465.02 40.6166 464.541 40.9477 464.209 41.4065C463.877 41.8654 463.714 42.4242 463.745 42.9893C463.596 44.2087 463.881 45.4418 464.55 46.4722C465.163 47.4174 465.451 48.5362 465.37 49.6594C465.37 51.9014 465.436 54.1434 465.37 56.3805C465.392 57.307 465.191 58.2253 464.786 59.0587C463.893 60.7102 463.501 62.5859 463.658 64.4565C463.677 65.2951 463.626 66.1531 463.718 66.9747C463.858 67.4927 463.889 68.034 463.809 68.5645C463.729 69.095 463.539 69.6031 463.252 70.0566C462.966 70.5102 462.588 70.8994 462.143 71.1995C461.697 71.4997 461.195 71.7043 460.667 71.8004C459.182 72.2197 457.935 73.4219 456.467 73.9672C454.729 74.6402 453.068 75.5009 451.516 76.534C451.135 76.802 450.719 77.0157 450.279 77.169C448.074 77.9247 445.946 78.8889 443.923 80.0484C441.449 81.3306 438.912 82.4843 436.44 83.7689C434.312 85.1141 432.024 86.1857 429.628 86.9585C429.455 87.0297 429.292 87.1226 429.143 87.2348C426.73 88.8234 424.17 90.178 421.499 91.2801C421.413 91.3121 421.331 91.3552 421.256 91.4085C420.896 91.6294 420.613 91.957 420.448 92.3457C420.282 92.7345 420.242 93.1651 420.332 93.5778C420.422 93.9479 420.644 94.2722 420.957 94.4897C421.27 94.7072 421.652 94.8027 422.03 94.7582C422.68 94.78 423.335 94.6685 423.986 94.6661C424.598 94.6133 425.208 94.8003 425.685 95.1879C426.163 95.5754 426.471 96.1331 426.545 96.7432C426.629 97.2965 426.665 97.8561 426.652 98.4156C426.666 100.095 426.652 101.777 426.652 103.457C426.652 118.303 426.652 133.15 426.652 147.996C426.661 149.021 426.613 150.045 426.508 151.064C426.481 151.444 426.317 151.801 426.046 152.068C425.775 152.336 425.416 152.496 425.036 152.519C424.293 152.597 423.546 152.632 422.799 152.623C411.493 152.623 400.187 152.623 388.881 152.623C388.226 152.623 387.569 152.574 386.919 152.623C386.542 152.594 386.163 152.648 385.808 152.779C385.454 152.911 385.132 153.118 384.865 153.386C384.599 153.654 384.393 153.977 384.263 154.331C384.133 154.686 384.081 155.065 384.112 155.442C383.962 157.381 383.937 159.344 383.869 161.297C383.611 165.491 383.674 169.698 384.059 173.882C384.313 175.833 384.148 177.816 383.573 179.699C383.497 180.019 383.326 180.309 383.081 180.53C382.837 180.751 382.532 180.893 382.205 180.937C381.466 181.031 380.721 181.085 379.976 181.1C378.479 181.153 376.985 181.148 375.493 181.228C374.929 181.185 374.363 181.268 373.835 181.471C373.308 181.675 372.832 181.993 372.443 182.403C372.054 182.813 371.762 183.304 371.587 183.842C371.412 184.379 371.359 184.948 371.432 185.508C371.379 188.216 371.393 190.923 371.364 193.63C371.373 194.377 371.341 195.124 371.267 195.867C371.141 196.917 370.7 197.433 369.647 197.445C367.221 197.472 364.795 197.38 362.369 197.317C362.202 197.317 362.042 197.152 361.823 197.036C361.281 195.961 361.105 194.739 361.324 193.555C361.299 182.445 361.299 171.333 361.324 160.221C361.324 158.173 361.503 156.12 361.552 154.07C361.58 153.326 361.519 152.581 361.37 151.852C361.323 151.282 361.055 150.753 360.622 150.38C360.189 150.006 359.627 149.816 359.056 149.852C358.032 149.777 356.998 149.797 355.97 149.797H323.731C321.581 149.797 319.432 149.748 317.285 149.797C314.512 149.855 313.988 150.403 313.945 153.083C313.945 153.178 313.945 153.27 313.945 153.365V168.77C313.945 169.516 313.964 170.265 313.923 171.009C313.826 172.83 313.413 173.22 311.497 173.314C310.941 173.341 310.376 173.314 309.818 173.314C306.081 173.314 302.343 173.32 298.604 173.331H278.137C276.734 173.438 275.325 173.229 274.013 172.721C270.403 171.012 266.762 169.369 263.32 167.32C262.535 166.913 261.886 166.284 261.455 165.512C261.024 164.74 260.829 163.859 260.894 162.977C260.979 155.788 260.928 148.599 260.928 141.406C260.928 141.127 260.928 140.843 260.959 140.567C261.103 138.984 261.445 138.575 263.007 138.495C264.569 138.415 266.182 138.478 267.769 138.461C268.515 138.483 269.261 138.446 270.001 138.352C270.237 138.338 270.466 138.263 270.664 138.133C270.862 138.003 271.023 137.823 271.129 137.612C271.236 137.4 271.285 137.165 271.272 136.928C271.258 136.692 271.183 136.463 271.053 136.265C270.816 135.755 270.532 135.268 270.204 134.811C269.193 133.47 268.113 132.183 267.111 130.838C264.669 127.547 262.26 124.224 259.817 120.94C258.716 119.554 257.863 117.989 257.296 116.313C256.744 114.833 256.406 113.282 256.292 111.707C256.311 111.146 256.213 110.588 256.004 110.067C255.147 108.301 254.674 106.374 254.618 104.412C254.611 104.129 254.52 103.854 254.359 103.622C253.475 102.295 252.994 100.741 252.974 99.1476C252.881 98.5014 252.725 97.8658 252.508 97.2498C251.355 93.995 250.542 90.6299 250.082 87.2082C250.01 86.655 249.846 86.1177 249.597 85.6182C248.476 83.1557 248.488 80.3369 247.171 77.9301C247.03 77.4844 246.968 77.0179 246.987 76.551C246.952 76.1798 246.891 75.8113 246.807 75.4482C246.754 75.2199 246.644 75.0083 246.489 74.8322C246.334 74.6562 246.138 74.521 245.919 74.4388C245.699 74.3566 245.462 74.3298 245.23 74.3609C244.997 74.3919 244.776 74.4798 244.585 74.6168C244.136 74.873 243.757 75.2355 243.481 75.6726C243.205 76.1096 243.041 76.6077 243.003 77.123C242.935 78.4322 242.565 79.7079 241.922 80.8507C241.723 81.2731 241.585 81.7209 241.509 82.1813C240.723 84.3762 240.151 86.6416 239.799 88.946C239.681 89.4919 239.484 90.0177 239.214 90.5069C238.922 91.0899 238.698 91.7048 238.547 92.3393C238.411 93.7355 237.973 95.0854 237.261 96.2949C236.813 98.9399 236.117 101.537 235.18 104.051C235.013 104.679 234.894 105.323 234.68 105.934C233.863 108.3 232.863 110.614 232.221 113.026C231.368 116.467 229.747 119.671 227.478 122.396C227.086 122.796 226.741 123.24 226.452 123.72C224.543 127.131 222.318 130.357 219.808 133.354C219.199 134.175 218.682 135.06 218.267 135.993C218.149 136.172 218.076 136.378 218.056 136.591C218.036 136.804 218.069 137.02 218.152 137.217C218.235 137.415 218.366 137.589 218.532 137.725C218.699 137.86 218.896 137.952 219.107 137.993C220.093 138.254 221.105 138.41 222.124 138.461C223.427 138.553 224.742 138.461 226.042 138.572C227.214 138.667 227.641 139.164 227.798 140.366C227.861 140.826 227.823 141.299 227.878 141.762C228.019 144.554 228.007 147.352 227.844 150.143C227.891 154.436 227.844 158.733 227.907 163.026C227.983 163.819 227.817 164.617 227.43 165.314C227.042 166.011 226.453 166.575 225.739 166.93C224.308 167.604 222.921 168.369 221.588 169.221C220.219 170.167 218.718 170.909 217.134 171.421C213.229 172.723 209.915 175.217 206.046 176.633C203.642 177.512 201.437 179.005 199.052 180.067C195.135 181.806 191.273 183.671 187.466 185.663C185.894 186.476 184.141 186.877 182.372 186.829C175.924 186.807 169.476 186.829 163.028 186.829C162.468 186.829 161.905 186.829 161.347 186.781C159.822 186.65 159.322 186.255 159.118 184.791C159.002 183.677 158.945 182.558 158.946 181.439C158.895 179.759 158.921 178.075 158.805 176.402C158.812 175.925 158.63 175.465 158.299 175.121C157.968 174.777 157.514 174.577 157.037 174.565C156.48 174.491 155.919 174.459 155.358 174.468C152.649 174.455 149.94 174.45 147.231 174.454H89.7584C89.1997 174.424 88.6396 174.433 88.0822 174.48C87.7212 174.477 87.3637 174.55 87.0323 174.692C86.7009 174.835 86.4028 175.046 86.1572 175.31C85.9116 175.574 85.7238 175.887 85.6058 176.227C85.4879 176.568 85.4423 176.93 85.472 177.289C85.4162 178.031 85.4307 178.782 85.4307 179.526C85.4041 186.344 85.3895 193.16 85.3483 199.976C85.5277 201.105 85.3513 202.262 84.8437 203.287C83.5818 203.875 82.1771 204.088 80.7974 203.9C79.7712 203.875 78.7451 203.829 77.7214 203.849C75.8535 203.885 73.9905 204.002 72.1226 204.018C69.0418 204.048 65.9561 204.004 62.8729 204.031C61.4731 204.045 60.0638 204.089 58.6738 204.232C58.3193 204.218 57.9659 204.28 57.6372 204.413C57.3085 204.546 57.0118 204.748 56.7671 205.004C56.5223 205.261 56.3348 205.566 56.2173 205.901C56.0998 206.235 56.0547 206.591 56.0853 206.944C56.0319 207.594 56.0853 208.25 56.0853 208.905C56.0586 210.866 56.0344 212.824 56.0247 214.787Z" fill="#FFFDF9"/>
<path d="M225.436 134.909C225.098 134.069 225.948 133.53 226.46 133.014C229.36 129.514 232.079 125.861 234.607 122.071C235.788 120.085 243.623 93.7631 244.164 91.8754C244.285 91.4567 244.535 90.9629 245.284 91.2361C245.284 92.1336 253.284 120.737 253.521 121.883C253.659 122.443 253.93 122.96 254.31 123.387C255.416 124.698 260.06 131.043 260.829 131.91C261.702 132.896 263.655 134.149 263.684 134.919C263.714 135.688 262.459 135.603 262.023 135.603C260.334 135.603 258.634 135.435 256.957 135.581C255.924 135.702 254.881 135.48 253.98 134.947C253.08 134.415 252.371 133.601 251.958 132.625C251.615 131.991 250.789 130.143 250.556 130.266C250.215 129.827 249.554 128.604 249.26 128.26C248.034 126.794 246.843 125.315 245.596 123.881C245.412 123.592 245.145 123.368 244.831 123.241C244.518 123.113 244.174 123.088 243.846 123.169C242.481 123.715 242.689 124.009 241.692 125.443C240.643 127.656 238.856 128.702 237.947 130.569C237.43 131.625 234.337 135.463 231.928 135.538C230.516 135.583 229.102 135.538 227.688 135.558C226.86 135.551 225.843 135.914 225.436 134.909Z" fill="#D6A529"/>
<path d="M526.106 101.007C526.011 101.005 525.918 101.039 525.846 101.103C525.774 101.166 525.729 101.254 525.719 101.349C525.709 101.444 525.734 101.54 525.791 101.617C525.848 101.694 525.931 101.747 526.025 101.766C528.769 102.01 531.524 102.104 534.278 102.048C538.176 102.048 541.988 101.95 544.743 101.775C544.839 101.765 544.929 101.719 544.993 101.646C545.056 101.572 545.09 101.477 545.087 101.38C545.084 101.283 545.044 101.19 544.976 101.121C544.908 101.052 544.816 101.011 544.719 101.007H526.106ZM537.608 98.1932C537.62 98.1378 537.619 98.0804 537.606 98.0254C537.593 97.9703 537.568 97.9189 537.532 97.8749C537.496 97.8309 537.45 97.7954 537.399 97.771C537.347 97.7467 537.291 97.7339 537.234 97.7337H535.535C535.437 97.7342 535.342 97.7728 535.271 97.8414C535.2 97.91 535.158 98.0034 535.154 98.1022L535.14 98.4085C535.136 98.5091 535.171 98.6073 535.238 98.682C535.306 98.7567 535.4 98.8019 535.5 98.8081L537.134 98.899H537.155C537.244 98.8991 537.329 98.8683 537.398 98.812C537.466 98.7557 537.513 98.6774 537.53 98.5904L537.608 98.1932ZM532.723 98.0735C532.708 97.9846 532.662 97.904 532.593 97.8461C532.524 97.7883 532.436 97.7569 532.346 97.7577H529.522C529.435 97.7587 529.352 97.7891 529.285 97.8439C529.217 97.8986 529.171 97.9745 529.152 98.0593C529.133 98.1441 529.143 98.2328 529.181 98.3109C529.219 98.3891 529.282 98.4521 529.36 98.4899C529.821 98.7291 530.33 98.8608 530.848 98.8751C531.41 98.8491 531.963 98.7227 532.48 98.5019C532.564 98.4702 532.634 98.4101 532.679 98.3318C532.723 98.2536 532.739 98.1622 532.723 98.0735ZM466.289 100.981C466.224 100.981 466.159 100.998 466.102 101.03C466.045 101.061 465.997 101.107 465.962 101.163L465.881 101.301C465.828 101.39 465.812 101.496 465.836 101.596C465.848 101.646 465.871 101.693 465.902 101.734C465.933 101.775 465.972 101.81 466.017 101.835L466.053 101.864C466.162 101.955 466.297 102.009 466.439 102.017C476.854 102.017 487.27 102.017 497.687 102.017H499.669C499.72 102.017 499.77 102.007 499.816 101.988C499.863 101.968 499.905 101.94 499.94 101.904C499.976 101.868 500.004 101.826 500.023 101.779C500.042 101.732 500.051 101.682 500.051 101.632V101.366C500.052 101.316 500.043 101.266 500.024 101.219C500.004 101.172 499.975 101.13 499.939 101.096C499.904 101.059 499.862 101.03 499.816 101.01C499.77 100.99 499.72 100.98 499.669 100.981H466.289ZM490.052 98.0448C490.023 97.9746 489.974 97.9145 489.911 97.872C489.848 97.8294 489.774 97.8063 489.699 97.8055H473.001C472.941 97.8057 472.881 97.8201 472.828 97.8475C472.774 97.8749 472.727 97.9146 472.691 97.9635C472.656 98.0127 472.633 98.0696 472.624 98.1294C472.615 98.1893 472.62 98.2505 472.639 98.308L472.703 98.509C472.728 98.586 472.776 98.6532 472.841 98.701C472.906 98.7487 472.985 98.7745 473.066 98.7746H489.496C489.549 98.7744 489.601 98.7634 489.649 98.7424C489.697 98.7215 489.741 98.6909 489.777 98.6526L489.966 98.4516C490.017 98.3995 490.053 98.3337 490.068 98.262C490.083 98.1904 490.077 98.1134 490.052 98.0448ZM448.37 174.296C448.401 176.87 448.37 185.207 448.401 187.782C448.444 190.684 448.728 190.921 451.564 190.892C452.938 190.892 454.312 190.974 455.688 190.969C457.499 190.969 458.129 190.471 458.155 188.765C458.218 184.538 458.218 180.31 458.155 176.083C458.133 174.422 457.661 174.075 455.932 173.977C455.66 173.961 455.383 173.963 455.106 173.977C452.863 174.016 450.617 174.035 448.37 174.035C448.39 173.935 448.388 173.832 448.366 173.733C448.344 173.634 448.302 173.54 448.242 173.458C448.182 173.376 448.106 173.308 448.019 173.257C447.931 173.205 447.834 173.173 447.733 173.161C447.638 173.447 447.564 173.739 447.511 174.035C445.374 174.035 443.237 174.016 441.1 173.977C440.127 173.807 439.126 173.999 438.285 174.518C438.132 175.079 438.031 175.652 437.984 176.231C437.96 180.28 437.984 184.329 437.984 188.375C437.981 188.743 438.009 189.11 438.068 189.473C438.213 190.354 438.647 190.854 439.499 190.876C441.517 190.936 443.535 190.962 445.548 190.897C446.848 190.857 447.361 190.316 447.418 189.004C447.495 187.167 447.473 185.327 447.485 183.484C447.485 182.288 447.468 175.334 447.485 174.138C447.485 174.104 447.485 174.071 447.497 174.035H448.356C448.375 174.121 448.368 174.212 448.37 174.296ZM458.193 199.839C458.193 198.279 458.193 196.729 458.193 195.157C458.226 194.699 458.234 194.241 458.219 193.783C458.216 193.269 458.012 192.777 457.65 192.413C457.289 192.048 456.799 191.841 456.287 191.835C455.651 191.803 455.015 191.803 454.379 191.835C453.096 191.835 451.812 191.821 450.529 191.869C449.098 191.921 448.382 192.493 448.399 193.84C448.423 197.975 448.489 202.11 448.671 206.24C448.747 207.954 449.253 208.317 450.918 208.37C452.583 208.423 454.219 208.425 455.865 208.37C457.403 208.305 458.064 207.724 458.136 206.18C458.236 204.072 458.162 201.957 458.162 199.844L458.193 199.839ZM458.181 131.574C458.231 131.226 458.198 130.872 458.083 130.541C457.969 130.21 457.777 129.911 457.523 129.67C457.27 129.428 456.962 129.252 456.626 129.154C456.29 129.057 455.936 129.042 455.593 129.111C453.947 129.162 452.304 129.224 450.655 129.319C449.193 129.403 448.699 129.855 448.656 131.375C448.592 133.67 448.64 135.969 448.64 138.266H448.468C448.537 140.475 448.582 142.681 448.685 144.887C448.664 145.074 448.686 145.264 448.749 145.441C448.812 145.618 448.915 145.778 449.049 145.909C449.184 146.04 449.346 146.139 449.525 146.197C449.703 146.255 449.892 146.271 450.078 146.244C452.189 146.278 454.298 146.29 456.406 146.227C457.659 146.189 458.031 145.797 458.119 144.538C458.207 143.279 458.219 141.963 458.219 140.678C458.224 137.642 458.238 134.608 458.181 131.574ZM458.212 124.938C458.212 121.806 458.212 118.674 458.198 115.544C458.207 114.808 458.141 114.074 458.002 113.352C457.944 112.888 457.712 112.463 457.354 112.163C456.996 111.864 456.538 111.711 456.072 111.737C455.614 111.694 455.156 111.708 454.694 111.708H448.294C448.504 112.401 448.592 113.126 448.556 113.85C448.606 115.505 448.578 122.926 448.597 124.584C448.589 125.32 448.621 126.055 448.69 126.788C448.683 126.999 448.721 127.209 448.802 127.404C448.883 127.599 449.004 127.774 449.159 127.918C449.313 128.062 449.496 128.171 449.696 128.238C449.896 128.304 450.107 128.327 450.317 128.305C452.239 128.386 454.167 128.437 456.089 128.396C457.444 128.365 458.021 127.711 458.167 126.309C458.207 125.853 458.222 125.396 458.212 124.938ZM456.199 168.797C453.632 168.775 451.063 168.797 448.494 168.797H440.51C440.236 168.797 439.959 168.785 439.688 168.797C439.02 168.835 438.294 168.962 438.197 169.72C438.197 170.254 438.363 170.773 438.674 171.206C438.881 171.513 439.156 171.768 439.477 171.952C439.798 172.135 440.156 172.243 440.525 172.266C440.799 172.3 441.074 172.317 441.35 172.317C446.214 172.305 451.075 172.271 455.939 172.288C456.536 172.288 457.125 172.142 457.654 171.863C458.182 171.583 458.635 171.179 458.973 170.685C459.1 170.55 459.188 170.383 459.227 170.202C459.266 170.02 459.255 169.832 459.195 169.656C459.135 169.481 459.028 169.325 458.886 169.207C458.743 169.088 458.572 169.011 458.389 168.983C457.665 168.86 456.933 168.797 456.199 168.797ZM447.44 193.376C447.41 193.002 447.247 192.652 446.981 192.388C446.714 192.125 446.363 191.966 445.99 191.941C443.795 191.881 441.6 191.905 439.406 191.941C439.079 191.954 438.768 192.088 438.533 192.317C438.297 192.545 438.154 192.852 438.13 193.18C438.031 193.813 437.985 194.453 437.991 195.094C437.972 196.745 437.991 198.401 437.991 200.055C437.991 201.615 437.991 203.18 437.991 204.74C437.98 205.38 438.015 206.019 438.096 206.654C438.105 207.079 438.278 207.483 438.578 207.782C438.879 208.082 439.283 208.252 439.707 208.257C441.717 208.351 443.733 208.341 445.744 208.312C446.072 208.304 446.385 208.174 446.625 207.949C446.864 207.723 447.012 207.418 447.041 207.09C447.254 206.009 447.387 204.914 447.44 203.814C447.519 200.703 447.523 197.568 447.545 194.446C447.546 194.087 447.511 193.728 447.44 193.376ZM437.994 144.289C438.032 145.699 438.457 146.141 439.809 146.203C441.734 146.28 443.664 146.278 445.594 146.225C446.786 146.194 447.161 145.775 447.218 144.461C447.323 141.884 447.39 139.305 447.402 136.725C447.402 134.885 447.335 133.04 447.235 131.203C447.161 129.841 446.724 129.37 445.372 129.315C443.359 129.231 441.338 129.241 439.32 129.233C439.04 129.229 438.767 129.327 438.552 129.507C438.336 129.687 438.193 129.939 438.147 130.217C438.023 130.847 437.967 131.489 437.98 132.131C437.958 133.974 437.98 135.818 437.98 137.661C437.977 139.867 437.929 142.076 437.994 144.289ZM438.015 126.367C438.053 127.932 438.523 128.314 440.031 128.334C441.868 128.355 443.702 128.401 445.534 128.334C446.712 128.293 447.189 127.798 447.235 126.594C447.306 124.663 447.235 116.965 447.28 115.032C447.234 113.919 447.328 112.805 447.559 111.715H442.039C441.488 111.715 440.937 111.682 440.389 111.737C438.786 111.892 438.151 112.534 438.003 114.206C437.932 115.029 437.956 115.862 437.958 116.692C437.963 119.92 437.941 123.146 438.015 126.367ZM440.711 109.815C441.71 109.913 442.724 109.899 443.728 109.899C447.573 109.899 451.418 109.899 455.261 109.899C455.81 109.911 456.359 109.891 456.905 109.839C458.429 109.648 458.706 109.389 459.567 107.53C459.314 106.784 458.692 106.673 458.031 106.671C456.018 106.671 454.002 106.671 451.991 106.671C448.053 106.671 444.119 106.64 440.184 106.642C439.677 106.553 439.156 106.575 438.659 106.707C438.161 106.839 437.698 107.079 437.302 107.408C437.582 108.094 438.051 108.685 438.655 109.112C439.26 109.539 439.973 109.783 440.711 109.815ZM462.656 101.943C462.758 101.943 462.855 101.903 462.928 101.831C463 101.759 463.041 101.662 463.042 101.56V101.361C463.042 101.259 463.001 101.161 462.928 101.089C462.856 101.017 462.758 100.976 462.656 100.976H435.661C435.61 100.976 435.561 100.986 435.514 101.006C435.467 101.025 435.425 101.054 435.389 101.09C435.354 101.126 435.326 101.169 435.307 101.216C435.288 101.263 435.279 101.313 435.279 101.364V101.56C435.279 101.661 435.32 101.759 435.391 101.831C435.463 101.902 435.56 101.943 435.661 101.943H462.656ZM469.137 98.7411C469.226 98.7415 469.312 98.7106 469.38 98.6537C469.449 98.5969 469.495 98.5177 469.512 98.4301L469.552 98.2195C469.563 98.1641 469.562 98.1069 469.548 98.0521C469.534 97.9974 469.508 97.9466 469.471 97.9036C469.436 97.8596 469.391 97.8241 469.34 97.7996C469.289 97.7752 469.234 97.7625 469.177 97.7625H431.575C431.525 97.7625 431.475 97.7724 431.428 97.7918C431.382 97.8112 431.34 97.8396 431.304 97.8754C431.269 97.9112 431.241 97.9537 431.222 98.0005C431.202 98.0472 431.193 98.0972 431.193 98.1477V98.3583C431.193 98.4086 431.203 98.4586 431.222 98.5052C431.241 98.5518 431.269 98.5941 431.304 98.6297C431.34 98.6653 431.382 98.6935 431.428 98.7126C431.475 98.7318 431.525 98.7414 431.575 98.7411H469.137ZM474.898 193.687C474.891 193.431 474.833 193.179 474.728 192.946C474.623 192.713 474.473 192.503 474.286 192.328C474.099 192.154 473.88 192.018 473.64 191.929C473.401 191.84 473.146 191.8 472.892 191.811C470.883 191.775 468.867 191.854 466.859 191.96C465.869 192.012 465.428 192.505 465.39 193.592C465.337 195.702 465.373 197.815 465.373 199.923H465.344C465.344 201.577 465.344 203.23 465.344 204.883C465.331 205.433 465.357 205.983 465.421 206.53C465.425 207.001 465.614 207.451 465.946 207.783C466.279 208.115 466.728 208.303 467.198 208.305C469.106 208.401 471.038 208.403 472.956 208.317C474.184 208.262 474.716 207.654 474.814 206.35C474.919 204.979 474.921 203.601 474.936 202.22C474.962 199.827 474.967 197.449 474.969 195.061C474.978 194.602 474.951 194.142 474.89 193.687H474.898ZM474.924 176.363C474.922 175.996 474.881 175.63 474.8 175.272C474.757 174.948 474.602 174.649 474.361 174.428C474.121 174.207 473.811 174.078 473.485 174.063C470.847 173.836 468.192 173.895 465.566 174.241C465.478 175.198 465.361 175.916 465.356 176.648C465.337 180.412 465.344 184.173 465.356 187.937C465.346 188.396 465.361 188.854 465.402 189.311C465.395 189.52 465.432 189.728 465.51 189.921C465.589 190.115 465.707 190.29 465.857 190.435C466.007 190.58 466.186 190.691 466.382 190.762C466.578 190.833 466.787 190.862 466.995 190.847C468.822 190.952 470.647 191.046 472.481 191.055C474.115 191.055 474.893 190.337 474.91 188.751C474.936 184.621 474.917 180.491 474.917 176.363H474.924ZM466.508 171.577C467.06 172.07 467.781 172.327 468.519 172.295H471.534C475.37 172.295 479.208 172.243 483.044 172.321C483.728 172.322 484.4 172.139 484.991 171.792C485.582 171.445 486.07 170.946 486.404 170.347C486.467 170.224 486.503 170.09 486.51 169.952C486.517 169.814 486.495 169.676 486.445 169.547C486.395 169.418 486.319 169.302 486.221 169.204C486.123 169.107 486.006 169.032 485.877 168.983C485.444 168.85 484.995 168.776 484.541 168.763C481.622 168.744 478.7 168.763 475.778 168.763V168.804C472.944 168.804 470.113 168.804 467.281 168.804C466.566 168.804 465.693 168.725 465.392 169.572C465.034 170.563 465.91 171.029 466.501 171.573L466.508 171.577ZM485.524 199.945C485.524 198.289 485.524 196.633 485.524 194.975C485.532 194.424 485.489 193.874 485.395 193.331C485.356 192.957 485.182 192.611 484.906 192.356C484.63 192.102 484.272 191.957 483.898 191.948C481.698 191.885 479.497 191.879 477.295 191.929C476.921 191.941 476.563 192.085 476.284 192.336C476.005 192.587 475.824 192.928 475.771 193.3C475.645 193.837 475.581 194.387 475.58 194.939C475.594 198.25 475.637 201.562 475.67 204.876C475.67 205.242 475.67 205.613 475.713 205.979C475.895 207.748 476.379 208.3 478.099 208.372C479.819 208.444 481.586 208.413 483.327 208.334C483.605 208.362 483.885 208.33 484.149 208.24C484.413 208.149 484.654 208.002 484.856 207.809C485.057 207.616 485.215 207.381 485.318 207.121C485.42 206.861 485.466 206.582 485.45 206.302C485.494 205.751 485.507 205.197 485.491 204.644C485.491 203.082 485.491 201.518 485.491 199.949L485.524 199.945ZM485.398 175.734C485.362 174.518 484.907 174.059 483.704 174.025C481.691 173.958 479.677 173.953 477.662 174.011C476.281 174.052 475.852 174.489 475.68 175.796C475.618 176.343 475.591 176.894 475.599 177.445C475.599 181.118 475.599 184.793 475.644 188.466C475.661 190.27 476.162 190.859 477.853 190.909C479.761 190.964 481.696 190.936 483.618 190.876C484.828 190.84 485.398 190.27 485.467 188.961C485.553 187.404 485.503 185.839 485.51 184.279C485.51 183.635 485.51 182.991 485.51 182.35H485.415C485.407 180.134 485.453 177.93 485.391 175.729L485.398 175.734ZM475.649 126.247C475.692 127.683 476.253 128.298 477.648 128.343C479.656 128.413 481.674 128.389 483.688 128.326C484.813 128.288 485.314 127.74 485.46 126.606C485.507 126.15 485.525 125.691 485.515 125.232C485.515 121.926 485.508 118.619 485.493 115.314C485.503 114.763 485.467 114.213 485.386 113.668C485.38 113.413 485.322 113.161 485.216 112.929C485.11 112.697 484.959 112.489 484.77 112.318C484.582 112.146 484.36 112.015 484.12 111.932C483.879 111.849 483.624 111.816 483.37 111.835C481.543 111.744 479.714 111.729 477.884 111.789C477.37 111.757 476.864 111.927 476.474 112.264C476.083 112.6 475.839 113.077 475.794 113.591C475.663 114.314 475.598 115.046 475.601 115.781C475.575 117.341 475.601 118.903 475.601 120.463H475.647C475.627 122.387 475.58 124.316 475.651 126.242L475.649 126.247ZM483.311 129.339C481.567 129.279 479.823 129.298 478.08 129.296C477.713 129.292 477.347 129.328 476.987 129.401C476.621 129.459 476.288 129.648 476.049 129.933C475.811 130.218 475.683 130.579 475.69 130.951C475.67 133.153 475.69 135.357 475.69 137.558H475.713C475.713 139.858 475.673 142.16 475.728 144.459C475.759 145.675 476.221 146.134 477.417 146.184C479.432 146.263 481.452 146.292 483.47 146.242C485.019 146.203 485.448 145.775 485.477 144.244C485.531 141.207 485.498 138.168 485.508 135.132C485.508 133.935 485.572 132.739 485.524 131.542C485.453 130.009 484.84 129.394 483.304 129.334L483.311 129.339ZM465.409 126.446C465.452 127.79 465.926 128.226 467.291 128.298C469.027 128.389 470.773 128.451 472.512 128.429C474.251 128.408 474.898 127.783 474.912 126.106C474.964 122.244 474.936 118.382 474.912 114.517C474.894 114.059 474.814 113.604 474.673 113.168C474.58 112.759 474.345 112.396 474.011 112.143C473.677 111.891 473.264 111.766 472.846 111.789C471.105 111.773 469.361 111.698 467.622 111.789C466.062 111.871 465.461 112.467 465.397 114.031C465.306 116.144 465.373 118.262 465.373 120.377C465.394 122.397 465.33 124.421 465.394 126.441L465.409 126.446ZM465.342 143.241C465.34 143.793 465.368 144.344 465.425 144.892C465.425 145.221 465.552 145.537 465.778 145.775C466.005 146.013 466.314 146.153 466.642 146.168C468.932 146.215 471.222 146.225 473.509 146.139C474.413 146.105 474.824 145.502 474.845 144.366C474.888 142.066 474.859 139.767 474.859 137.467C474.859 135.445 474.89 133.423 474.859 131.401C474.826 129.989 474.249 129.317 472.877 129.284C470.864 129.236 468.841 129.312 466.828 129.41C466.641 129.406 466.456 129.439 466.282 129.509C466.109 129.578 465.951 129.683 465.819 129.815C465.687 129.948 465.583 130.106 465.514 130.279C465.445 130.453 465.411 130.64 465.416 130.827C465.316 132.11 465.292 133.399 465.292 134.687C465.28 137.529 465.311 140.386 465.335 143.236L465.342 143.241ZM468.495 109.894C471.973 109.87 475.451 109.88 478.929 109.88C480.303 109.88 481.677 109.925 483.048 109.88C484.957 109.827 485.36 109.559 486.865 107.509C486.233 106.48 485.348 106.64 484.551 106.64C481.071 106.64 477.593 106.652 474.113 106.654C471.639 106.654 469.168 106.635 466.694 106.654C465.979 106.654 465.199 106.573 464.75 107.42C464.968 108.219 465.468 108.911 466.157 109.366C466.846 109.822 467.678 110.01 468.495 109.894ZM491.817 195.949C491.8 198.892 491.731 201.828 491.693 204.771C491.693 205.216 491.731 205.666 491.764 206.341C494.1 205.556 496.297 206.381 498.534 206.286C502.145 206.13 502.238 206.14 502.136 202.543C502.124 202.177 502.114 201.809 502.119 201.438C502.134 199.93 501.747 198.705 500.053 198.315C499.848 198.265 499.712 197.939 499.545 197.75C499.705 197.573 499.815 197.334 499.944 197.324C501.907 197.126 502.188 195.846 502.119 194.185C502.038 192.254 502.119 190.323 502.119 188.39C502.131 187.93 502.11 187.47 502.055 187.014C502.047 186.712 501.98 186.414 501.857 186.138C501.735 185.862 501.559 185.613 501.34 185.406C501.122 185.198 500.864 185.036 500.583 184.928C500.301 184.821 500.001 184.77 499.7 184.779C497.966 184.575 496.209 184.689 494.515 185.116C494.182 185.193 493.844 185.246 493.503 185.274C493.048 183.728 493.181 183.3 494.181 183.087C496.175 182.792 498.196 182.729 500.204 182.898C501.024 182.981 501.849 182.999 502.673 182.953C505.506 182.568 508.345 183.087 511.179 182.891C511.421 182.928 511.657 182.999 511.88 183.101C512.04 183.556 512.231 184.106 512.426 184.661L512.379 184.683C512.38 184.708 512.38 184.732 512.379 184.757C510.203 184.757 508.025 184.733 505.85 184.805C503.889 184.867 503.162 185.489 503.073 187.459C502.954 190.21 503.016 192.962 503.061 195.731C503.083 196.86 503.503 197.131 504.858 197.138C506.162 197.138 506.31 197.456 505.59 198.842L503.67 198.346C503.417 199.046 503.225 199.767 503.095 200.5C503.004 201.783 502.978 203.071 503.016 204.357C503.035 205.391 503.479 206.051 504.416 206.085C506.802 206.164 509.173 206.125 511.548 206.061C511.877 206.043 512.185 205.897 512.405 205.652C512.626 205.408 512.742 205.086 512.727 204.757C512.794 203.934 512.863 203.106 512.863 202.28C512.863 197.777 512.896 193.271 512.832 188.765C512.754 187.418 512.603 186.076 512.379 184.745H512.448C512.436 184.712 512.426 184.681 512.417 184.649C512.732 184.494 513.168 184.41 513.306 184.152C513.917 183.037 514.606 181.981 515.293 180.919C515.603 180.296 515.758 179.608 515.748 178.912C515.737 178.216 515.56 177.533 515.231 176.921C514.268 174.362 512.586 172.138 510.39 170.518C508.193 168.898 505.576 167.951 502.854 167.792C500.102 167.971 497.453 168.911 495.202 170.508C494.229 171.344 493.308 172.238 492.442 173.185C491.278 174.719 490.418 176.461 489.906 178.318C489.639 178.865 489.561 179.485 489.683 180.082C489.806 180.678 490.123 181.217 490.584 181.613C490.928 181.911 491.16 182.318 491.242 182.766C491.588 184.476 491.777 186.214 491.807 187.959C491.681 190.624 491.831 193.283 491.817 195.949ZM540.748 199.808C540.748 197.973 540.798 196.135 540.731 194.305C540.669 192.596 540.077 191.981 538.384 191.912C536.377 191.826 534.364 191.842 532.351 191.866C530.999 191.883 530.366 192.488 530.3 193.895C530.221 195.539 530.252 197.193 530.245 198.842C530.245 200.584 530.209 202.323 530.245 204.065C530.255 205.069 530.351 206.069 530.533 207.056C530.596 207.426 530.79 207.761 531.079 207.999C531.369 208.237 531.734 208.363 532.108 208.353C534.209 208.389 536.315 208.468 538.415 208.375C540.018 208.303 540.638 207.592 540.702 205.869C540.776 203.852 540.719 201.83 540.719 199.813L540.748 199.808ZM530.49 189.055C530.536 190.409 531.037 190.873 532.361 190.897C534.374 190.933 536.392 190.945 538.403 190.852C540.115 190.77 540.678 190.215 540.707 188.435C540.778 184.298 540.774 180.163 540.728 176.026C540.714 174.683 540.184 174.095 538.939 174.044C536.654 173.958 534.362 173.956 532.074 174.023C530.922 174.059 530.491 174.556 530.455 175.822C530.393 178.026 530.438 180.235 530.438 182.441H530.471C530.464 184.647 530.414 186.853 530.483 189.055H530.49ZM537.251 172.305C537.983 172.299 538.712 172.202 539.421 172.018C539.824 171.912 540.196 171.715 540.51 171.442C540.824 171.168 541.071 170.826 541.232 170.441C541.303 170.297 541.341 170.138 541.343 169.977C541.344 169.816 541.309 169.657 541.24 169.512C541.171 169.367 541.07 169.239 540.945 169.139C540.819 169.039 540.673 168.968 540.516 168.933C539.976 168.838 539.428 168.793 538.88 168.799C536.218 168.787 533.558 168.799 530.898 168.799V168.814C528.239 168.814 525.577 168.814 522.915 168.814C522.276 168.804 521.638 168.847 521.006 168.943C520.847 168.969 520.696 169.034 520.568 169.133C520.44 169.231 520.339 169.361 520.273 169.509C520.208 169.657 520.18 169.819 520.193 169.98C520.205 170.142 520.258 170.298 520.346 170.434C520.668 170.989 521.127 171.453 521.679 171.78C522.23 172.108 522.856 172.288 523.497 172.305C528.065 172.252 532.661 172.317 537.243 172.302L537.251 172.305ZM540.726 131.684C540.643 129.908 540.103 129.406 538.36 129.341C536.258 129.267 534.157 129.288 532.055 129.341C531.075 129.363 530.576 129.848 530.462 130.889C530.333 132.069 530.271 133.256 530.276 134.443C530.276 135.814 530.39 137.187 530.452 138.561H530.383C530.383 140.475 530.359 142.413 530.383 144.337C530.405 145.696 530.801 146.151 532.196 146.201C534.295 146.275 536.401 146.285 538.5 146.213C540.139 146.156 540.614 145.644 540.709 144.043C540.795 142.578 540.836 141.109 540.831 139.645C540.833 136.991 540.843 134.332 540.719 131.681L540.726 131.684ZM540.726 114.596C540.693 112.615 539.979 111.885 538.088 111.801C536.26 111.721 534.429 111.732 532.602 111.835C532.321 111.811 532.039 111.848 531.774 111.943C531.509 112.038 531.268 112.189 531.066 112.386C530.865 112.582 530.707 112.82 530.605 113.083C530.503 113.346 530.458 113.628 530.474 113.909C530.322 116.204 530.299 118.506 530.405 120.803C530.405 122.641 530.376 124.481 530.405 126.319C530.436 127.869 530.882 128.338 532.344 128.353C534.362 128.374 536.382 128.393 538.395 128.314C540.101 128.245 540.693 127.661 540.721 125.922C540.771 122.138 540.786 118.365 540.721 114.594L540.726 114.596ZM520.15 120.339C520.15 122.363 520.102 124.39 520.167 126.412C520.21 127.898 520.682 128.326 522.218 128.377C523.869 128.429 525.524 128.463 527.17 128.377C528.938 128.291 529.505 127.735 529.532 126.008C529.586 122.237 529.555 118.461 529.553 114.687C529.554 114.319 529.518 113.952 529.446 113.591C529.404 113.077 529.164 112.6 528.777 112.26C528.39 111.92 527.886 111.744 527.373 111.77C525.727 111.694 524.072 111.677 522.421 111.746C520.909 111.811 520.238 112.464 520.183 113.984C520.1 116.097 520.162 118.217 520.162 120.334L520.15 120.339ZM529.527 131.21C529.525 130.742 529.347 130.293 529.028 129.951C528.71 129.61 528.274 129.402 527.809 129.37C527.087 129.267 526.357 129.223 525.627 129.238C524.348 129.238 523.065 129.217 521.789 129.286C521.581 129.269 521.371 129.296 521.174 129.367C520.978 129.437 520.798 129.549 520.648 129.695C520.498 129.84 520.38 130.016 520.304 130.211C520.227 130.406 520.192 130.615 520.203 130.825C520.121 131.736 520.143 132.657 520.138 133.572C520.138 135.041 520.138 136.508 520.138 137.974C520.138 139.994 520.107 142.009 520.15 144.026C520.188 145.813 520.522 146.18 522.199 146.232C524.024 146.285 525.856 146.273 527.685 146.206C529.1 146.156 529.555 145.727 529.567 144.409C529.606 140.284 529.594 136.158 529.596 132.031C529.59 131.756 529.566 131.483 529.522 131.212L529.527 131.21ZM520.176 188.961C520.21 190.354 520.637 190.811 521.987 190.854C523.895 190.916 525.837 190.921 527.754 190.825C528.947 190.766 529.372 190.256 529.474 189.076C529.558 188.162 529.563 187.241 529.563 186.322C529.563 183.379 529.559 180.436 529.551 177.492C529.561 176.853 529.535 176.214 529.474 175.578C529.355 174.568 528.907 174.071 527.874 174.04C525.768 173.98 523.661 173.987 521.555 174.04C520.658 174.066 520.274 174.518 520.198 175.459C520.121 176.399 520.143 177.294 520.138 178.213C520.138 179.687 520.138 181.158 520.138 182.628H520.167C520.16 184.736 520.117 186.853 520.171 188.976L520.176 188.961ZM529.574 194.704C529.581 194.337 529.561 193.97 529.515 193.606C529.5 193.186 529.334 192.787 529.047 192.481C528.76 192.176 528.371 191.986 527.955 191.948C527.594 191.887 527.228 191.857 526.862 191.859C525.305 191.859 523.761 191.833 522.192 191.9C520.622 191.967 520.262 192.354 520.15 193.876C520.109 194.424 520.124 194.977 520.121 195.527C520.121 197 520.121 198.47 520.121 199.937C520.121 201.5 520.121 203.062 520.121 204.623C520.105 205.261 520.127 205.901 520.186 206.537C520.322 207.712 520.777 208.272 521.896 208.32C523.804 208.399 525.741 208.387 527.657 208.3C528.124 208.289 528.569 208.101 528.903 207.774C529.238 207.447 529.437 207.005 529.46 206.537C529.534 206.084 529.569 205.625 529.565 205.166C529.578 201.69 529.576 198.207 529.56 194.719L529.574 194.704ZM521.739 109.621C522.179 109.748 522.633 109.815 523.091 109.82C528.131 109.849 533.169 109.851 538.205 109.875C538.941 109.906 539.671 109.733 540.317 109.377C540.962 109.021 541.498 108.493 541.866 107.853C541.952 107.719 541.914 107.509 541.938 107.291C541.279 106.444 540.301 106.645 539.424 106.635C536.399 106.599 533.377 106.614 530.359 106.616C527.611 106.616 524.863 106.624 522.113 106.64C521.297 106.64 520.443 106.592 519.942 107.48C519.944 107.992 520.124 108.487 520.451 108.88C520.778 109.273 521.232 109.54 521.734 109.633L521.739 109.621ZM522.621 101.926C522.723 101.926 522.821 101.885 522.893 101.813C522.965 101.741 523.005 101.643 523.005 101.541V101.397C523.005 101.295 522.965 101.197 522.893 101.125C522.821 101.053 522.723 101.012 522.621 101.012H503.159C503.058 101.013 502.961 101.053 502.889 101.126C502.818 101.198 502.778 101.295 502.778 101.397V101.467C502.775 101.493 502.775 101.519 502.778 101.546C502.777 101.596 502.787 101.646 502.806 101.693C502.825 101.74 502.853 101.782 502.888 101.818C502.924 101.854 502.966 101.882 503.012 101.901C503.059 101.921 503.109 101.931 503.159 101.931H522.628L522.621 101.926ZM502.21 131.32C502.291 130.363 501.916 129.406 500.762 129.363C498.482 129.264 496.189 129.363 493.904 129.446C493.188 129.475 492.814 130.066 492.711 130.767C492.66 131.131 492.636 131.498 492.64 131.865C492.64 135.821 492.64 139.776 492.671 143.732C492.721 144.435 492.818 145.133 492.962 145.823C493.356 145.983 493.766 146.099 494.185 146.168C496.201 146.215 498.219 146.268 500.232 146.223C501.566 146.192 502.028 145.708 502.1 144.354C502.181 142.746 502.198 141.133 502.229 139.523C502.19 139.431 502.17 139.333 502.169 139.233C502.143 138.142 502.11 132.425 502.205 131.332L502.21 131.32ZM502.148 114.445C502.071 112.435 501.432 111.813 499.457 111.749C497.902 111.701 496.337 111.749 494.779 111.816C493.296 111.89 492.871 112.337 492.707 113.826C492.665 114.285 492.648 114.746 492.656 115.206C492.656 118.612 492.656 122.018 492.656 125.424C492.648 125.883 492.67 126.343 492.723 126.8C492.84 127.685 493.258 128.212 494.109 128.235C496.213 128.329 498.327 128.381 500.43 128.324C501.671 128.291 502.145 127.671 502.174 126.307C502.212 124.373 502.174 122.44 502.174 120.507C502.16 118.506 502.219 116.472 502.143 114.457L502.148 114.445ZM495.607 109.866C500.459 109.827 505.311 109.866 510.158 109.866C510.966 109.978 511.787 109.802 512.478 109.368C513.169 108.934 513.686 108.27 513.939 107.492C513.359 106.504 512.474 106.657 511.675 106.652C508.839 106.628 506 106.638 503.162 106.638C499.958 106.638 496.752 106.626 493.551 106.659C492.859 106.659 492.041 106.525 491.664 107.523C492.019 108.259 492.581 108.875 493.281 109.293C493.981 109.712 494.788 109.915 495.602 109.877L495.607 109.866ZM512.832 131.32C512.786 129.69 512.257 129.252 510.616 129.252C509.148 129.252 507.681 129.262 506.215 129.281C505.666 129.269 505.117 129.295 504.571 129.358C504.152 129.385 503.76 129.575 503.479 129.888C503.198 130.201 503.05 130.612 503.066 131.033C503.021 132.397 503.054 138.372 503.054 139.664L502.992 139.681C503.004 141.236 502.992 142.791 503.066 144.347C503.123 145.708 503.586 146.16 504.948 146.201C506.964 146.263 508.982 146.268 510.995 146.201C512.317 146.156 512.76 145.667 512.832 144.287C512.915 142.633 512.913 140.977 512.908 139.322C512.901 136.666 512.901 133.998 512.827 131.332L512.832 131.32ZM512.87 115.419C512.88 114.961 512.86 114.502 512.81 114.046C512.821 113.72 512.762 113.396 512.636 113.096C512.511 112.796 512.321 112.527 512.082 112.307C511.843 112.087 511.559 111.922 511.25 111.823C510.94 111.723 510.614 111.692 510.291 111.732C508.65 111.686 507 111.706 505.356 111.775C505.056 111.738 504.752 111.769 504.465 111.865C504.178 111.96 503.917 112.119 503.699 112.329C503.48 112.538 503.312 112.794 503.204 113.078C503.097 113.361 503.054 113.665 503.078 113.967C502.961 115.333 503.014 116.716 503.002 118.092C503.002 118.824 503.002 119.559 503.002 120.294H503.052C503.052 122.208 503.014 124.146 503.066 126.07C503.107 127.726 503.612 128.293 505.158 128.336C507.169 128.396 509.18 128.36 511.191 128.307C511.563 128.309 511.924 128.174 512.203 127.926C512.483 127.678 512.661 127.336 512.705 126.965C512.813 126.333 512.865 125.692 512.86 125.051C512.863 121.851 512.863 118.643 512.863 115.431L512.87 115.419ZM493.961 98.7387H526.605C526.706 98.7387 526.804 98.6985 526.875 98.6268C526.947 98.555 526.988 98.4576 526.989 98.3559V98.1453C526.988 98.0435 526.947 97.9462 526.875 97.8744C526.804 97.8027 526.706 97.7625 526.605 97.7625H494.018C493.932 97.7623 493.849 97.7912 493.781 97.8447C493.714 97.8981 493.666 97.9728 493.646 98.0568L493.613 98.1932C493.59 98.2443 493.578 98.2997 493.577 98.3559C493.576 98.4069 493.585 98.4576 493.603 98.5051C493.622 98.5527 493.649 98.5961 493.685 98.6328C493.72 98.6695 493.762 98.6989 493.809 98.7191C493.855 98.7393 493.906 98.7501 493.956 98.7507L493.961 98.7387ZM541.272 98.5449C542.756 98.7076 550.68 98.7842 557.745 98.7842C565.522 98.7842 571.378 98.6933 573.403 98.5449C573.5 98.5345 573.589 98.4877 573.652 98.4139C573.716 98.3402 573.749 98.245 573.746 98.1475C573.742 98.05 573.702 97.9575 573.633 97.8887C573.564 97.8199 573.471 97.7799 573.374 97.7768H541.315C541.22 97.7807 541.129 97.82 541.061 97.8872C540.993 97.9543 540.953 98.0445 540.947 98.1401C540.942 98.2357 540.972 98.3299 541.032 98.4043C541.092 98.4787 541.178 98.5304 541.272 98.5449ZM547.529 205.984C547.593 207.76 548.109 208.262 549.883 208.339C551.441 208.408 553.001 208.401 554.561 208.351C556.121 208.3 556.722 207.786 556.851 206.197C556.992 204.46 556.973 202.704 556.996 200.957C557.027 198.932 557.028 196.913 557.032 194.891C557.053 194.432 557.036 193.971 556.98 193.515C556.942 193.095 556.758 192.702 556.459 192.404C556.161 192.107 555.767 191.925 555.348 191.89C553.149 191.835 550.947 191.871 548.748 191.938C548.466 191.961 548.202 192.082 548 192.28C547.798 192.478 547.672 192.74 547.644 193.022C547.54 193.655 547.49 194.295 547.493 194.936C547.472 196.686 547.493 198.435 547.493 200.184H547.522C547.51 202.136 547.45 204.072 547.524 206.001L547.529 205.984ZM565.519 191.814C563.506 191.749 561.486 191.814 559.47 191.885C559.003 191.884 558.554 192.065 558.218 192.39C557.881 192.715 557.685 193.159 557.669 193.627C557.633 193.901 557.617 194.177 557.624 194.453C557.64 197.948 557.66 201.444 557.683 204.941C557.676 205.492 557.714 206.043 557.798 206.587C557.818 207.059 558.022 207.504 558.366 207.826C558.71 208.149 559.166 208.322 559.637 208.31C561.741 208.382 563.854 208.384 565.956 208.269C566.235 208.269 566.51 208.213 566.767 208.104C567.023 207.995 567.255 207.835 567.449 207.634C567.643 207.433 567.795 207.195 567.895 206.934C567.995 206.674 568.042 206.395 568.033 206.116C568.141 205.017 568.134 203.91 568.153 202.806C568.172 201.797 568.153 200.785 568.153 199.772C568.153 198.021 568.181 196.274 568.153 194.527C568.11 192.536 567.53 191.89 565.515 191.83L565.519 191.814ZM568.124 188.267C568.124 184.221 568.124 180.17 568.105 176.121C568.052 175.565 567.949 175.014 567.8 174.475C567.293 174.241 566.757 174.076 566.206 173.985C564.005 173.937 561.801 173.929 559.601 173.985C558.246 174.028 557.757 174.501 557.693 175.832C557.612 177.667 557.643 179.512 557.645 181.352C557.645 183.745 557.645 186.138 557.7 188.531C557.746 190.352 558.282 190.876 559.981 190.904C561.631 190.928 563.282 190.955 564.93 190.938C565.573 190.936 566.213 190.861 566.838 190.715C567.155 190.647 567.443 190.479 567.657 190.235C567.872 189.992 568.003 189.685 568.031 189.361C568.084 189.004 568.114 188.645 568.119 188.284L568.124 188.267ZM558.017 172.281C560.403 172.281 562.771 172.216 565.145 172.305C565.831 172.309 566.506 172.13 567.1 171.787C567.694 171.443 568.187 170.947 568.527 170.35C568.593 170.229 568.631 170.095 568.639 169.957C568.648 169.82 568.626 169.682 568.575 169.554C568.525 169.426 568.447 169.311 568.347 169.216C568.247 169.122 568.128 169.051 567.998 169.007C567.471 168.872 566.931 168.799 566.388 168.79C560.811 168.763 555.234 168.75 549.657 168.751C549.292 168.747 548.927 168.772 548.567 168.828C547.503 169.012 547.171 169.965 547.789 170.912C548.095 171.372 548.518 171.741 549.014 171.98C549.511 172.22 550.062 172.322 550.611 172.276L558.017 172.281ZM557.719 126.077C557.765 127.738 558.277 128.302 559.816 128.343C561.829 128.396 563.847 128.429 565.858 128.319C567.592 128.226 568.1 127.637 568.115 125.874C568.155 122.196 568.127 118.521 568.115 114.843C568.131 114.383 568.085 113.924 567.979 113.476C567.896 113.017 567.659 112.6 567.307 112.295C566.955 111.99 566.509 111.816 566.044 111.801C563.847 111.751 561.65 111.773 559.453 111.801C559.08 111.81 558.722 111.949 558.44 112.196C558.159 112.442 557.972 112.779 557.912 113.149C557.759 113.77 557.679 114.408 557.674 115.048C557.64 116.795 557.662 118.542 557.662 120.289H557.707C557.707 122.234 557.662 124.165 557.707 126.094L557.719 126.077ZM568.11 131.418C567.981 130.016 567.492 129.52 566.051 129.303C565.87 129.274 565.686 129.258 565.503 129.255C563.58 129.255 561.655 129.217 559.735 129.284C558.304 129.334 557.76 129.913 557.729 131.349C557.683 133.552 557.729 135.756 557.729 137.962H557.645C557.645 139.525 557.631 141.088 557.645 142.65C557.648 143.385 557.693 144.119 557.779 144.849C557.783 145.179 557.911 145.495 558.138 145.733C558.366 145.971 558.674 146.113 559.003 146.132C561.562 146.175 564.126 146.187 566.683 146.108C567.542 146.081 567.945 145.543 568.048 144.648C568.129 143.918 568.169 143.184 568.167 142.449C568.167 139.137 568.153 135.83 568.143 132.521C568.131 132.169 568.141 131.798 568.105 131.435L568.11 131.418ZM547.541 126.546C547.579 127.771 548.039 128.221 549.211 128.271C551.119 128.348 553.056 128.381 554.976 128.341C556.267 128.314 556.884 127.707 556.884 126.505C556.939 122.835 556.951 119.164 556.977 115.498C556.977 115.405 556.977 115.312 556.977 115.221C556.841 112.266 556.329 111.77 553.325 111.734C552.044 111.718 550.761 111.684 549.483 111.734C548.204 111.785 547.729 112.268 547.555 113.601C547.497 114.148 547.472 114.699 547.481 115.249C547.481 116.901 547.481 118.554 547.481 120.207H547.522C547.522 122.342 547.474 124.452 547.536 126.563L547.541 126.546ZM547.527 188.813C547.574 190.488 548.004 190.857 549.714 190.895C551.424 190.933 553.189 190.955 554.924 190.895C556.269 190.854 556.81 190.321 556.832 189.083C556.911 185.14 556.954 181.187 557.006 177.256C557.013 176.889 557 176.522 556.968 176.157C556.81 174.482 556.414 174.032 554.781 173.975C552.951 173.915 551.119 173.927 549.294 173.987C547.92 174.032 547.55 174.415 547.517 175.87C547.46 178.069 547.503 180.273 547.503 182.474C547.507 184.611 547.45 186.722 547.522 188.83L547.527 188.813ZM549.542 146.22C551.279 146.263 553.018 146.273 554.754 146.22C556.398 146.168 556.715 145.902 556.794 144.306C556.923 141.655 556.973 138.996 556.989 136.34C557.001 134.603 556.892 132.863 556.834 131.126C556.796 130.009 556.312 129.365 555.205 129.329C553.197 129.267 551.183 129.286 549.172 129.36C548.013 129.401 547.586 129.87 547.536 131.121C547.469 132.863 547.507 134.605 547.503 136.35C547.503 136.807 547.503 137.266 547.503 137.726H547.477C547.477 139.834 547.443 141.944 547.477 144.052C547.522 145.856 547.837 146.184 549.538 146.23L549.542 146.22ZM549.557 109.729C550.28 109.824 551.009 109.873 551.739 109.877C555.758 109.889 559.777 109.889 563.797 109.877C564.801 109.877 565.804 109.823 566.803 109.715C567.215 109.666 567.608 109.507 567.938 109.255C568.269 109.002 568.526 108.665 568.682 108.279C568.765 108.143 568.814 107.989 568.826 107.829C568.838 107.67 568.812 107.511 568.751 107.363C568.69 107.216 568.595 107.085 568.474 106.981C568.353 106.878 568.21 106.804 568.055 106.767C567.608 106.681 567.155 106.64 566.7 106.642C560.944 106.642 555.184 106.642 549.428 106.659C548.552 106.659 547.572 106.437 546.88 107.377C547.019 108.003 547.353 108.57 547.833 108.994C548.313 109.418 548.915 109.679 549.552 109.739L549.557 109.729ZM570.686 102.015C570.736 102.015 570.786 102.005 570.833 101.985C570.88 101.966 570.922 101.938 570.958 101.902C571.029 101.829 571.069 101.731 571.07 101.629V101.347C571.07 101.245 571.03 101.148 570.958 101.075C570.887 101.003 570.79 100.962 570.688 100.962H548.404C548.308 100.962 548.215 100.999 548.145 101.064C548.074 101.13 548.031 101.22 548.023 101.316C547.996 101.406 547.994 101.501 548.02 101.592C548.045 101.682 548.096 101.763 548.166 101.826C548.301 101.937 548.468 102.001 548.643 102.01C554.975 102.01 561.307 102.01 567.637 102.01L570.686 102.015ZM573.613 211.99C572.7 211.894 571.782 211.854 570.865 211.871C549.184 211.871 527.504 211.871 505.826 211.871H503.071V211.854H436.102C435.184 211.854 434.261 211.818 433.347 211.895C432.803 211.94 432.273 212.089 431.785 212.332C431.541 212.468 431.342 212.674 431.215 212.923C431.087 213.172 431.037 213.454 431.069 213.732C431.062 214.011 431.144 214.285 431.303 214.513C431.462 214.741 431.691 214.912 431.954 215.001C432.383 215.163 432.833 215.262 433.29 215.295C434.113 215.347 434.941 215.333 435.768 215.333H565.293C567.401 215.333 569.517 215.333 571.631 215.316C572.272 215.325 572.914 215.288 573.551 215.206C573.92 215.153 574.254 214.957 574.481 214.66C574.708 214.363 574.811 213.989 574.767 213.617C574.784 212.754 574.376 212.096 573.608 212L573.613 211.99ZM431.181 94.556H574.51C574.597 94.5568 574.682 94.5276 574.75 94.4733C574.818 94.419 574.866 94.3429 574.885 94.2576C574.904 94.1724 574.894 94.0831 574.856 94.0046C574.817 93.9261 574.753 93.8631 574.674 93.8262L502.937 59.0029C502.885 58.977 502.828 58.9635 502.77 58.9635C502.712 58.9635 502.655 58.977 502.603 59.0029L431.045 93.8166C430.96 93.8464 430.888 93.9052 430.842 93.9828C430.796 94.0605 430.778 94.1519 430.793 94.2412C430.807 94.3305 430.852 94.4119 430.92 94.4712C430.988 94.5305 431.075 94.5639 431.165 94.5656L431.181 94.556Z" fill="#FBFAF4"/>
</svg>
