<svg width="64" height="64" viewBox="0 0 64 64" fill="none" xmlns="http://www.w3.org/2000/svg">
<path d="M15.8945 57.9474L31.9998 47.2105L48.1051 57.9474" stroke="white" stroke-linecap="round" stroke-linejoin="round"/>
<path d="M15.8945 57.9473L21.263 36.4736" stroke="white" stroke-linecap="round" stroke-linejoin="round"/>
<path d="M48.1067 57.9473L42.7383 36.4736" stroke="white" stroke-linecap="round" stroke-linejoin="round"/>
<path d="M32 40.0526C41.3888 40.0526 49 32.4415 49 23.0526C49 13.6638 41.3888 6.05261 32 6.05261C22.6112 6.05261 15 13.6638 15 23.0526C15 32.4415 22.6112 40.0526 32 40.0526Z" stroke="white" stroke-linecap="round" stroke-linejoin="round"/>
<path d="M32.8765 13.8368L34.505 18.4715C34.5619 18.649 34.6708 18.8053 34.8175 18.9202C34.9643 19.035 35.1422 19.1032 35.3281 19.1158L40.0523 19.3126C40.2654 19.3056 40.4749 19.3694 40.648 19.4938C40.8211 19.6183 40.9482 19.7965 41.0094 20.0007C41.0707 20.205 41.0627 20.4237 40.9867 20.6229C40.9107 20.8221 40.7709 20.9906 40.5892 21.1021L36.885 24.1621C36.7437 24.2868 36.6391 24.4477 36.5824 24.6274C36.5257 24.8071 36.5189 24.9988 36.5629 25.1821L37.8513 29.9421C37.9063 30.1269 37.9037 30.3241 37.8438 30.5074C37.7839 30.6907 37.6695 30.8514 37.516 30.9681C37.3624 31.0847 37.1769 31.1518 36.9842 31.1603C36.7916 31.1688 36.6009 31.1184 36.4376 31.0158L32.5187 28.26C32.3661 28.1545 32.1851 28.0981 31.9997 28.0981C31.8143 28.0981 31.6333 28.1545 31.4808 28.26L27.5618 30.9442C27.3985 31.0468 27.2079 31.0972 27.0152 31.0887C26.8225 31.0802 26.637 31.0131 26.4835 30.8965C26.3299 30.7798 26.2155 30.6192 26.1556 30.4358C26.0957 30.2525 26.0931 30.0553 26.1481 29.8705L27.4365 25.1105C27.4805 24.9272 27.4738 24.7355 27.417 24.5558C27.3603 24.3761 27.2557 24.2153 27.1144 24.0905L23.4102 21.0305C23.2285 20.919 23.0887 20.7505 23.0127 20.5513C22.9367 20.3521 22.9287 20.1334 22.99 19.9292C23.0512 19.7249 23.1783 19.5467 23.3514 19.4222C23.5246 19.2978 23.734 19.2341 23.9471 19.241L28.6713 19.1158C28.8572 19.1032 29.0351 19.035 29.1819 18.9202C29.3286 18.8053 29.4375 18.649 29.4944 18.4715L31.1229 13.8368C31.1872 13.6557 31.306 13.499 31.463 13.3881C31.62 13.2773 31.8075 13.2178 31.9997 13.2178C32.1919 13.2178 32.3794 13.2773 32.5364 13.3881C32.6934 13.499 32.8122 13.6557 32.8765 13.8368Z" stroke="white" stroke-linecap="round" stroke-linejoin="round"/>
</svg>
