<svg width="20" height="20" viewBox="0 0 20 20" fill="none" xmlns="http://www.w3.org/2000/svg">
<path d="M4.86589 2.79999C4.05335 2.79999 3.39922 3.4427 3.39922 4.24105C3.39922 5.0394 4.05335 5.68211 4.86589 5.68211H6.76801L5.82259 8.56423H2.66589C1.85335 8.56423 1.19922 9.20694 1.19922 10.0053C1.19922 10.8036 1.85335 11.4464 2.66589 11.4464H4.88026L3.45935 15.7837C3.27103 16.3513 3.58666 16.9614 4.16438 17.1465C4.7421 17.3315 5.36309 17.0214 5.55141 16.4537L5.55331 16.448L7.19187 11.4464H12.8064L14.445 16.4478C14.6317 17.016 15.2518 17.3279 15.83 17.1444C16.4081 16.961 16.7256 16.3517 16.5389 15.7837L15.1182 11.4464H17.3326C18.1451 11.4464 18.7992 10.8036 18.7992 10.0053C18.7992 9.20694 18.1451 8.56423 17.3326 8.56423H14.1758L13.2304 5.68211H15.1326C15.9451 5.68211 16.5992 5.0394 16.5992 4.24105C16.5992 3.4427 15.9451 2.79999 15.1326 2.79999H4.86589ZM9.07962 5.68211H10.9188L11.8641 8.56423H8.13435L9.07962 5.68211Z" fill="white"/>
</svg>
