<svg width="98" height="98" viewBox="0 0 98 98" fill="none" xmlns="http://www.w3.org/2000/svg">
<path d="M70.1185 27.6447C70.2094 27.7613 70.3561 28.0616 70.3561 28.5161V74.2259C70.3561 74.6804 70.2094 74.9807 70.1185 75.0973H27.8842C27.7933 74.9807 27.6467 74.6804 27.6467 74.2259V28.5161C27.6467 28.0616 27.7934 27.7613 27.8843 27.6447H41.9984H49.0555H56.1125H70.1185ZM70.2542 26.0806H56.1125H41.9305H27.7485C26.828 26.0806 26.082 27.1711 26.082 28.5161V74.2259C26.082 75.5709 26.828 76.6613 27.7485 76.6613H70.2542C71.1745 76.6613 71.9207 75.5709 71.9207 74.2259V28.5161C71.9207 27.1711 71.1746 26.0806 70.2542 26.0806Z" fill="white"/>
<path d="M62.2692 34.0438C62.3708 34.0438 62.4532 34.1272 62.4532 34.2297V68.5121C62.4532 68.6146 62.3707 68.698 62.2692 68.698H35.7316C35.6302 68.698 35.5477 68.6146 35.5477 68.5121V34.2297C35.5477 34.1272 35.6302 34.0438 35.7316 34.0438H62.2692ZM62.2692 32.4032H35.7316C34.7665 32.4032 33.9844 33.221 33.9844 34.2297V68.5121C33.9844 69.5208 34.7665 70.3387 35.7316 70.3387H62.2693C63.2343 70.3387 64.0166 69.5208 64.0166 68.5121V34.2297C64.0166 33.221 63.2342 32.4032 62.2692 32.4032Z" fill="white"/>
<path d="M51.1303 60.8382L50.6771 60.8375L49.9626 60.8415L40.3058 60.8248L40.3066 60.3741C40.3066 60.3741 40.1017 57.8566 43.9282 57.2188C43.9282 57.2188 46.8409 56.8429 47.0463 56.0672C47.0463 56.0672 47.1576 55.981 47.0772 55.0796C46.9059 53.1602 45.6119 52.255 45.089 51.5204C44.5662 50.7857 44.5241 49.939 44.5241 49.939C44.5245 49.7274 44.6161 49.65 44.7684 49.5144C44.9566 49.3466 44.9006 49.1679 44.865 48.9787C44.7297 48.2602 44.7199 47.1063 44.8509 46.3838C44.8817 45.5231 45.6983 44.8331 45.6983 44.8331C45.8516 44.7076 46.0051 44.5695 46.1128 44.4037C46.1429 44.3576 46.1706 44.308 46.187 44.2555C46.2488 44.0575 46.0412 43.9116 46.0833 43.7009C46.1213 43.511 46.4574 43.5022 46.6606 43.4921C47.1184 43.4697 47.5785 43.453 48.0354 43.4877C51.4554 43.7477 52.5776 44.9699 52.5776 44.9699C52.8433 45.2794 53.018 45.6576 53.1228 46.0451C53.1543 46.1609 53.1811 46.2792 53.1956 46.3982C53.3011 46.992 53.2996 47.6111 53.2653 48.211C53.249 48.497 53.2142 48.7785 53.1703 49.0614C53.1473 49.2095 53.1588 49.3473 53.2607 49.4659C53.3459 49.565 53.4434 49.6344 53.485 49.7646C53.5046 49.8255 53.5095 49.8912 53.5094 49.9546C53.5094 49.9546 53.4641 50.8011 52.9386 51.5339C52.4131 52.2668 51.1156 53.1675 50.9374 55.0863C50.8536 55.9875 50.9647 56.074 50.9647 56.074C51.1671 56.8504 54.0784 57.2364 54.0784 57.2364C57.9453 57.9383 57.6882 60.4043 57.6882 60.4043L57.6874 60.8549L55.1408 60.8504L55.5421 60.8459L55.1994 60.8452L54.4892 60.844L51.1303 60.8382Z" fill="white"/>
<path d="M42.3867 20.2581H55.6125V27.1613H42.3867V20.2581Z" stroke="white"/>
<path d="M45.5469 13.9355H52.4501V20.8387H45.5469V13.9355Z" stroke="white"/>
</svg>
