<svg width="20" height="20" viewBox="0 0 20 20" fill="none" xmlns="http://www.w3.org/2000/svg">
<path fill-rule="evenodd" clip-rule="evenodd" d="M2.50091 5.99474C1.86218 7.18815 1.5 8.5518 1.5 10C1.5 10.7643 1.60088 11.505 1.79004 12.2096C3.39347 11.5483 5.20853 11.4268 6.9335 11.9356C7.16762 11.3595 7.42083 10.7918 7.69261 10.2334C5.81062 9.0377 4.06622 7.61726 2.50091 5.99474ZM3.34739 4.70866C4.85905 6.31559 6.55365 7.71976 8.388 8.8977C8.771 8.2081 9.1833 7.53471 9.624 6.87942C8.1556 5.6287 7.20612 3.92341 6.8722 2.09396C5.47893 2.64563 4.26625 3.55494 3.34739 4.70866ZM8.3207 1.66586C8.5599 3.18145 9.3133 4.60154 10.4985 5.65192C11.4072 4.44676 12.4166 3.31191 13.5195 2.2606C12.4471 1.77212 11.2553 1.5 10 1.5C9.4251 1.5 8.8636 1.55707 8.3207 1.66586ZM14.7495 2.94972L14.8552 3.06411C13.7061 4.12571 12.6601 5.28156 11.7258 6.51572C11.7355 6.52101 11.7451 6.52629 11.7548 6.53155C13.7118 7.59445 15.9639 7.58599 17.8369 6.70306C17.1919 5.17155 16.111 3.86866 14.7495 2.94972ZM18.2963 8.1421C16.045 9.1377 13.3713 9.1164 11.0389 7.84968C10.9754 7.81516 10.9125 7.77993 10.8502 7.744C10.4302 8.3702 10.0376 9.0139 9.6732 9.6731C12.2628 11.1382 15.0944 12.1712 18.058 12.7125C18.3447 11.8606 18.5 10.9485 18.5 10C18.5 9.3618 18.4297 8.7401 18.2963 8.1421ZM17.4358 14.1213C14.4535 13.5375 11.6026 12.481 8.9847 11.0069C8.7494 11.4965 8.5292 11.9935 8.3243 12.4973C8.365 12.5185 8.4055 12.54 8.4459 12.562C10.6461 13.757 12.0348 15.8632 12.4001 18.1564C14.5603 17.5218 16.3632 16.0524 17.4358 14.1213ZM10.9278 18.4499C10.6508 16.5984 9.5486 14.8948 7.79462 13.9157C7.35688 15.1991 7.01681 16.5205 6.7802 17.869C7.77327 18.2758 8.8604 18.5 10 18.5C10.3135 18.5 10.6231 18.483 10.9278 18.4499ZM5.38899 17.1418C5.63877 15.8484 5.97888 14.5798 6.40467 13.3448C5.02617 12.9645 3.58205 13.0788 2.30681 13.6193C2.98663 15.0618 4.06023 16.2822 5.38899 17.1418ZM0 10C0 4.47715 4.47715 0 10 0C15.5228 0 20 4.47715 20 10C20 15.5228 15.5228 20 10 20C4.47715 20 0 15.5228 0 10Z" fill="white"/>
</svg>
