<svg width="52" height="42" viewBox="0 0 52 42" fill="none" xmlns="http://www.w3.org/2000/svg">
<path d="M41.8937 0.489075C40.8552 0.489075 39.8638 0.850478 38.9371 1.49946L38.9311 1.49115C26.4955 10.5248 14.9736 11.2059 9.43626 11.5332L8.99149 11.5599C5.88466 11.747 3.05873 13.7708 1.61692 16.8406C0.448005 19.3294 0.434247 22.3335 1.58088 24.8776C3.07105 28.1833 5.92367 30.1894 9.0611 30.1933C9.48729 30.19 9.99469 30.1988 10.5378 30.2156C9.92693 34.4244 12.4192 38.7361 16.7377 40.6071C18.1248 41.2083 19.5874 41.5109 21.0366 41.5109C22.167 41.5109 23.2894 41.3268 24.3616 40.9571C26.841 40.1021 28.7577 38.3592 29.7583 36.0501C29.8991 35.7254 30.0121 35.3904 30.1122 35.052C32.9745 36.3954 35.9437 38.09 38.9312 40.2601L38.9372 40.2518C39.8639 40.9007 40.8553 41.2621 41.8938 41.2621C47.1519 41.2621 51.2705 32.3075 51.2705 20.8759C51.2705 9.44427 47.1517 0.489075 41.8937 0.489075ZM27.9033 35.2458C27.1308 37.0283 25.6391 38.3778 23.7022 39.0456C21.7327 39.7234 19.5451 39.6197 17.5414 38.7519C14.0065 37.2199 11.9768 33.6986 12.5604 30.3245C16.4328 30.6294 22.0146 31.5879 28.243 34.2209C28.1547 34.5701 28.0472 34.9142 27.9033 35.2458ZM9.04344 28.1713C6.81722 28.1926 4.56297 26.572 3.42414 24.0462C2.51735 22.0337 2.52576 19.6614 3.44734 17.7003C4.57426 15.3003 6.74514 13.7207 9.11305 13.5776L9.55536 13.5514C14.5622 13.2555 24.2993 12.6785 35.2951 6.27563C33.5737 9.95219 32.5178 15.0944 32.5178 20.8757C32.5178 26.6608 33.5752 31.8055 35.2985 35.4823C23.8977 28.8471 13.3925 28.1194 9.04344 28.1713ZM40.3788 20.8757C40.3788 24.0318 38.0227 26.6415 34.9782 27.0548C34.7009 25.1601 34.5394 23.0962 34.5394 20.8757C34.5394 18.655 34.701 16.5909 34.9783 14.6961C38.0229 15.1096 40.3788 17.7196 40.3788 20.8757ZM41.8937 39.2401C41.3024 39.2401 40.705 39.0178 40.1184 38.626L40.1197 38.6241C40.0166 38.5492 39.9141 38.4858 39.8112 38.412C37.9635 36.9614 36.274 33.65 35.3286 29.0442C39.3212 28.4632 42.4007 25.0269 42.4007 20.8758C42.4007 16.7243 39.3211 13.288 35.3287 12.7069C36.2738 8.10287 37.9624 4.79234 39.8092 3.34098C39.9132 3.26654 40.0157 3.20268 40.1198 3.12701L40.1185 3.12516C40.705 2.73337 41.3025 2.51098 41.8938 2.51098C45.4459 2.51098 49.2487 9.89048 49.2487 20.8758C49.2487 31.8611 45.4458 39.2401 41.8937 39.2401Z" fill="white"/>
</svg>
