<svg width="82" height="82" viewBox="0 0 82 82" fill="none" xmlns="http://www.w3.org/2000/svg">
<g clip-path="url(#clip0_800_945)">
<path d="M55.0938 47.4062H26.9062C22.6525 47.4062 19.2188 43.9725 19.2188 39.7188V11.5312C19.2188 7.2775 22.6525 3.84375 26.9062 3.84375H55.0938C59.3475 3.84375 62.7812 7.2775 62.7812 11.5312V39.7188C62.7812 43.9725 59.3475 47.4062 55.0938 47.4062Z" stroke="black" stroke-width="1.875" stroke-miterlimit="10" stroke-linecap="round" stroke-linejoin="round"/>
<path d="M67.9062 14.1476C72.1523 14.1476 75.5938 17.589 75.5938 21.8351V60.2726C75.5938 64.5186 72.1523 67.9601 67.9062 67.9601H58.9375L49.9688 78.2101V67.9601H14.0938C9.84769 67.9601 6.40625 64.5186 6.40625 60.2726V21.8351C6.40625 17.589 9.84769 14.1476 14.0938 14.1476" stroke="black" stroke-width="1.875" stroke-miterlimit="10" stroke-linecap="round" stroke-linejoin="round"/>
<path d="M41 33.3125V31.9236C41 29.6071 42.2172 27.4572 44.2031 26.2656C46.1891 25.0741 47.4062 22.9241 47.4062 20.6076V20.5C47.4062 16.9612 44.5388 14.0938 41 14.0938C37.4612 14.0938 34.5938 16.9612 34.5938 20.5" stroke="black" stroke-width="1.875" stroke-miterlimit="10" stroke-linecap="round" stroke-linejoin="round"/>
<path d="M41 38.4375V38.0967" stroke="black" stroke-width="1.875" stroke-miterlimit="10" stroke-linecap="round" stroke-linejoin="round"/>
<path d="M47.6625 57.6562H47.4062" stroke="black" stroke-width="1.875" stroke-miterlimit="10" stroke-linecap="round" stroke-linejoin="round"/>
<path d="M41.2563 57.6562H41" stroke="black" stroke-width="1.875" stroke-miterlimit="10" stroke-linecap="round" stroke-linejoin="round"/>
<path d="M34.85 57.6562H34.5938" stroke="black" stroke-width="1.875" stroke-miterlimit="10" stroke-linecap="round" stroke-linejoin="round"/>
<path d="M55.0938 47.4062H26.9062C22.6525 47.4062 19.2188 43.9725 19.2188 39.7188V11.5312C19.2188 7.2775 22.6525 3.84375 26.9062 3.84375H55.0938C59.3475 3.84375 62.7812 7.2775 62.7812 11.5312V39.7188C62.7812 43.9725 59.3475 47.4062 55.0938 47.4062Z" stroke="black" stroke-width="1.875" stroke-miterlimit="10" stroke-linecap="round" stroke-linejoin="round"/>
<path d="M67.9062 14.1476C72.1523 14.1476 75.5938 17.589 75.5938 21.8351V60.2726C75.5938 64.5186 72.1523 67.9601 67.9062 67.9601H58.9375L49.9688 78.2101V67.9601H14.0938C9.84769 67.9601 6.40625 64.5186 6.40625 60.2726V21.8351C6.40625 17.589 9.84769 14.1476 14.0938 14.1476" stroke="black" stroke-width="1.875" stroke-miterlimit="10" stroke-linecap="round" stroke-linejoin="round"/>
<path d="M41 33.3125V31.9236C41 29.6071 42.2172 27.4572 44.2031 26.2656C46.1891 25.0741 47.4062 22.9241 47.4062 20.6076V20.5C47.4062 16.9612 44.5388 14.0938 41 14.0938C37.4612 14.0938 34.5938 16.9612 34.5938 20.5" stroke="black" stroke-width="1.875" stroke-miterlimit="10" stroke-linecap="round" stroke-linejoin="round"/>
<path d="M41 38.4375V38.0967" stroke="black" stroke-width="1.875" stroke-miterlimit="10" stroke-linecap="round" stroke-linejoin="round"/>
<path d="M47.6625 57.6562H47.4062" stroke="black" stroke-width="1.875" stroke-miterlimit="10" stroke-linecap="round" stroke-linejoin="round"/>
<path d="M41.2563 57.6562H41" stroke="black" stroke-width="1.875" stroke-miterlimit="10" stroke-linecap="round" stroke-linejoin="round"/>
<path d="M34.85 57.6562H34.5938" stroke="black" stroke-width="1.875" stroke-miterlimit="10" stroke-linecap="round" stroke-linejoin="round"/>
</g>
<defs>
<clipPath id="clip0_800_945">
<rect width="82" height="82" fill="white"/>
</clipPath>
</defs>
</svg>
