<?xml version="1.0" encoding="UTF-8"?>
<svg xmlns="http://www.w3.org/2000/svg" width="27" height="35" viewBox="0 0 27 35" fill="none"><g filter="url(#filter0_d_601_3648)"><path d="M12.2153 32.34C2.75556 18.7578 1 17.3649 1 12.375C1 5.53987 6.59583 0 13.5 0C20.4042 0 26 5.53987 26 12.375C26 17.3649 24.2444 18.755 14.7847 32.3345C14.4986 32.7387 14.0306 33 13.5 33C12.9694 33 12.5014 32.7388 12.2194 32.34L12.2167 32.3345L12.2153 32.34ZM13.5 17.5312C16.375 17.5312 18.7069 15.2226 18.7069 12.375C18.7069 9.52737 16.375 7.21875 13.4986 7.21875C10.6222 7.21875 8.29028 9.52737 8.29028 12.375C8.29028 15.2226 10.6222 17.5312 13.4986 17.5312H13.5Z" fill="#5F249F"/></g><defs><filter id="filter0_d_601_3648" x="0" y="0" width="27" height="35" filterUnits="userSpaceOnUse" color-interpolation-filters="sRGB"><feFlood flood-opacity="0" result="BackgroundImageFix"/><feColorMatrix in="SourceAlpha" type="matrix" values="0 0 0 0 0 0 0 0 0 0 0 0 0 0 0 0 0 0 127 0" result="hardAlpha"/><feOffset dy="1"/><feGaussianBlur stdDeviation="0.5"/><feComposite in2="hardAlpha" operator="out"/><feColorMatrix type="matrix" values="0 0 0 0 0 0 0 0 0 0 0 0 0 0 0 0 0 0 0.3 0"/><feBlend mode="normal" in2="BackgroundImageFix" result="effect1_dropShadow_601_3648"/><feBlend mode="normal" in="SourceGraphic" in2="effect1_dropShadow_601_3648" result="shape"/></filter></defs></svg>