<svg width="24" height="24" viewBox="0 0 24 24" fill="none" xmlns="http://www.w3.org/2000/svg">
<mask id="mask0_601_2353" style="mask-type:alpha" maskUnits="userSpaceOnUse" x="0" y="0" width="24" height="24">
<rect width="24" height="24" fill="#D9D9D9"/>
</mask>
<g mask="url(#mask0_601_2353)">
<path d="M20.7006 19.1722L17.2345 15.7192C18.1997 14.457 18.7169 12.9112 18.705 11.3246C18.711 10.361 18.5249 9.40591 18.1575 8.51457C17.7902 7.62324 17.2488 6.81342 16.5649 6.1321C15.8809 5.45077 15.068 4.91148 14.1733 4.54551C13.2785 4.17954 12.3198 3.99417 11.3526 4.00014C10.3854 3.99417 9.42658 4.17954 8.53183 4.54551C7.63709 4.91148 6.82418 5.45077 6.14025 6.1321C5.45631 6.81342 4.91497 7.62324 4.5476 8.51457C4.18023 9.40591 3.99414 10.361 4.00014 11.3246C3.99414 12.2881 4.18023 13.2432 4.5476 14.1345C4.91497 15.0259 5.45631 15.8357 6.14025 16.517C6.82418 17.1984 7.63709 17.7376 8.53183 18.1036C9.42658 18.4696 10.3854 18.655 11.3526 18.649C12.9453 18.6608 14.4969 18.1456 15.764 17.1841L19.2302 20.637L20.7006 19.1722ZM6.10083 11.3246C6.09395 10.6356 6.2251 9.95222 6.48658 9.31438C6.74807 8.67655 7.13465 8.09708 7.6237 7.6099C8.11274 7.12271 8.69443 6.73761 9.3347 6.47711C9.97498 6.21662 10.661 6.08598 11.3526 6.09283C12.0441 6.08598 12.7301 6.21662 13.3704 6.47711C14.0107 6.73761 14.5924 7.12271 15.0814 7.6099C15.5705 8.09708 15.9571 8.67655 16.2185 9.31438C16.48 9.95222 16.6112 10.6356 16.6043 11.3246C16.6112 12.0135 16.48 12.6969 16.2185 13.3347C15.9571 13.9726 15.5705 14.552 15.0814 15.0392C14.5924 15.5264 14.0107 15.9115 13.3704 16.172C12.7301 16.4325 12.0441 16.5631 11.3526 16.5563C10.661 16.5631 9.97498 16.4325 9.3347 16.172C8.69443 15.9115 8.11274 15.5264 7.6237 15.0392C7.13465 14.552 6.74807 13.9726 6.48658 13.3347C6.2251 12.6969 6.09395 12.0135 6.10083 11.3246Z" fill="black"/>
</g>
</svg>
