<svg width="17" height="17" viewBox="0 0 17 17" fill="none" xmlns="http://www.w3.org/2000/svg">
<path d="M16.7006 15.1722L13.2345 11.7192C14.1997 10.457 14.7169 8.91124 14.705 7.32456C14.711 6.36104 14.5249 5.40591 14.1575 4.51457C13.7902 3.62324 13.2488 2.81342 12.5649 2.1321C11.8809 1.45077 11.068 0.911481 10.1733 0.54551C9.27855 0.179539 8.31977 -0.00583409 7.35256 0.000139926C6.38535 -0.00583409 5.42658 0.179539 4.53183 0.54551C3.63709 0.911481 2.82418 1.45077 2.14025 2.1321C1.45631 2.81342 0.914966 3.62324 0.547596 4.51457C0.180226 5.40591 -0.00585639 6.36104 0.000140461 7.32456C-0.00585639 8.28809 0.180226 9.24321 0.547596 10.1345C0.914966 11.0259 1.45631 11.8357 2.14025 12.517C2.82418 13.1984 3.63709 13.7376 4.53183 14.1036C5.42658 14.4696 6.38535 14.655 7.35256 14.649C8.94531 14.6608 10.4969 14.1456 11.764 13.1841L15.2302 16.637L16.7006 15.1722ZM2.10083 7.32456C2.09395 6.63561 2.2251 5.95222 2.48658 5.31438C2.74807 4.67655 3.13465 4.09708 3.6237 3.6099C4.11274 3.12271 4.69443 2.73761 5.3347 2.47711C5.97498 2.21662 6.66098 2.08598 7.35256 2.09283C8.04414 2.08598 8.73015 2.21662 9.37042 2.47711C10.0107 2.73761 10.5924 3.12271 11.0814 3.6099C11.5705 4.09708 11.9571 4.67655 12.2185 5.31438C12.48 5.95222 12.6112 6.63561 12.6043 7.32456C12.6112 8.01351 12.48 8.6969 12.2185 9.33474C11.9571 9.97257 11.5705 10.552 11.0814 11.0392C10.5924 11.5264 10.0107 11.9115 9.37042 12.172C8.73015 12.4325 8.04414 12.5631 7.35256 12.5563C6.66098 12.5631 5.97498 12.4325 5.3347 12.172C4.69443 11.9115 4.11274 11.5264 3.6237 11.0392C3.13465 10.552 2.74807 9.97257 2.48658 9.33474C2.2251 8.6969 2.09395 8.01351 2.10083 7.32456Z" fill="white"/>
</svg>
