<svg width="24" height="25" viewBox="0 0 24 25" fill="none" xmlns="http://www.w3.org/2000/svg">
<mask id="mask0_608_3098" style="mask-type:alpha" maskUnits="userSpaceOnUse" x="0" y="0" width="24" height="25">
<rect y="0.5" width="24" height="24" fill="#D9D9D9"/>
</mask>
<g mask="url(#mask0_608_3098)">
<path d="M20.7006 19.6722L17.2345 16.2192C18.1997 14.957 18.7169 13.4112 18.705 11.8246C18.711 10.861 18.5249 9.90591 18.1575 9.01457C17.7902 8.12324 17.2488 7.31342 16.5649 6.6321C15.8809 5.95077 15.068 5.41148 14.1733 5.04551C13.2785 4.67954 12.3198 4.49417 11.3526 4.50014C10.3854 4.49417 9.42658 4.67954 8.53183 5.04551C7.63709 5.41148 6.82418 5.95077 6.14025 6.6321C5.45631 7.31342 4.91497 8.12324 4.5476 9.01457C4.18023 9.90591 3.99414 10.861 4.00014 11.8246C3.99414 12.7881 4.18023 13.7432 4.5476 14.6345C4.91497 15.5259 5.45631 16.3357 6.14025 17.017C6.82418 17.6984 7.63709 18.2376 8.53183 18.6036C9.42658 18.9696 10.3854 19.155 11.3526 19.149C12.9453 19.1608 14.4969 18.6456 15.764 17.6841L19.2302 21.137L20.7006 19.6722ZM6.10083 11.8246C6.09395 11.1356 6.2251 10.4522 6.48658 9.81438C6.74807 9.17655 7.13465 8.59708 7.6237 8.1099C8.11274 7.62271 8.69443 7.23761 9.3347 6.97711C9.97498 6.71662 10.661 6.58598 11.3526 6.59283C12.0441 6.58598 12.7301 6.71662 13.3704 6.97711C14.0107 7.23761 14.5924 7.62271 15.0814 8.1099C15.5705 8.59708 15.9571 9.17655 16.2185 9.81438C16.48 10.4522 16.6112 11.1356 16.6043 11.8246C16.6112 12.5135 16.48 13.1969 16.2185 13.8347C15.9571 14.4726 15.5705 15.052 15.0814 15.5392C14.5924 16.0264 14.0107 16.4115 13.3704 16.672C12.7301 16.9325 12.0441 17.0631 11.3526 17.0563C10.661 17.0631 9.97498 16.9325 9.3347 16.672C8.69443 16.4115 8.11274 16.0264 7.6237 15.5392C7.13465 15.052 6.74807 14.4726 6.48658 13.8347C6.2251 13.1969 6.09395 12.5135 6.10083 11.8246Z" fill="white"/>
</g>
</svg>
