<svg width="323" height="68" viewBox="0 0 323 68" fill="none" xmlns="http://www.w3.org/2000/svg">
<path d="M6.50174 66.8581V49.0652H0.344727V46.8474H15.1094V49.0652H8.92201V66.8581H6.49669H6.50174Z" fill="white"/>
<path d="M31.9804 66.8581V57.6768H20.598V66.8581H18.1777V46.8474H20.598V55.459H31.9804V46.8474H34.4007V66.8581H31.9804Z" fill="white"/>
<path d="M38.6436 66.8581V46.8474H51.3981V49.0652H41.0638V55.515H51.1905V57.7378H41.0638V64.6352H51.3981V66.853H38.6436V66.8581Z" fill="white"/>
<path d="M74.0511 66.8581L69.089 58.9077H65.2054V66.8581H62.7852V46.8474H70.608C74.1675 46.8474 76.7093 49.1873 76.7093 52.8801C76.7093 56.573 74.3194 58.4601 71.6612 58.6992L76.9169 66.8632H74.0561L74.0511 66.8581ZM70.3143 49.0652H65.2054V56.7154H70.3143C72.6181 56.7154 74.1929 55.1233 74.1929 52.8751C74.1929 50.6268 72.6181 49.0652 70.3143 49.0652Z" fill="white"/>
<path d="M80.6436 66.8581V46.8474H83.0689V66.8581H80.6436Z" fill="white"/>
<path d="M86.9023 56.8681C86.9023 50.7184 91.3074 46.5168 96.8265 46.5168C100.356 46.5168 102.751 48.2259 104.3 50.4742L102.254 51.6441C101.145 49.9655 99.1303 48.7346 96.8265 48.7346C92.6543 48.7346 89.4138 52.0917 89.4138 56.863C89.4138 61.6342 92.6543 64.9913 96.8265 64.9913C99.1303 64.9913 101.145 63.7909 102.254 62.0818L104.325 63.2517C102.69 65.5305 100.356 67.2142 96.8265 67.2142C91.3074 67.2142 86.9023 63.0127 86.9023 56.863V56.8681Z" fill="white"/>
<path d="M121.297 66.8581V57.6768H109.915V66.8581H107.489V46.8474H109.915V55.459H121.297V46.8474H123.722V66.8581H121.297Z" fill="white"/>
<path d="M144.594 66.8581V50.2097L137.966 66.8581H136.973L130.381 50.2097V66.8581H127.956V46.8474H131.429L137.47 62.0869L143.54 46.8474H147.014V66.8581H144.594Z" fill="white"/>
<path d="M160.593 46.5168C166.34 46.5168 170.254 50.9574 170.254 56.8681C170.254 62.7787 166.345 67.2193 160.593 67.2193C154.841 67.2193 150.933 62.7787 150.933 56.8681C150.933 50.9574 154.811 46.5168 160.593 46.5168ZM160.593 48.7346C156.214 48.7346 153.439 52.1833 153.439 56.863C153.439 61.5426 156.214 64.9913 160.593 64.9913C164.973 64.9913 167.743 61.5121 167.743 56.863C167.743 52.2138 164.938 48.7346 160.593 48.7346Z" fill="white"/>
<path d="M187.358 66.8581L176.006 50.7133V66.8581H173.581V46.8474H176.062L187.267 62.6566V46.8474H189.688V66.8581H187.353H187.358Z" fill="white"/>
<path d="M193.936 66.8581V46.8474H200.589C206.629 46.8474 210.569 51.1965 210.569 56.868C210.569 62.5396 206.629 66.8581 200.589 66.8581H193.936ZM196.356 64.6403H200.589C205.318 64.6403 208.062 61.1611 208.062 56.868C208.062 52.5749 205.409 49.0652 200.589 49.0652H196.356V64.6352V64.6403Z" fill="white"/>
<path d="M233.166 66.8581L228.204 58.9077H224.321V66.8581H221.9V46.8474H229.723C233.283 46.8474 235.825 49.1873 235.825 52.8801C235.825 56.573 233.435 58.4601 230.776 58.6992L236.032 66.8632H233.171L233.166 66.8581ZM229.43 49.0652H224.321V56.7154H229.43C231.733 56.7154 233.308 55.1233 233.308 52.8751C233.308 50.6268 231.733 49.0652 229.43 49.0652Z" fill="white"/>
<path d="M239.713 66.8581V46.8474H252.468V49.0652H242.134V55.515H252.26V57.7378H242.134V64.6352H252.468V66.853H239.713V66.8581Z" fill="white"/>
<path d="M265.369 46.5169C268.812 46.5169 271.207 48.0785 272.929 50.2657L271.005 51.4967C269.78 49.874 267.709 48.7347 265.374 48.7347C261.116 48.7347 257.876 52.0918 257.876 56.863C257.876 61.6342 261.116 65.0219 265.374 65.0219C267.709 65.0219 269.633 63.852 270.6 62.8601V58.7807H263.916V56.5629H273.02V63.796C271.212 65.8663 268.554 67.2448 265.374 67.2448C259.83 67.2448 255.364 63.0737 255.364 56.863C255.364 50.6523 259.83 46.5118 265.374 46.5118L265.369 46.5169Z" fill="white"/>
<path d="M277.334 66.8581V46.8474H279.759V66.8581H277.334Z" fill="white"/>
<path d="M293.303 46.5168C299.05 46.5168 302.964 50.9574 302.964 56.8681C302.964 62.7787 299.055 67.2193 293.303 67.2193C287.551 67.2193 283.643 62.7787 283.643 56.8681C283.643 50.9574 287.521 46.5168 293.303 46.5168ZM293.303 48.7346C288.924 48.7346 286.149 52.1833 286.149 56.863C286.149 61.5426 288.924 64.9913 293.303 64.9913C297.683 64.9913 300.453 61.5121 300.453 56.863C300.453 52.2138 297.648 48.7346 293.303 48.7346Z" fill="white"/>
<path d="M320.661 66.8581L309.309 50.7133V66.8581H306.889V46.8474H309.37L320.575 62.6566V46.8474H323V66.8581H320.666H320.661Z" fill="white"/>
<path d="M0 18.9475C0 7.63497 8.3393 0 19.0331 0C27.9091 0 32.5066 5.00012 34.861 9.83238L26.947 13.6778C25.7724 10.7683 22.7242 8.35218 19.0331 8.35218C13.4735 8.35218 9.35704 12.9657 9.35704 18.9526C9.35704 24.9395 13.4735 29.5531 19.0331 29.5531C22.7242 29.5531 25.7724 27.137 26.947 24.2274L34.861 28.0729C32.5623 32.7983 27.9091 37.9053 19.0331 37.9053C8.3393 37.9053 0 30.2143 0 18.9577V18.9475Z" fill="white"/>
<path d="M55.0185 0C65.9249 0 74.0515 7.79774 74.0515 18.9475C74.0515 30.0973 65.9249 37.8951 55.0185 37.8951C44.112 37.8951 35.9297 30.0973 35.9297 18.9475C35.9297 7.79774 44.112 0 55.0185 0ZM55.0185 8.34709C49.0842 8.34709 45.2867 12.9606 45.2867 18.9475C45.2867 24.9345 49.0842 29.548 55.0185 29.548C60.9527 29.548 64.6945 24.8785 64.6945 18.9475C64.6945 13.0166 60.897 8.34709 55.0185 8.34709Z" fill="white"/>
<path d="M134.573 0.60022V37.2389H125.703L110.629 15.1021V37.2389H101.378L86.2946 15.1021V37.2389H77.0996V0.60022H86.563L100.999 21.6943V0.60022H110.887L125.323 21.6943V0.60022H134.573Z" fill="#78BE20"/>
<path d="M138.852 37.2389V0.60022H164.994V8.56582H148.047V14.6646H164.624V22.6862H148.047V29.2784H164.994V37.244H138.852V37.2389Z" fill="white"/>
<path d="M167.455 18.9475C167.455 7.63497 175.794 0 186.488 0C195.364 0 199.961 5.00012 202.316 9.83238L194.402 13.6778C193.227 10.7683 190.179 8.35218 186.488 8.35218C180.928 8.35218 176.812 12.9657 176.812 18.9526C176.812 24.9395 180.928 29.5531 186.488 29.5531C190.179 29.5531 193.227 27.137 194.402 24.2274L202.316 28.0729C200.017 32.7983 195.364 37.9053 186.488 37.9053C175.794 37.9053 167.455 30.2143 167.455 18.9577V18.9475Z" fill="white"/>
<path d="M214.24 37.2389V8.8405H204.24V0.60022H233.379V8.8405H223.435V37.2389H214.24Z" fill="white"/>
<path d="M236.695 37.2389V0.60022H245.89V37.2338H236.695V37.2389Z" fill="white"/>
<path d="M275.511 37.2389L260.432 15.1021V37.2389H251.237V0.60022H260.701L275.136 21.6943V0.60022H284.387V37.2338H275.511V37.2389Z" fill="white"/>
<path d="M307.218 0C315.025 0 319.835 3.95228 322.453 8.51495L314.757 12.691C313.314 10.2749 310.585 8.35218 307.218 8.35218C301.39 8.35218 297.273 12.9657 297.273 18.9526C297.273 24.9395 301.39 29.5531 307.218 29.5531C309.997 29.5531 312.509 28.5612 313.952 27.3557V24.2783H305.77V16.4246H322.985V30.7637C319.137 35.1026 313.947 37.9053 307.213 37.9053C296.574 37.9053 287.911 30.6009 287.911 18.9577C287.911 7.31451 296.574 0.0101734 307.213 0.0101734L307.218 0Z" fill="white"/>
</svg>
