<svg width="20" height="20" viewBox="0 0 20 20" fill="none" xmlns="http://www.w3.org/2000/svg">
<mask id="mask0_6470_398" style="mask-type:alpha" maskUnits="userSpaceOnUse" x="0" y="0" width="20" height="20">
<rect width="20" height="20" fill="#D9D9D9"/>
</mask>
<g mask="url(#mask0_6470_398)">
<path d="M7.91602 13.75L13.7493 10L7.91602 6.25004V13.75ZM3.33268 16.6667C2.87435 16.6667 2.48199 16.5035 2.1556 16.1771C1.82921 15.8507 1.66602 15.4584 1.66602 15V5.00004C1.66602 4.54171 1.82921 4.14935 2.1556 3.82296C2.48199 3.49657 2.87435 3.33337 3.33268 3.33337H16.666C17.1243 3.33337 17.5167 3.49657 17.8431 3.82296C18.1695 4.14935 18.3327 4.54171 18.3327 5.00004V15C18.3327 15.4584 18.1695 15.8507 17.8431 16.1771C17.5167 16.5035 17.1243 16.6667 16.666 16.6667H3.33268Z" fill="#008943"/>
</g>
</svg>
