<svg width="33" height="32" viewBox="0 0 33 32" fill="none" xmlns="http://www.w3.org/2000/svg">
<path fill-rule="evenodd" clip-rule="evenodd" d="M14.9153 2.98379C15.2927 3.38715 15.2715 4.01995 14.8681 4.39722L10.1249 8.83354H25.4067C25.9589 8.83354 26.4067 9.28126 26.4067 9.83354C26.4067 10.3858 25.9589 10.8335 25.4067 10.8335H10.1249L14.8681 15.2698C15.2715 15.6471 15.2927 16.2799 14.9153 16.6833C14.5381 17.0866 13.9053 17.1078 13.502 16.7306L6.90872 10.5639C6.70654 10.3748 6.59181 10.1103 6.59181 9.83352C6.59181 9.55671 6.70656 9.29227 6.90872 9.10318L13.502 2.93654C13.9053 2.55928 14.5381 2.58043 14.9153 2.98379ZM18.0831 15.3171C18.4603 14.9138 19.0931 14.8926 19.4964 15.2698L26.0897 21.4366C26.2919 21.6257 26.4067 21.8901 26.4067 22.1669C26.4067 22.4437 26.2919 22.7082 26.0897 22.8973L19.4964 29.0639C19.0931 29.4411 18.4603 29.4199 18.0831 29.0166C17.7057 28.6133 17.7269 27.9805 18.1303 27.6031L22.8735 23.1669H7.5918C7.0395 23.1669 6.5918 22.7191 6.5918 22.1669C6.5918 21.6146 7.0395 21.1669 7.5918 21.1669H22.8735L18.1303 16.7306C17.7269 16.3533 17.7057 15.7205 18.0831 15.3171Z" fill="black"/>
</svg>
