<svg width="19" height="22" viewBox="0 0 19 22" fill="none" xmlns="http://www.w3.org/2000/svg">
<path d="M12.2089 10.0917H13.1467L12.0651 14.8878L10.6591 8.14417H8.39942L6.76407 14.8878L5.53857 8.14417H3.17578L5.57385 18.9986H7.88235L9.50007 12.5793L10.9468 18.9986H13.0748L15.823 8.14417H12.2089V10.0917Z" fill="#5F249F"/>
<path d="M18.1056 4.85721C17.6347 4.21529 16.9779 3.46343 16.2572 2.74279C15.5366 2.02214 14.7847 1.36529 14.1428 0.894357C13.0489 0.0922857 12.5183 0 12.2143 0H1.69643C0.761357 0 0 0.761357 0 1.69643V20.0179C0 20.9529 0.761357 21.7143 1.69643 21.7143H17.3036C18.2386 21.7143 19 20.9529 19 20.0179V6.78571C19 6.48171 18.9077 5.95107 18.1056 4.85721ZM15.2964 3.70364C15.9478 4.35507 16.4581 4.94136 16.8354 5.42857H13.5701V2.16464C14.0573 2.54193 14.6463 3.05221 15.2964 3.70364ZM17.6429 20.0179C17.6429 20.2024 17.4881 20.3571 17.3036 20.3571H1.69643C1.51321 20.3571 1.35714 20.2024 1.35714 20.0179V1.69643C1.35714 1.51321 1.51321 1.35714 1.69643 1.35714H12.2143V6.10714C12.2143 6.48171 12.5183 6.78571 12.8929 6.78571H17.6429V20.0179Z" fill="#5F249F"/>
</svg>
